<?xml version="1.0" encoding="utf-8" standalone="no"?>
<!DOCTYPE svg PUBLIC "-//W3C//DTD SVG 1.1//EN"
  "http://www.w3.org/Graphics/SVG/1.1/DTD/svg11.dtd">
<svg xmlns:xlink="http://www.w3.org/1999/xlink" width="576pt" height="396pt" viewBox="0 0 576 396" xmlns="http://www.w3.org/2000/svg" version="1.1">
 <metadata>
  <rdf:RDF xmlns:dc="http://purl.org/dc/elements/1.1/" xmlns:cc="http://creativecommons.org/ns#" xmlns:rdf="http://www.w3.org/1999/02/22-rdf-syntax-ns#">
   <cc:Work>
    <dc:type rdf:resource="http://purl.org/dc/dcmitype/StillImage"/>
    <dc:date>2023-10-10T02:26:20.774461</dc:date>
    <dc:format>image/svg+xml</dc:format>
    <dc:creator>
     <cc:Agent>
      <dc:title>Matplotlib v3.7.2, https://matplotlib.org/</dc:title>
     </cc:Agent>
    </dc:creator>
   </cc:Work>
  </rdf:RDF>
 </metadata>
 <defs>
  <style type="text/css">*{stroke-linejoin: round; stroke-linecap: butt}</style>
 </defs>
 <g id="figure_1">
  <g id="patch_1">
   <path d="M 0 396 
L 576 396 
L 576 0 
L 0 0 
z
" style="fill: #ffffff"/>
  </g>
  <g id="axes_1">
   <g id="patch_2">
    <path d="M 72 352.44 
L 518.4 352.44 
L 518.4 47.52 
L 72 47.52 
z
" style="fill: #eaeaf2"/>
   </g>
   <g id="matplotlib.axis_1">
    <g id="xtick_1">
     <g id="line2d_1">
      <path d="M 92.290909 352.44 
L 92.290909 47.52 
" clip-path="url(#p56c4358e0d)" style="fill: none; stroke: #ffffff; stroke-linecap: round"/>
     </g>
     <g id="line2d_2"/>
     <g id="text_1">
      <!-- 0 -->
      <g style="fill: #262626" transform="translate(89.51044 366.597813) scale(0.1 -0.1)">
       <defs>
        <path id="ArialMT-30" d="M 266 2259 
Q 266 3072 433 3567 
Q 600 4063 929 4331 
Q 1259 4600 1759 4600 
Q 2128 4600 2406 4451 
Q 2684 4303 2865 4023 
Q 3047 3744 3150 3342 
Q 3253 2941 3253 2259 
Q 3253 1453 3087 958 
Q 2922 463 2592 192 
Q 2263 -78 1759 -78 
Q 1097 -78 719 397 
Q 266 969 266 2259 
z
M 844 2259 
Q 844 1131 1108 757 
Q 1372 384 1759 384 
Q 2147 384 2411 759 
Q 2675 1134 2675 2259 
Q 2675 3391 2411 3762 
Q 2147 4134 1753 4134 
Q 1366 4134 1134 3806 
Q 844 3388 844 2259 
z
" transform="scale(0.015625)"/>
       </defs>
       <use xlink:href="#ArialMT-30"/>
      </g>
     </g>
    </g>
    <g id="xtick_2">
     <g id="line2d_3">
      <path d="M 143.043558 352.44 
L 143.043558 47.52 
" clip-path="url(#p56c4358e0d)" style="fill: none; stroke: #ffffff; stroke-linecap: round"/>
     </g>
     <g id="line2d_4"/>
     <g id="text_2">
      <!-- 250 -->
      <g style="fill: #262626" transform="translate(134.702152 366.597813) scale(0.1 -0.1)">
       <defs>
        <path id="ArialMT-32" d="M 3222 541 
L 3222 0 
L 194 0 
Q 188 203 259 391 
Q 375 700 629 1000 
Q 884 1300 1366 1694 
Q 2113 2306 2375 2664 
Q 2638 3022 2638 3341 
Q 2638 3675 2398 3904 
Q 2159 4134 1775 4134 
Q 1369 4134 1125 3890 
Q 881 3647 878 3216 
L 300 3275 
Q 359 3922 746 4261 
Q 1134 4600 1788 4600 
Q 2447 4600 2831 4234 
Q 3216 3869 3216 3328 
Q 3216 3053 3103 2787 
Q 2991 2522 2730 2228 
Q 2469 1934 1863 1422 
Q 1356 997 1212 845 
Q 1069 694 975 541 
L 3222 541 
z
" transform="scale(0.015625)"/>
        <path id="ArialMT-35" d="M 266 1200 
L 856 1250 
Q 922 819 1161 601 
Q 1400 384 1738 384 
Q 2144 384 2425 690 
Q 2706 997 2706 1503 
Q 2706 1984 2436 2262 
Q 2166 2541 1728 2541 
Q 1456 2541 1237 2417 
Q 1019 2294 894 2097 
L 366 2166 
L 809 4519 
L 3088 4519 
L 3088 3981 
L 1259 3981 
L 1013 2750 
Q 1425 3038 1878 3038 
Q 2478 3038 2890 2622 
Q 3303 2206 3303 1553 
Q 3303 931 2941 478 
Q 2500 -78 1738 -78 
Q 1113 -78 717 272 
Q 322 622 266 1200 
z
" transform="scale(0.015625)"/>
       </defs>
       <use xlink:href="#ArialMT-32"/>
       <use xlink:href="#ArialMT-35" x="55.615234"/>
       <use xlink:href="#ArialMT-30" x="111.230469"/>
      </g>
     </g>
    </g>
    <g id="xtick_3">
     <g id="line2d_5">
      <path d="M 193.796207 352.44 
L 193.796207 47.52 
" clip-path="url(#p56c4358e0d)" style="fill: none; stroke: #ffffff; stroke-linecap: round"/>
     </g>
     <g id="line2d_6"/>
     <g id="text_3">
      <!-- 500 -->
      <g style="fill: #262626" transform="translate(185.454801 366.597813) scale(0.1 -0.1)">
       <use xlink:href="#ArialMT-35"/>
       <use xlink:href="#ArialMT-30" x="55.615234"/>
       <use xlink:href="#ArialMT-30" x="111.230469"/>
      </g>
     </g>
    </g>
    <g id="xtick_4">
     <g id="line2d_7">
      <path d="M 244.548856 352.44 
L 244.548856 47.52 
" clip-path="url(#p56c4358e0d)" style="fill: none; stroke: #ffffff; stroke-linecap: round"/>
     </g>
     <g id="line2d_8"/>
     <g id="text_4">
      <!-- 750 -->
      <g style="fill: #262626" transform="translate(236.20745 366.597813) scale(0.1 -0.1)">
       <defs>
        <path id="ArialMT-37" d="M 303 3981 
L 303 4522 
L 3269 4522 
L 3269 4084 
Q 2831 3619 2401 2847 
Q 1972 2075 1738 1259 
Q 1569 684 1522 0 
L 944 0 
Q 953 541 1156 1306 
Q 1359 2072 1739 2783 
Q 2119 3494 2547 3981 
L 303 3981 
z
" transform="scale(0.015625)"/>
       </defs>
       <use xlink:href="#ArialMT-37"/>
       <use xlink:href="#ArialMT-35" x="55.615234"/>
       <use xlink:href="#ArialMT-30" x="111.230469"/>
      </g>
     </g>
    </g>
    <g id="xtick_5">
     <g id="line2d_9">
      <path d="M 295.301505 352.44 
L 295.301505 47.52 
" clip-path="url(#p56c4358e0d)" style="fill: none; stroke: #ffffff; stroke-linecap: round"/>
     </g>
     <g id="line2d_10"/>
     <g id="text_5">
      <!-- 1000 -->
      <g style="fill: #262626" transform="translate(284.17963 366.597813) scale(0.1 -0.1)">
       <defs>
        <path id="ArialMT-31" d="M 2384 0 
L 1822 0 
L 1822 3584 
Q 1619 3391 1289 3197 
Q 959 3003 697 2906 
L 697 3450 
Q 1169 3672 1522 3987 
Q 1875 4303 2022 4600 
L 2384 4600 
L 2384 0 
z
" transform="scale(0.015625)"/>
       </defs>
       <use xlink:href="#ArialMT-31"/>
       <use xlink:href="#ArialMT-30" x="55.615234"/>
       <use xlink:href="#ArialMT-30" x="111.230469"/>
       <use xlink:href="#ArialMT-30" x="166.845703"/>
      </g>
     </g>
    </g>
    <g id="xtick_6">
     <g id="line2d_11">
      <path d="M 346.054154 352.44 
L 346.054154 47.52 
" clip-path="url(#p56c4358e0d)" style="fill: none; stroke: #ffffff; stroke-linecap: round"/>
     </g>
     <g id="line2d_12"/>
     <g id="text_6">
      <!-- 1250 -->
      <g style="fill: #262626" transform="translate(334.932279 366.597813) scale(0.1 -0.1)">
       <use xlink:href="#ArialMT-31"/>
       <use xlink:href="#ArialMT-32" x="55.615234"/>
       <use xlink:href="#ArialMT-35" x="111.230469"/>
       <use xlink:href="#ArialMT-30" x="166.845703"/>
      </g>
     </g>
    </g>
    <g id="xtick_7">
     <g id="line2d_13">
      <path d="M 396.806803 352.44 
L 396.806803 47.52 
" clip-path="url(#p56c4358e0d)" style="fill: none; stroke: #ffffff; stroke-linecap: round"/>
     </g>
     <g id="line2d_14"/>
     <g id="text_7">
      <!-- 1500 -->
      <g style="fill: #262626" transform="translate(385.684928 366.597813) scale(0.1 -0.1)">
       <use xlink:href="#ArialMT-31"/>
       <use xlink:href="#ArialMT-35" x="55.615234"/>
       <use xlink:href="#ArialMT-30" x="111.230469"/>
       <use xlink:href="#ArialMT-30" x="166.845703"/>
      </g>
     </g>
    </g>
    <g id="xtick_8">
     <g id="line2d_15">
      <path d="M 447.559452 352.44 
L 447.559452 47.52 
" clip-path="url(#p56c4358e0d)" style="fill: none; stroke: #ffffff; stroke-linecap: round"/>
     </g>
     <g id="line2d_16"/>
     <g id="text_8">
      <!-- 1750 -->
      <g style="fill: #262626" transform="translate(436.437577 366.597813) scale(0.1 -0.1)">
       <use xlink:href="#ArialMT-31"/>
       <use xlink:href="#ArialMT-37" x="55.615234"/>
       <use xlink:href="#ArialMT-35" x="111.230469"/>
       <use xlink:href="#ArialMT-30" x="166.845703"/>
      </g>
     </g>
    </g>
    <g id="xtick_9">
     <g id="line2d_17">
      <path d="M 498.312102 352.44 
L 498.312102 47.52 
" clip-path="url(#p56c4358e0d)" style="fill: none; stroke: #ffffff; stroke-linecap: round"/>
     </g>
     <g id="line2d_18"/>
     <g id="text_9">
      <!-- 2000 -->
      <g style="fill: #262626" transform="translate(487.190227 366.597813) scale(0.1 -0.1)">
       <use xlink:href="#ArialMT-32"/>
       <use xlink:href="#ArialMT-30" x="55.615234"/>
       <use xlink:href="#ArialMT-30" x="111.230469"/>
       <use xlink:href="#ArialMT-30" x="166.845703"/>
      </g>
     </g>
    </g>
    <g id="text_10">
     <!-- Iteration -->
     <g style="fill: #262626" transform="translate(275.328672 380.458906) scale(0.11 -0.11)">
      <defs>
       <path id="ArialMT-49" d="M 597 0 
L 597 4581 
L 1203 4581 
L 1203 0 
L 597 0 
z
" transform="scale(0.015625)"/>
       <path id="ArialMT-74" d="M 1650 503 
L 1731 6 
Q 1494 -44 1306 -44 
Q 1000 -44 831 53 
Q 663 150 594 308 
Q 525 466 525 972 
L 525 2881 
L 113 2881 
L 113 3319 
L 525 3319 
L 525 4141 
L 1084 4478 
L 1084 3319 
L 1650 3319 
L 1650 2881 
L 1084 2881 
L 1084 941 
Q 1084 700 1114 631 
Q 1144 563 1211 522 
Q 1278 481 1403 481 
Q 1497 481 1650 503 
z
" transform="scale(0.015625)"/>
       <path id="ArialMT-65" d="M 2694 1069 
L 3275 997 
Q 3138 488 2766 206 
Q 2394 -75 1816 -75 
Q 1088 -75 661 373 
Q 234 822 234 1631 
Q 234 2469 665 2931 
Q 1097 3394 1784 3394 
Q 2450 3394 2872 2941 
Q 3294 2488 3294 1666 
Q 3294 1616 3291 1516 
L 816 1516 
Q 847 969 1125 678 
Q 1403 388 1819 388 
Q 2128 388 2347 550 
Q 2566 713 2694 1069 
z
M 847 1978 
L 2700 1978 
Q 2663 2397 2488 2606 
Q 2219 2931 1791 2931 
Q 1403 2931 1139 2672 
Q 875 2413 847 1978 
z
" transform="scale(0.015625)"/>
       <path id="ArialMT-72" d="M 416 0 
L 416 3319 
L 922 3319 
L 922 2816 
Q 1116 3169 1280 3281 
Q 1444 3394 1641 3394 
Q 1925 3394 2219 3213 
L 2025 2691 
Q 1819 2813 1613 2813 
Q 1428 2813 1281 2702 
Q 1134 2591 1072 2394 
Q 978 2094 978 1738 
L 978 0 
L 416 0 
z
" transform="scale(0.015625)"/>
       <path id="ArialMT-61" d="M 2588 409 
Q 2275 144 1986 34 
Q 1697 -75 1366 -75 
Q 819 -75 525 192 
Q 231 459 231 875 
Q 231 1119 342 1320 
Q 453 1522 633 1644 
Q 813 1766 1038 1828 
Q 1203 1872 1538 1913 
Q 2219 1994 2541 2106 
Q 2544 2222 2544 2253 
Q 2544 2597 2384 2738 
Q 2169 2928 1744 2928 
Q 1347 2928 1158 2789 
Q 969 2650 878 2297 
L 328 2372 
Q 403 2725 575 2942 
Q 747 3159 1072 3276 
Q 1397 3394 1825 3394 
Q 2250 3394 2515 3294 
Q 2781 3194 2906 3042 
Q 3031 2891 3081 2659 
Q 3109 2516 3109 2141 
L 3109 1391 
Q 3109 606 3145 398 
Q 3181 191 3288 0 
L 2700 0 
Q 2613 175 2588 409 
z
M 2541 1666 
Q 2234 1541 1622 1453 
Q 1275 1403 1131 1340 
Q 988 1278 909 1158 
Q 831 1038 831 891 
Q 831 666 1001 516 
Q 1172 366 1500 366 
Q 1825 366 2078 508 
Q 2331 650 2450 897 
Q 2541 1088 2541 1459 
L 2541 1666 
z
" transform="scale(0.015625)"/>
       <path id="ArialMT-69" d="M 425 3934 
L 425 4581 
L 988 4581 
L 988 3934 
L 425 3934 
z
M 425 0 
L 425 3319 
L 988 3319 
L 988 0 
L 425 0 
z
" transform="scale(0.015625)"/>
       <path id="ArialMT-6f" d="M 213 1659 
Q 213 2581 725 3025 
Q 1153 3394 1769 3394 
Q 2453 3394 2887 2945 
Q 3322 2497 3322 1706 
Q 3322 1066 3130 698 
Q 2938 331 2570 128 
Q 2203 -75 1769 -75 
Q 1072 -75 642 372 
Q 213 819 213 1659 
z
M 791 1659 
Q 791 1022 1069 705 
Q 1347 388 1769 388 
Q 2188 388 2466 706 
Q 2744 1025 2744 1678 
Q 2744 2294 2464 2611 
Q 2184 2928 1769 2928 
Q 1347 2928 1069 2612 
Q 791 2297 791 1659 
z
" transform="scale(0.015625)"/>
       <path id="ArialMT-6e" d="M 422 0 
L 422 3319 
L 928 3319 
L 928 2847 
Q 1294 3394 1984 3394 
Q 2284 3394 2536 3286 
Q 2788 3178 2913 3003 
Q 3038 2828 3088 2588 
Q 3119 2431 3119 2041 
L 3119 0 
L 2556 0 
L 2556 2019 
Q 2556 2363 2490 2533 
Q 2425 2703 2258 2804 
Q 2091 2906 1866 2906 
Q 1506 2906 1245 2678 
Q 984 2450 984 1813 
L 984 0 
L 422 0 
z
" transform="scale(0.015625)"/>
      </defs>
      <use xlink:href="#ArialMT-49"/>
      <use xlink:href="#ArialMT-74" x="27.783203"/>
      <use xlink:href="#ArialMT-65" x="55.566406"/>
      <use xlink:href="#ArialMT-72" x="111.181641"/>
      <use xlink:href="#ArialMT-61" x="144.482422"/>
      <use xlink:href="#ArialMT-74" x="200.097656"/>
      <use xlink:href="#ArialMT-69" x="227.880859"/>
      <use xlink:href="#ArialMT-6f" x="250.097656"/>
      <use xlink:href="#ArialMT-6e" x="305.712891"/>
     </g>
    </g>
   </g>
   <g id="matplotlib.axis_2">
    <g id="ytick_1">
     <g id="line2d_19">
      <path d="M 72 338.58 
L 518.4 338.58 
" clip-path="url(#p56c4358e0d)" style="fill: none; stroke: #ffffff; stroke-linecap: round"/>
     </g>
     <g id="line2d_20"/>
     <g id="text_11">
      <!-- 0.0 -->
      <g style="fill: #262626" transform="translate(51.1 342.158906) scale(0.1 -0.1)">
       <defs>
        <path id="ArialMT-2e" d="M 581 0 
L 581 641 
L 1222 641 
L 1222 0 
L 581 0 
z
" transform="scale(0.015625)"/>
       </defs>
       <use xlink:href="#ArialMT-30"/>
       <use xlink:href="#ArialMT-2e" x="55.615234"/>
       <use xlink:href="#ArialMT-30" x="83.398438"/>
      </g>
     </g>
    </g>
    <g id="ytick_2">
     <g id="line2d_21">
      <path d="M 72 297.021083 
L 518.4 297.021083 
" clip-path="url(#p56c4358e0d)" style="fill: none; stroke: #ffffff; stroke-linecap: round"/>
     </g>
     <g id="line2d_22"/>
     <g id="text_12">
      <!-- 0.2 -->
      <g style="fill: #262626" transform="translate(51.1 300.599989) scale(0.1 -0.1)">
       <use xlink:href="#ArialMT-30"/>
       <use xlink:href="#ArialMT-2e" x="55.615234"/>
       <use xlink:href="#ArialMT-32" x="83.398438"/>
      </g>
     </g>
    </g>
    <g id="ytick_3">
     <g id="line2d_23">
      <path d="M 72 255.462166 
L 518.4 255.462166 
" clip-path="url(#p56c4358e0d)" style="fill: none; stroke: #ffffff; stroke-linecap: round"/>
     </g>
     <g id="line2d_24"/>
     <g id="text_13">
      <!-- 0.4 -->
      <g style="fill: #262626" transform="translate(51.1 259.041072) scale(0.1 -0.1)">
       <defs>
        <path id="ArialMT-34" d="M 2069 0 
L 2069 1097 
L 81 1097 
L 81 1613 
L 2172 4581 
L 2631 4581 
L 2631 1613 
L 3250 1613 
L 3250 1097 
L 2631 1097 
L 2631 0 
L 2069 0 
z
M 2069 1613 
L 2069 3678 
L 634 1613 
L 2069 1613 
z
" transform="scale(0.015625)"/>
       </defs>
       <use xlink:href="#ArialMT-30"/>
       <use xlink:href="#ArialMT-2e" x="55.615234"/>
       <use xlink:href="#ArialMT-34" x="83.398438"/>
      </g>
     </g>
    </g>
    <g id="ytick_4">
     <g id="line2d_25">
      <path d="M 72 213.903249 
L 518.4 213.903249 
" clip-path="url(#p56c4358e0d)" style="fill: none; stroke: #ffffff; stroke-linecap: round"/>
     </g>
     <g id="line2d_26"/>
     <g id="text_14">
      <!-- 0.6 -->
      <g style="fill: #262626" transform="translate(51.1 217.482155) scale(0.1 -0.1)">
       <defs>
        <path id="ArialMT-36" d="M 3184 3459 
L 2625 3416 
Q 2550 3747 2413 3897 
Q 2184 4138 1850 4138 
Q 1581 4138 1378 3988 
Q 1113 3794 959 3422 
Q 806 3050 800 2363 
Q 1003 2672 1297 2822 
Q 1591 2972 1913 2972 
Q 2475 2972 2870 2558 
Q 3266 2144 3266 1488 
Q 3266 1056 3080 686 
Q 2894 316 2569 119 
Q 2244 -78 1831 -78 
Q 1128 -78 684 439 
Q 241 956 241 2144 
Q 241 3472 731 4075 
Q 1159 4600 1884 4600 
Q 2425 4600 2770 4297 
Q 3116 3994 3184 3459 
z
M 888 1484 
Q 888 1194 1011 928 
Q 1134 663 1356 523 
Q 1578 384 1822 384 
Q 2178 384 2434 671 
Q 2691 959 2691 1453 
Q 2691 1928 2437 2201 
Q 2184 2475 1800 2475 
Q 1419 2475 1153 2201 
Q 888 1928 888 1484 
z
" transform="scale(0.015625)"/>
       </defs>
       <use xlink:href="#ArialMT-30"/>
       <use xlink:href="#ArialMT-2e" x="55.615234"/>
       <use xlink:href="#ArialMT-36" x="83.398438"/>
      </g>
     </g>
    </g>
    <g id="ytick_5">
     <g id="line2d_27">
      <path d="M 72 172.344332 
L 518.4 172.344332 
" clip-path="url(#p56c4358e0d)" style="fill: none; stroke: #ffffff; stroke-linecap: round"/>
     </g>
     <g id="line2d_28"/>
     <g id="text_15">
      <!-- 0.8 -->
      <g style="fill: #262626" transform="translate(51.1 175.923238) scale(0.1 -0.1)">
       <defs>
        <path id="ArialMT-38" d="M 1131 2484 
Q 781 2613 612 2850 
Q 444 3088 444 3419 
Q 444 3919 803 4259 
Q 1163 4600 1759 4600 
Q 2359 4600 2725 4251 
Q 3091 3903 3091 3403 
Q 3091 3084 2923 2848 
Q 2756 2613 2416 2484 
Q 2838 2347 3058 2040 
Q 3278 1734 3278 1309 
Q 3278 722 2862 322 
Q 2447 -78 1769 -78 
Q 1091 -78 675 323 
Q 259 725 259 1325 
Q 259 1772 486 2073 
Q 713 2375 1131 2484 
z
M 1019 3438 
Q 1019 3113 1228 2906 
Q 1438 2700 1772 2700 
Q 2097 2700 2305 2904 
Q 2513 3109 2513 3406 
Q 2513 3716 2298 3927 
Q 2084 4138 1766 4138 
Q 1444 4138 1231 3931 
Q 1019 3725 1019 3438 
z
M 838 1322 
Q 838 1081 952 856 
Q 1066 631 1291 507 
Q 1516 384 1775 384 
Q 2178 384 2440 643 
Q 2703 903 2703 1303 
Q 2703 1709 2433 1975 
Q 2163 2241 1756 2241 
Q 1359 2241 1098 1978 
Q 838 1716 838 1322 
z
" transform="scale(0.015625)"/>
       </defs>
       <use xlink:href="#ArialMT-30"/>
       <use xlink:href="#ArialMT-2e" x="55.615234"/>
       <use xlink:href="#ArialMT-38" x="83.398438"/>
      </g>
     </g>
    </g>
    <g id="ytick_6">
     <g id="line2d_29">
      <path d="M 72 130.785415 
L 518.4 130.785415 
" clip-path="url(#p56c4358e0d)" style="fill: none; stroke: #ffffff; stroke-linecap: round"/>
     </g>
     <g id="line2d_30"/>
     <g id="text_16">
      <!-- 1.0 -->
      <g style="fill: #262626" transform="translate(51.1 134.364321) scale(0.1 -0.1)">
       <use xlink:href="#ArialMT-31"/>
       <use xlink:href="#ArialMT-2e" x="55.615234"/>
       <use xlink:href="#ArialMT-30" x="83.398438"/>
      </g>
     </g>
    </g>
    <g id="ytick_7">
     <g id="line2d_31">
      <path d="M 72 89.226498 
L 518.4 89.226498 
" clip-path="url(#p56c4358e0d)" style="fill: none; stroke: #ffffff; stroke-linecap: round"/>
     </g>
     <g id="line2d_32"/>
     <g id="text_17">
      <!-- 1.2 -->
      <g style="fill: #262626" transform="translate(51.1 92.805404) scale(0.1 -0.1)">
       <use xlink:href="#ArialMT-31"/>
       <use xlink:href="#ArialMT-2e" x="55.615234"/>
       <use xlink:href="#ArialMT-32" x="83.398438"/>
      </g>
     </g>
    </g>
    <g id="ytick_8">
     <g id="line2d_33">
      <path d="M 72 47.667581 
L 518.4 47.667581 
" clip-path="url(#p56c4358e0d)" style="fill: none; stroke: #ffffff; stroke-linecap: round"/>
     </g>
     <g id="line2d_34"/>
     <g id="text_18">
      <!-- 1.4 -->
      <g style="fill: #262626" transform="translate(51.1 51.246487) scale(0.1 -0.1)">
       <use xlink:href="#ArialMT-31"/>
       <use xlink:href="#ArialMT-2e" x="55.615234"/>
       <use xlink:href="#ArialMT-34" x="83.398438"/>
      </g>
     </g>
    </g>
    <g id="text_19">
     <!-- U1 Rate -->
     <g style="fill: #262626" transform="translate(44.91375 220.155547) rotate(-90) scale(0.11 -0.11)">
      <defs>
       <path id="ArialMT-55" d="M 3500 4581 
L 4106 4581 
L 4106 1934 
Q 4106 1244 3950 837 
Q 3794 431 3386 176 
Q 2978 -78 2316 -78 
Q 1672 -78 1262 144 
Q 853 366 678 786 
Q 503 1206 503 1934 
L 503 4581 
L 1109 4581 
L 1109 1938 
Q 1109 1341 1220 1058 
Q 1331 775 1601 622 
Q 1872 469 2263 469 
Q 2931 469 3215 772 
Q 3500 1075 3500 1938 
L 3500 4581 
z
" transform="scale(0.015625)"/>
       <path id="ArialMT-20" transform="scale(0.015625)"/>
       <path id="ArialMT-52" d="M 503 0 
L 503 4581 
L 2534 4581 
Q 3147 4581 3465 4457 
Q 3784 4334 3975 4021 
Q 4166 3709 4166 3331 
Q 4166 2844 3850 2509 
Q 3534 2175 2875 2084 
Q 3116 1969 3241 1856 
Q 3506 1613 3744 1247 
L 4541 0 
L 3778 0 
L 3172 953 
Q 2906 1366 2734 1584 
Q 2563 1803 2427 1890 
Q 2291 1978 2150 2013 
Q 2047 2034 1813 2034 
L 1109 2034 
L 1109 0 
L 503 0 
z
M 1109 2559 
L 2413 2559 
Q 2828 2559 3062 2645 
Q 3297 2731 3419 2920 
Q 3541 3109 3541 3331 
Q 3541 3656 3305 3865 
Q 3069 4075 2559 4075 
L 1109 4075 
L 1109 2559 
z
" transform="scale(0.015625)"/>
      </defs>
      <use xlink:href="#ArialMT-55"/>
      <use xlink:href="#ArialMT-31" x="72.216797"/>
      <use xlink:href="#ArialMT-20" x="127.832031"/>
      <use xlink:href="#ArialMT-52" x="155.615234"/>
      <use xlink:href="#ArialMT-61" x="227.832031"/>
      <use xlink:href="#ArialMT-74" x="283.447266"/>
      <use xlink:href="#ArialMT-65" x="311.230469"/>
     </g>
    </g>
   </g>
   <g id="line2d_35">
    <path d="M 92.290909 267.369148 
L 92.49392 330.386208 
L 92.69693 324.961225 
L 92.899941 333.706524 
L 93.102951 324.421473 
L 93.305962 329.809325 
L 93.508973 287.772706 
L 93.711983 333.559917 
L 93.914994 319.281943 
L 94.118004 337.022383 
L 94.321015 275.462962 
L 94.524026 330.218256 
L 94.727036 338.242504 
L 94.930047 323.84011 
L 95.133057 336.030123 
L 95.336068 330.846754 
L 95.539079 315.97647 
L 95.742089 334.848488 
L 95.9451 332.293472 
L 96.14811 336.339048 
L 96.351121 333.582586 
L 96.554132 332.461529 
L 96.757142 337.653957 
L 96.960153 337.245962 
L 97.163163 329.902999 
L 97.366174 328.691318 
L 97.569185 335.578763 
L 97.772195 327.627053 
L 97.975206 326.919441 
L 98.178216 335.525103 
L 98.381227 334.287003 
L 98.584238 338.58 
L 98.787248 326.604272 
L 98.990259 338.503207 
L 99.193269 323.555655 
L 99.599291 331.085387 
L 99.802301 288.313405 
L 100.005312 326.569899 
L 100.208322 335.890313 
L 100.411333 282.803366 
L 100.614344 330.428822 
L 100.817354 336.937284 
L 101.223375 320.013649 
L 101.426386 332.8036 
L 101.629397 333.015763 
L 101.832407 329.240869 
L 102.035418 334.578555 
L 102.238428 329.35917 
L 102.441439 311.05019 
L 102.644449 271.924354 
L 102.84746 281.986317 
L 103.050471 338.065012 
L 103.253481 338.58 
L 103.456492 310.258111 
L 103.659502 337.748575 
L 104.065524 290.02959 
L 104.268534 333.839326 
L 104.471545 324.434947 
L 104.674555 329.161907 
L 104.877566 337.494687 
L 105.080577 318.409831 
L 105.283587 318.108657 
L 105.486598 332.685901 
L 105.689608 338.380726 
L 105.892619 332.161504 
L 106.09563 331.809693 
L 106.501651 293.969029 
L 106.704661 326.368053 
L 106.907672 330.986371 
L 107.110683 305.451376 
L 107.516704 326.739924 
L 107.719714 325.082308 
L 107.922725 335.059484 
L 108.125736 299.336269 
L 108.328746 337.793925 
L 108.531757 337.103348 
L 108.734767 327.544473 
L 108.937778 338.472878 
L 109.140789 338.58 
L 109.343799 313.758838 
L 109.54681 334.089187 
L 109.74982 304.728493 
L 109.952831 334.78382 
L 110.155842 336.638626 
L 110.358852 337.047242 
L 110.561863 338.58 
L 110.764873 337.21378 
L 110.967884 334.039275 
L 111.170895 336.469063 
L 111.373905 312.292458 
L 111.576916 331.55096 
L 111.779926 332.054568 
L 111.982937 316.926195 
L 112.185948 324.781999 
L 112.388958 338.58 
L 112.591969 275.231422 
L 112.794979 333.581463 
L 112.99799 298.006828 
L 113.201001 338.158532 
L 113.404011 333.278198 
L 113.607022 334.331802 
L 113.810032 333.650375 
L 114.013043 306.81058 
L 114.216053 336.138027 
L 114.419064 337.885142 
L 114.622075 304.127726 
L 115.231106 338.58 
L 115.434117 327.799117 
L 115.840138 336.779895 
L 116.043149 338.58 
L 116.246159 306.997539 
L 116.44917 315.153299 
L 116.652181 332.727282 
L 116.855191 333.95644 
L 117.058202 304.719319 
L 117.261212 336.993205 
L 117.464223 320.482603 
L 117.667234 338.107094 
L 117.870244 329.887824 
L 118.073255 328.300216 
L 118.276265 336.295776 
L 118.479276 332.873573 
L 118.682287 335.777277 
L 118.885297 324.496177 
L 119.088308 335.745406 
L 119.291318 329.330928 
L 119.494329 314.971941 
L 119.69734 338.58 
L 119.90035 315.368017 
L 120.103361 317.336922 
L 120.306371 336.654076 
L 120.509382 334.219322 
L 120.712393 322.673881 
L 120.915403 333.303153 
L 121.118414 336.552995 
L 121.321424 329.479845 
L 121.524435 283.107665 
L 121.727446 335.62849 
L 121.930456 337.537572 
L 122.133467 328.694083 
L 122.336477 331.053807 
L 122.539488 323.762154 
L 122.742499 323.248178 
L 122.945509 300.194483 
L 123.14852 334.885574 
L 123.35153 335.944053 
L 123.554541 328.468047 
L 123.757552 330.654993 
L 123.960562 330.791357 
L 124.163573 329.479069 
L 124.366583 338.011762 
L 124.569594 334.546304 
L 124.772604 333.011529 
L 124.975615 337.982523 
L 125.178626 300.146427 
L 125.381636 310.626737 
L 125.584647 312.955477 
L 125.787657 320.566346 
L 125.990668 334.130616 
L 126.193679 300.379538 
L 126.396689 308.028585 
L 126.5997 333.610674 
L 126.80271 331.630086 
L 127.005721 338.58 
L 127.208732 323.150401 
L 127.411742 329.574839 
L 127.614753 326.971196 
L 127.817763 338.58 
L 128.020774 338.540342 
L 128.223785 337.544554 
L 128.426795 331.391873 
L 128.629806 338.549333 
L 128.832816 330.316133 
L 129.035827 332.574303 
L 129.238838 332.708299 
L 129.441848 316.233857 
L 129.644859 320.261538 
L 129.847869 332.694681 
L 130.05088 329.836741 
L 130.253891 338.58 
L 130.456901 331.511061 
L 130.659912 332.669641 
L 130.862922 335.971095 
L 131.065933 333.103213 
L 131.268944 333.823346 
L 131.471954 324.468192 
L 131.674965 337.258379 
L 131.877975 337.944944 
L 132.080986 336.306538 
L 132.283997 332.945921 
L 132.487007 335.418301 
L 132.690018 334.637223 
L 132.893028 335.164297 
L 133.096039 334.835267 
L 133.29905 322.828898 
L 133.50206 330.260677 
L 133.908081 294.488603 
L 134.111092 328.429964 
L 134.314103 328.701985 
L 134.517113 337.329368 
L 134.720124 336.213454 
L 134.923134 327.415935 
L 135.126145 337.55451 
L 135.329155 306.753061 
L 135.532166 330.326343 
L 135.735177 338.488325 
L 135.938187 337.315285 
L 136.141198 335.41715 
L 136.344208 325.331728 
L 136.547219 329.501892 
L 136.75023 336.718719 
L 136.95324 335.336097 
L 137.359261 336.973219 
L 137.765283 324.928108 
L 137.968293 336.961011 
L 138.171304 334.739165 
L 138.780336 317.369613 
L 138.983346 320.076636 
L 139.186357 333.831609 
L 139.389367 306.445609 
L 139.592378 321.132799 
L 139.795389 327.743876 
L 139.998399 316.516133 
L 140.20141 334.350326 
L 140.40442 323.381342 
L 140.607431 323.690173 
L 140.810442 338.399304 
L 141.013452 299.679744 
L 141.216463 337.020356 
L 141.419473 338.22808 
L 141.622484 336.061418 
L 141.825495 316.842063 
L 142.231516 337.864534 
L 142.434526 325.596194 
L 142.637537 321.416489 
L 142.840548 337.530387 
L 143.043558 326.308262 
L 143.246569 321.71806 
L 143.449579 335.880563 
L 143.65259 309.30896 
L 143.855601 337.201153 
L 144.058611 337.65067 
L 144.261622 302.558617 
L 144.464632 331.191254 
L 144.667643 338.469068 
L 144.870654 330.829354 
L 145.073664 328.088885 
L 145.276675 338.58 
L 145.479685 298.574746 
L 145.682696 324.903204 
L 145.885706 327.042548 
L 146.088717 338.58 
L 146.697749 317.567596 
L 146.900759 301.102475 
L 147.10377 333.558385 
L 147.306781 324.035776 
L 147.509791 330.661952 
L 147.712802 318.552486 
L 147.915812 333.703727 
L 148.118823 326.93845 
L 148.321834 302.186702 
L 148.524844 311.169023 
L 148.930865 334.731821 
L 149.133876 337.912718 
L 149.336887 327.138974 
L 149.539897 338.58 
L 149.742908 338.58 
L 149.945918 328.587079 
L 150.148929 326.726834 
L 150.35194 338.58 
L 150.55495 319.7426 
L 150.757961 335.994338 
L 150.960971 333.029097 
L 151.163982 336.977363 
L 151.366993 335.665708 
L 151.570003 319.297808 
L 151.773014 333.614679 
L 152.179035 317.021599 
L 152.382046 325.991379 
L 152.585056 270.281825 
L 152.788067 316.665299 
L 152.991077 328.891503 
L 153.194088 302.795248 
L 153.397099 308.945496 
L 153.600109 293.470122 
L 153.80312 335.700047 
L 154.00613 306.28902 
L 154.209141 328.316576 
L 154.412152 324.21331 
L 154.615162 332.623427 
L 154.818173 325.151367 
L 155.021183 332.550949 
L 155.224194 331.883371 
L 155.427205 316.658855 
L 155.630215 337.256595 
L 155.833226 338.58 
L 156.036236 331.25142 
L 156.239247 334.437278 
L 156.442257 330.106959 
L 156.645268 332.06068 
L 156.848279 332.591248 
L 157.051289 336.839378 
L 157.2543 334.416019 
L 157.45731 337.221075 
L 157.660321 309.811444 
L 157.863332 338.58 
L 158.066342 337.845389 
L 158.269353 334.837763 
L 158.472363 337.370579 
L 158.675374 338.23565 
L 158.878385 305.237955 
L 159.081395 338.086619 
L 159.284406 338.159982 
L 159.487416 333.000983 
L 159.690427 337.901275 
L 159.893438 321.647096 
L 160.096448 335.486248 
L 160.299459 338.151078 
L 160.70548 331.448255 
L 161.111501 324.784862 
L 161.314512 336.163699 
L 161.517522 338.58 
L 161.720533 338.577711 
L 161.923544 328.235713 
L 162.126554 336.13516 
L 162.329565 332.489937 
L 162.532575 333.95112 
L 162.735586 337.814073 
L 163.141607 316.209415 
L 163.344618 335.082302 
L 163.547628 334.209445 
L 163.750639 312.45538 
L 164.15666 334.538449 
L 164.359671 333.561553 
L 164.562681 338.58 
L 164.765692 317.138998 
L 164.968703 323.00991 
L 165.171713 336.478258 
L 165.374724 326.592818 
L 165.577734 274.968749 
L 165.780745 318.577916 
L 165.983756 318.677099 
L 166.592787 338.58 
L 166.795798 332.653616 
L 166.998808 322.175543 
L 167.201819 337.902393 
L 167.40483 337.797644 
L 167.810851 335.581498 
L 168.013861 335.027336 
L 168.216872 331.175859 
L 168.419883 331.552328 
L 168.622893 331.298836 
L 168.825904 332.840034 
L 169.028914 338.58 
L 169.231925 338.481202 
L 169.434936 337.833556 
L 169.637946 335.428833 
L 169.840957 338.204759 
L 170.043967 338.506217 
L 170.246978 331.428988 
L 170.449989 312.059021 
L 170.652999 338.244629 
L 171.05902 329.168125 
L 171.262031 338.58 
L 171.465042 334.044849 
L 171.668052 334.192905 
L 171.871063 338.429303 
L 172.074073 338.218332 
L 172.277084 336.826758 
L 172.480095 336.531293 
L 172.683105 328.44744 
L 172.886116 338.58 
L 173.292137 336.551979 
L 173.495148 338.58 
L 173.698158 333.816503 
L 173.901169 334.901231 
L 174.104179 338.343015 
L 174.30719 328.542742 
L 174.510201 338.58 
L 174.713211 322.16048 
L 174.916222 333.764123 
L 175.119232 318.783945 
L 175.322243 337.424084 
L 175.525254 338.58 
L 175.728264 338.48183 
L 175.931275 330.316087 
L 176.134285 336.927147 
L 176.337296 331.299678 
L 176.540307 333.587908 
L 176.743317 330.035231 
L 176.946328 338.58 
L 177.149338 334.023691 
L 177.352349 338.58 
L 177.555359 327.802534 
L 177.75837 338.58 
L 177.961381 334.058482 
L 178.367402 338.58 
L 178.570412 338.58 
L 178.773423 336.841624 
L 178.976434 331.893632 
L 179.179444 334.860274 
L 179.382455 299.91799 
L 179.585465 338.249978 
L 179.991487 335.691607 
L 180.194497 330.989737 
L 180.397508 334.389389 
L 180.600518 334.575653 
L 180.803529 319.40135 
L 181.00654 338.227939 
L 181.20955 331.762681 
L 181.412561 331.106573 
L 181.615571 337.078997 
L 181.818582 338.58 
L 182.021593 334.631626 
L 182.224603 315.019582 
L 182.427614 315.338262 
L 182.630624 337.50326 
L 182.833635 337.082768 
L 183.036646 336.291985 
L 183.239656 307.9322 
L 183.442667 338.420719 
L 183.645677 338.263255 
L 183.848688 338.404164 
L 184.051699 330.96773 
L 184.254709 313.81596 
L 184.45772 337.78632 
L 184.66073 338.58 
L 184.863741 338.58 
L 185.066752 337.457554 
L 185.269762 338.58 
L 185.472773 336.761681 
L 185.675783 338.58 
L 186.081805 338.58 
L 186.284815 335.032768 
L 186.487826 338.33175 
L 186.690836 337.332671 
L 186.893847 338.58 
L 187.096858 335.945067 
L 187.299868 328.972688 
L 187.502879 338.58 
L 187.9089 335.943367 
L 188.111911 337.824211 
L 188.314921 318.215572 
L 188.517932 333.84674 
L 188.720942 318.383179 
L 188.923953 336.325378 
L 189.126963 325.282869 
L 189.329974 324.799263 
L 189.532985 331.015463 
L 189.735995 325.224008 
L 189.939006 338.58 
L 190.142016 335.731715 
L 190.345027 329.74131 
L 190.548038 334.850654 
L 190.751048 333.621886 
L 190.954059 338.58 
L 191.157069 331.744991 
L 191.36008 338.58 
L 191.563091 338.58 
L 191.766101 329.292827 
L 191.969112 338.432614 
L 192.172122 336.808077 
L 192.375133 338.58 
L 192.578144 336.227812 
L 192.781154 336.400973 
L 192.984165 338.58 
L 193.390186 338.55836 
L 193.593197 338.363927 
L 193.796207 338.58 
L 193.999218 337.158101 
L 194.202228 338.58 
L 194.405239 325.692609 
L 194.60825 336.792996 
L 194.81126 325.464915 
L 195.014271 338.58 
L 195.217281 337.955812 
L 195.420292 331.280428 
L 195.623303 338.549488 
L 195.826313 338.198406 
L 196.029324 321.744536 
L 196.232334 334.291964 
L 196.435345 338.58 
L 196.638356 338.110234 
L 196.841366 335.545366 
L 197.044377 337.722993 
L 197.247387 328.194819 
L 197.450398 330.644986 
L 197.856419 338.506939 
L 198.05943 330.547935 
L 198.465451 293.380496 
L 198.668462 334.619415 
L 198.871472 337.995783 
L 199.074483 332.486947 
L 199.277493 334.941075 
L 199.683514 315.51113 
L 199.886525 338.58 
L 200.089536 338.133998 
L 200.292546 338.271971 
L 200.495557 331.840727 
L 200.698567 336.543691 
L 200.901578 335.372277 
L 201.104589 333.347635 
L 201.307599 333.112365 
L 201.51061 333.862917 
L 201.71362 338.58 
L 201.916631 338.58 
L 202.119642 337.474284 
L 202.322652 338.58 
L 202.728673 338.58 
L 203.134695 333.910301 
L 203.337705 338.58 
L 203.743726 331.687301 
L 204.149748 338.58 
L 204.352758 331.351779 
L 204.555769 338.58 
L 204.758779 338.163414 
L 204.96179 338.58 
L 205.164801 338.067555 
L 205.367811 338.58 
L 205.570822 336.847477 
L 205.773832 338.58 
L 205.976843 338.58 
L 206.382864 334.41593 
L 206.585875 337.858473 
L 206.788885 336.81236 
L 206.991896 338.491697 
L 207.194907 330.683865 
L 207.397917 338.385113 
L 207.600928 338.58 
L 207.803938 330.50957 
L 208.006949 335.496909 
L 208.20996 335.689354 
L 208.41297 335.316463 
L 208.615981 338.58 
L 208.818991 337.973526 
L 209.022002 338.58 
L 209.225013 328.473801 
L 209.428023 336.374608 
L 209.631034 338.58 
L 209.834044 338.58 
L 210.037055 338.347579 
L 210.240065 336.422477 
L 210.443076 338.58 
L 210.646087 331.232916 
L 210.849097 338.58 
L 211.052108 333.976291 
L 211.255118 338.059962 
L 211.458129 336.624249 
L 211.66114 324.79035 
L 211.86415 337.772545 
L 212.067161 336.119157 
L 212.270171 315.986228 
L 212.676193 337.471356 
L 212.879203 309.884778 
L 213.082214 333.433354 
L 213.285224 319.422875 
L 213.488235 338.58 
L 213.691246 338.58 
L 213.894256 333.777674 
L 214.097267 338.58 
L 214.503288 338.58 
L 214.706299 330.60718 
L 214.909309 338.58 
L 215.11232 335.84665 
L 215.31533 338.437961 
L 215.518341 335.966377 
L 215.721352 338.58 
L 215.924362 337.212499 
L 216.127373 338.58 
L 216.330383 338.58 
L 216.736405 331.903613 
L 216.939415 338.58 
L 217.142426 338.58 
L 217.548447 333.066187 
L 217.751458 338.58 
L 217.954468 325.280389 
L 218.157479 338.542816 
L 218.360489 337.951635 
L 218.766511 338.58 
L 218.969521 322.441593 
L 219.172532 337.936869 
L 219.375542 337.764136 
L 219.578553 338.58 
L 219.781564 337.154408 
L 219.984574 337.33598 
L 220.187585 338.58 
L 220.390595 333.673324 
L 220.593606 338.58 
L 220.796616 338.58 
L 220.999627 324.276179 
L 221.202638 321.164643 
L 221.405648 338.58 
L 221.608659 338.58 
L 222.01468 334.065533 
L 222.217691 335.420006 
L 222.420701 338.58 
L 222.826722 334.211878 
L 223.029733 338.130572 
L 223.232744 315.690491 
L 223.435754 335.649888 
L 223.638765 338.58 
L 224.044786 338.58 
L 224.247797 337.954714 
L 224.450807 338.58 
L 224.653818 335.56859 
L 224.856828 338.58 
L 225.059839 338.58 
L 225.46586 313.67128 
L 225.668871 338.069649 
L 225.871881 338.58 
L 226.074892 325.137483 
L 226.277903 334.542368 
L 226.480913 338.58 
L 226.683924 337.775424 
L 226.886934 336.300527 
L 227.089945 338.58 
L 227.292956 338.100596 
L 227.495966 335.958548 
L 227.698977 309.570614 
L 227.901987 336.413595 
L 228.104998 331.390401 
L 228.308009 338.58 
L 228.511019 334.658744 
L 228.71403 307.390508 
L 228.91704 336.417042 
L 229.120051 338.58 
L 229.323062 338.58 
L 229.526072 334.905397 
L 229.729083 338.58 
L 229.932093 319.931981 
L 230.135104 334.918231 
L 230.541125 338.58 
L 230.744136 338.58 
L 230.947146 332.130486 
L 231.150157 265.486615 
L 231.353167 334.031225 
L 231.759189 331.867437 
L 231.962199 332.904897 
L 232.16521 338.58 
L 232.571231 338.58 
L 232.774242 338.027456 
L 232.977252 311.644276 
L 233.180263 336.202895 
L 233.383273 327.009944 
L 233.586284 324.191885 
L 233.789295 329.286549 
L 233.992305 331.342207 
L 234.195316 338.58 
L 234.601337 338.58 
L 234.804348 332.807444 
L 235.007358 332.185036 
L 235.210369 338.58 
L 235.413379 337.07636 
L 235.61639 338.58 
L 235.819401 338.58 
L 236.022411 333.185977 
L 236.225422 322.165964 
L 236.428432 336.423425 
L 236.631443 334.727732 
L 236.834454 335.168545 
L 237.037464 336.077619 
L 237.240475 336.107969 
L 237.443485 297.631557 
L 237.646496 332.469951 
L 237.849507 329.915109 
L 238.052517 336.648523 
L 238.255528 332.080837 
L 238.458538 338.58 
L 238.661549 331.174013 
L 238.86456 275.699949 
L 239.06757 334.988593 
L 239.270581 312.378332 
L 239.473591 338.090447 
L 239.676602 333.084963 
L 239.879613 335.049131 
L 240.082623 338.217646 
L 240.285634 333.372812 
L 240.488644 318.222592 
L 240.691655 333.917982 
L 240.894666 338.58 
L 241.097676 315.231538 
L 241.300687 336.544139 
L 241.503697 337.15663 
L 241.706708 335.973028 
L 241.909718 335.890256 
L 242.112729 334.970133 
L 242.31574 337.509249 
L 242.721761 305.413271 
L 242.924771 337.161391 
L 243.127782 337.327015 
L 243.330793 325.225228 
L 243.533803 271.711852 
L 243.736814 338.544409 
L 243.939824 296.580703 
L 244.142835 308.398595 
L 244.345846 328.619572 
L 244.548856 328.77561 
L 244.751867 334.3744 
L 244.954877 316.469707 
L 245.157888 329.828393 
L 245.360899 332.952562 
L 245.563909 327.282381 
L 245.76692 317.449165 
L 245.96993 331.515389 
L 246.172941 253.610655 
L 246.375952 338.531685 
L 246.578962 338.238151 
L 246.781973 288.958316 
L 247.187994 334.262303 
L 247.391005 324.072883 
L 247.594015 337.479737 
L 247.797026 327.41811 
L 248.000036 284.688169 
L 248.406058 329.170225 
L 248.609068 321.445304 
L 248.812079 338.314369 
L 249.015089 323.579704 
L 249.2181 334.98997 
L 249.421111 331.34616 
L 249.624121 313.42166 
L 249.827132 328.787064 
L 250.030142 312.044426 
L 250.233153 223.264058 
L 250.436164 307.538547 
L 250.639174 330.563503 
L 250.842185 318.74129 
L 251.045195 330.204151 
L 251.248206 327.922852 
L 251.451217 301.794575 
L 251.654227 296.832741 
L 251.857238 312.938605 
L 252.060248 293.65808 
L 252.263259 318.081229 
L 252.466269 269.542373 
L 252.66928 288.025078 
L 252.872291 263.73793 
L 253.278312 321.260299 
L 253.481322 319.112804 
L 253.684333 329.605202 
L 253.887344 240.112347 
L 254.090354 293.22359 
L 254.293365 256.984345 
L 254.496375 307.56828 
L 254.699386 300.605159 
L 254.902397 193.056874 
L 255.105407 290.67244 
L 255.308418 314.642828 
L 255.511428 262.870163 
L 255.714439 335.567241 
L 255.91745 334.45275 
L 256.12046 316.964508 
L 256.323471 266.23068 
L 256.526481 326.988701 
L 256.729492 315.411235 
L 256.932503 332.603134 
L 257.135513 308.821682 
L 257.338524 313.736113 
L 257.541534 253.028609 
L 257.744545 315.723219 
L 257.947556 317.682596 
L 258.150566 263.360271 
L 258.353577 270.651076 
L 258.556587 330.154665 
L 258.759598 283.335113 
L 258.962609 331.17647 
L 259.165619 294.977119 
L 259.36863 301.227074 
L 259.57164 311.606269 
L 259.774651 301.486959 
L 259.977662 281.107491 
L 260.180672 284.502042 
L 260.383683 325.751547 
L 260.586693 332.816885 
L 260.992715 209.293016 
L 261.195725 302.189335 
L 261.398736 308.073656 
L 261.601746 229.951453 
L 261.804757 272.515544 
L 262.007768 280.841106 
L 262.210778 239.705301 
L 262.413789 332.128096 
L 262.616799 261.38469 
L 262.81981 315.240858 
L 263.225831 265.301264 
L 263.834863 338.306532 
L 264.037873 323.334647 
L 264.240884 335.480016 
L 264.646905 294.645045 
L 264.849916 336.738596 
L 265.052926 322.327639 
L 265.255937 323.22313 
L 265.458948 297.873779 
L 265.661958 321.490894 
L 266.067979 273.429208 
L 266.27099 301.145037 
L 266.474001 308.419637 
L 266.677011 310.612633 
L 266.880022 311.567696 
L 267.083032 211.731673 
L 267.286043 320.32743 
L 267.489054 295.496082 
L 267.692064 333.386861 
L 267.895075 322.663467 
L 268.098085 329.630067 
L 268.301096 332.141534 
L 268.504107 303.159218 
L 268.707117 329.473358 
L 269.316149 280.702277 
L 269.51916 315.13837 
L 269.925181 274.505436 
L 270.128191 312.314627 
L 270.331202 296.735961 
L 270.534213 295.329789 
L 270.737223 330.867027 
L 270.940234 336.718076 
L 271.143244 329.138208 
L 271.346255 331.347084 
L 271.549266 327.087565 
L 271.752276 336.906704 
L 271.955287 335.618764 
L 272.361308 289.610654 
L 272.564319 299.188227 
L 272.767329 338.58 
L 272.97034 300.526948 
L 273.17335 292.738927 
L 273.376361 298.511526 
L 273.782382 331.025367 
L 273.985393 332.682755 
L 274.188403 298.705119 
L 274.391414 318.580582 
L 274.594424 274.587992 
L 274.797435 281.941623 
L 275.000446 314.529248 
L 275.203456 320.041637 
L 275.406467 308.817825 
L 275.609477 315.463817 
L 275.812488 279.135725 
L 276.015499 323.851431 
L 276.218509 260.702552 
L 276.42152 333.187341 
L 276.62453 287.814998 
L 276.827541 316.665798 
L 277.030552 293.577865 
L 277.233562 335.554785 
L 277.436573 313.587052 
L 277.639583 331.781645 
L 277.842594 298.365762 
L 278.045605 297.144633 
L 278.248615 292.527326 
L 278.451626 313.627408 
L 278.857647 325.792885 
L 279.060658 323.285801 
L 279.263668 303.274236 
L 279.466679 299.906645 
L 279.669689 326.186216 
L 279.8727 279.099936 
L 280.075711 284.547039 
L 280.278721 328.982968 
L 280.481732 338.58 
L 280.684742 319.322796 
L 280.887753 323.255306 
L 281.090764 330.693441 
L 281.293774 313.82831 
L 281.496785 338.58 
L 281.699795 315.6654 
L 281.902806 307.82841 
L 282.105817 311.978876 
L 282.308827 338.58 
L 282.714848 301.540073 
L 282.917859 335.503782 
L 283.12087 301.440658 
L 283.32388 334.729538 
L 283.526891 309.777386 
L 283.729901 332.985331 
L 284.135923 279.167889 
L 284.338933 338.58 
L 284.541944 260.242407 
L 284.947965 317.161187 
L 285.150975 277.164859 
L 285.353986 318.111771 
L 285.556997 319.380015 
L 285.760007 318.088115 
L 285.963018 240.791368 
L 286.166028 320.556155 
L 286.369039 331.12156 
L 286.57205 256.858911 
L 286.77506 304.574595 
L 286.978071 296.289624 
L 287.181081 237.520575 
L 287.587103 330.268555 
L 287.993124 287.767597 
L 288.196134 301.487224 
L 288.399145 276.956748 
L 288.602156 332.846979 
L 289.211187 231.04659 
L 289.414198 323.230484 
L 289.617209 333.638307 
L 289.820219 329.057058 
L 290.02323 280.397293 
L 290.22624 295.368934 
L 290.429251 327.908628 
L 290.835272 238.09842 
L 291.038283 261.011754 
L 291.241293 313.90432 
L 291.444304 303.857576 
L 291.647315 331.781017 
L 291.850325 259.776274 
L 292.053336 287.926912 
L 292.256346 293.677574 
L 292.459357 290.310874 
L 292.662368 227.173353 
L 292.865378 328.638228 
L 293.068389 311.785262 
L 293.271399 269.111467 
L 293.47441 309.531509 
L 293.677421 318.384511 
L 293.880431 314.072682 
L 294.083442 306.775408 
L 294.286452 209.552193 
L 294.489463 294.953103 
L 294.692474 218.021901 
L 294.895484 242.630679 
L 295.301505 212.854438 
L 295.504516 207.774153 
L 295.707526 230.609497 
L 295.910537 222.471461 
L 296.113548 157.435474 
L 296.316558 263.208095 
L 296.519569 147.394572 
L 296.722579 264.585873 
L 296.92559 189.1939 
L 297.128601 224.657341 
L 297.331611 203.871316 
L 297.534622 291.623847 
L 297.737632 234.758934 
L 297.940643 213.417649 
L 298.143654 239.968305 
L 298.549675 213.71307 
L 298.752685 244.166504 
L 298.955696 230.082714 
L 299.158707 278.162713 
L 299.361717 287.286625 
L 299.564728 259.869549 
L 299.767738 250.608542 
L 299.970749 193.417404 
L 300.17376 227.992489 
L 300.37677 284.112248 
L 300.579781 215.214805 
L 300.782791 252.410195 
L 301.188813 185.944445 
L 301.391823 268.750962 
L 301.594834 190.884137 
L 301.797844 221.914851 
L 302.000855 270.122061 
L 302.203866 196.877173 
L 302.406876 200.122475 
L 302.609887 206.042458 
L 302.812897 291.191032 
L 303.015908 241.526724 
L 303.218919 252.069889 
L 303.421929 274.147154 
L 303.62494 190.554763 
L 303.82795 289.322112 
L 304.030961 175.409997 
L 304.233972 271.594517 
L 304.436982 270.333294 
L 304.639993 309.192337 
L 304.843003 281.113929 
L 305.046014 275.028481 
L 305.249025 245.901226 
L 305.452035 266.603546 
L 305.655046 226.581937 
L 305.858056 246.753142 
L 306.061067 249.176949 
L 306.264077 279.780636 
L 306.467088 225.406596 
L 306.670099 238.659014 
L 306.873109 268.08576 
L 307.07612 269.179562 
L 307.27913 239.60009 
L 307.482141 237.700443 
L 307.685152 265.809671 
L 308.091173 218.077853 
L 308.294183 288.95042 
L 308.497194 220.456764 
L 308.700205 271.976584 
L 308.903215 276.268676 
L 309.106226 302.340673 
L 309.309236 173.833025 
L 309.512247 305.602785 
L 309.715258 247.723535 
L 309.918268 285.48046 
L 310.121279 234.368841 
L 310.324289 226.240506 
L 310.730311 312.479961 
L 311.136332 255.038629 
L 311.339342 273.725052 
L 311.542353 280.272546 
L 311.745364 242.122039 
L 311.948374 230.762641 
L 312.151385 202.842719 
L 312.557406 305.225526 
L 312.760417 286.294515 
L 312.963427 296.144928 
L 313.166438 237.559867 
L 313.369448 275.302853 
L 313.572459 201.592245 
L 313.77547 289.985363 
L 313.97848 197.511632 
L 314.181491 248.07727 
L 314.384501 237.45397 
L 314.587512 211.868858 
L 314.790523 220.37233 
L 314.993533 178.517709 
L 315.196544 213.665282 
L 315.399554 194.569942 
L 315.602565 218.187104 
L 315.805576 221.682369 
L 316.008586 175.494524 
L 316.211597 155.347108 
L 316.414607 259.26833 
L 316.617618 178.800368 
L 316.820628 252.759543 
L 317.023639 209.317878 
L 317.22665 219.411435 
L 317.42966 241.529757 
L 317.632671 169.81743 
L 317.835681 233.964346 
L 318.038692 172.368187 
L 318.241703 198.679477 
L 318.444713 191.270897 
L 318.647724 195.184709 
L 318.850734 259.918688 
L 319.053745 191.991152 
L 319.256756 218.246706 
L 319.459766 198.490147 
L 319.662777 229.457827 
L 319.865787 200.880604 
L 320.068798 220.760102 
L 320.271809 229.622658 
L 320.474819 219.475107 
L 320.67783 201.423942 
L 320.88084 256.184918 
L 321.083851 181.092644 
L 321.286862 219.7866 
L 321.489872 231.081902 
L 321.692883 271.22067 
L 321.895893 219.473567 
L 322.098904 267.676977 
L 322.301915 277.885598 
L 322.504925 232.747067 
L 322.707936 253.977458 
L 322.910946 224.486123 
L 323.113957 229.579604 
L 323.316968 221.159407 
L 323.519978 227.67202 
L 323.722989 274.455296 
L 323.925999 266.213645 
L 324.12901 240.520524 
L 324.332021 266.317444 
L 324.738042 223.472166 
L 324.941052 279.500007 
L 325.144063 193.815567 
L 325.550084 257.456622 
L 325.753095 180.484203 
L 325.956105 231.76741 
L 326.768148 292.22976 
L 326.971158 258.388643 
L 327.58019 227.798977 
L 327.783201 252.102704 
L 327.986211 249.487817 
L 328.189222 213.43743 
L 328.392232 241.041126 
L 328.595243 226.510298 
L 328.798254 240.190367 
L 329.001264 276.475442 
L 329.204275 223.608781 
L 329.407285 217.706311 
L 329.610296 246.141344 
L 329.813307 246.312842 
L 330.016317 242.123038 
L 330.219328 253.850947 
L 330.422338 244.750493 
L 330.625349 215.785777 
L 330.82836 226.413948 
L 331.03137 201.388081 
L 331.234381 223.871966 
L 331.437391 209.038088 
L 331.640402 228.731516 
L 331.843413 180.300006 
L 332.046423 167.836056 
L 332.249434 190.977093 
L 332.655455 137.646761 
L 332.858466 195.990999 
L 333.264487 162.299615 
L 333.670508 218.65506 
L 333.873519 152.234466 
L 334.076529 177.880196 
L 334.27954 166.611372 
L 334.48255 193.615059 
L 334.685561 169.285778 
L 334.888572 126.264146 
L 335.294593 219.830294 
L 335.497603 225.663273 
L 335.700614 159.668459 
L 335.903625 162.970428 
L 336.106635 227.554279 
L 336.512656 184.236103 
L 336.715667 194.067818 
L 336.918678 138.103677 
L 337.121688 203.58901 
L 337.324699 157.902729 
L 337.527709 189.093834 
L 337.73072 154.276194 
L 337.933731 196.024014 
L 338.136741 181.52945 
L 338.339752 183.630365 
L 338.542762 188.607354 
L 338.745773 221.424364 
L 339.151794 178.593696 
L 339.354805 183.146764 
L 339.557815 177.341282 
L 339.760826 130.842864 
L 339.963836 219.753564 
L 340.572868 154.519168 
L 340.775879 207.685127 
L 340.978889 152.026995 
L 341.1819 208.530436 
L 341.384911 169.830407 
L 341.587921 167.63506 
L 341.993942 112.137632 
L 342.196953 171.562715 
L 342.399964 162.263668 
L 342.602974 199.683057 
L 342.805985 185.745158 
L 343.008995 205.928805 
L 343.212006 172.215423 
L 343.415017 193.989311 
L 343.618027 145.7528 
L 343.821038 136.231034 
L 344.024048 152.837001 
L 344.227059 154.816485 
L 344.43007 193.499714 
L 344.63308 124.961387 
L 344.836091 145.553331 
L 345.039101 143.151203 
L 345.242112 155.153969 
L 345.445123 179.185173 
L 345.648133 228.64622 
L 345.851144 150.642832 
L 346.054154 186.71133 
L 346.257165 140.069681 
L 346.460176 140.689889 
L 346.663186 170.378688 
L 346.866197 135.358197 
L 347.069207 151.702787 
L 347.272218 140.301333 
L 347.475229 153.218246 
L 347.678239 127.128891 
L 347.88125 132.464573 
L 348.287271 179.521652 
L 348.490282 114.495672 
L 348.693292 136.907521 
L 348.896303 119.445324 
L 349.099313 152.040718 
L 349.302324 137.087718 
L 349.708345 191.66369 
L 349.911356 152.556936 
L 350.114366 165.360902 
L 350.317377 145.480931 
L 350.520387 159.536506 
L 350.723398 192.986106 
L 350.926409 153.170105 
L 351.129419 173.390343 
L 351.53544 151.532243 
L 351.738451 125.989957 
L 351.941462 155.412967 
L 352.347483 168.98591 
L 352.753504 210.079028 
L 352.956515 158.639262 
L 353.159525 153.347065 
L 353.362536 181.519134 
L 353.565546 138.44944 
L 353.768557 187.875732 
L 354.174578 202.141381 
L 354.377589 220.344782 
L 354.580599 210.025576 
L 354.986621 150.668403 
L 355.189631 157.918077 
L 355.392642 129.735339 
L 355.595652 159.021278 
L 355.798663 211.921914 
L 356.001674 158.799169 
L 356.407695 188.256633 
L 356.610705 186.877104 
L 356.813716 169.507998 
L 357.016727 179.725321 
L 357.219737 177.703777 
L 357.422748 154.566225 
L 357.625758 168.282864 
L 357.828769 195.769149 
L 358.03178 187.615433 
L 358.23479 198.804176 
L 358.437801 151.50729 
L 358.640811 163.828471 
L 358.843822 150.335411 
L 359.046833 165.411818 
L 359.249843 143.117464 
L 359.452854 186.078706 
L 359.655864 113.557554 
L 359.858875 182.75619 
L 360.264896 132.048846 
L 360.467907 130.923852 
L 360.873928 199.372789 
L 361.076938 156.820334 
L 361.279949 176.78278 
L 361.48296 133.47078 
L 361.68597 178.517614 
L 362.091991 160.779948 
L 362.295002 139.434858 
L 362.498013 195.80502 
L 362.701023 134.276171 
L 362.904034 131.185667 
L 363.107044 151.129638 
L 363.310055 130.757435 
L 363.513066 167.687866 
L 363.716076 170.159816 
L 363.919087 143.690469 
L 364.122097 142.963843 
L 364.325108 185.963167 
L 364.528119 144.510061 
L 364.731129 153.279937 
L 364.93414 191.102728 
L 365.13715 144.004612 
L 365.340161 178.688033 
L 365.543172 192.453801 
L 365.746182 171.953624 
L 365.949193 199.534668 
L 366.355214 162.080686 
L 366.558225 194.511763 
L 366.761235 173.666492 
L 366.964246 210.908359 
L 367.370267 167.058972 
L 367.573278 164.884714 
L 367.776288 178.22944 
L 367.979299 155.814226 
L 368.182309 169.491309 
L 368.38532 144.616866 
L 368.588331 183.446552 
L 368.994352 110.458313 
L 369.197362 164.496276 
L 369.603384 146.617406 
L 369.806394 144.663519 
L 370.009405 146.136339 
L 370.212415 199.069471 
L 370.415426 158.741517 
L 370.618436 184.773711 
L 370.821447 167.025297 
L 371.024458 178.41786 
L 371.227468 176.197418 
L 371.430479 165.17302 
L 371.633489 209.031539 
L 371.8365 140.330838 
L 372.039511 168.609488 
L 372.242521 145.628799 
L 372.445532 172.070791 
L 372.648542 160.059011 
L 373.054564 184.77814 
L 373.257574 95.921604 
L 373.460585 131.123028 
L 373.663595 126.240761 
L 373.866606 161.343974 
L 374.272627 120.362668 
L 374.475638 140.622657 
L 374.881659 125.062441 
L 375.08467 164.321254 
L 375.28768 128.819274 
L 375.490691 124.026192 
L 375.693701 143.905366 
L 375.896712 115.384158 
L 376.099723 142.803366 
L 376.302733 139.066516 
L 376.505744 147.87421 
L 376.708754 136.741773 
L 376.911765 137.935596 
L 377.114776 144.549076 
L 377.317786 140.617 
L 377.520797 156.576553 
L 377.723807 130.622825 
L 377.926818 154.306258 
L 378.129829 135.921319 
L 378.332839 167.605092 
L 378.53585 139.275847 
L 378.73886 161.693226 
L 378.941871 128.84118 
L 379.144882 143.413482 
L 379.347892 149.311716 
L 379.550903 133.801322 
L 379.753913 156.784267 
L 379.956924 121.012972 
L 380.159935 118.045578 
L 380.362945 150.332883 
L 380.565956 134.318161 
L 380.768966 100.438246 
L 380.971977 124.298552 
L 381.174987 173.078697 
L 381.377998 106.543026 
L 381.581009 139.381089 
L 381.784019 122.422466 
L 381.98703 120.246929 
L 382.19004 115.651369 
L 382.393051 165.391076 
L 382.596062 125.699488 
L 382.799072 162.968162 
L 383.002083 119.921986 
L 383.205093 110.57028 
L 383.408104 113.361778 
L 383.611115 138.825545 
L 383.814125 109.0084 
L 384.017136 101.259101 
L 384.220146 102.370453 
L 384.423157 94.000358 
L 384.626168 106.03666 
L 384.829178 86.099286 
L 385.032189 109.864188 
L 385.43821 98.758587 
L 385.641221 77.587501 
L 386.047242 104.344702 
L 386.250252 96.300061 
L 386.453263 123.430105 
L 386.859284 87.763367 
L 387.062295 128.460065 
L 387.265305 131.037472 
L 387.468316 130.811138 
L 387.671327 98.412521 
L 387.874337 93.342976 
L 388.280358 120.826148 
L 388.483369 115.060564 
L 388.68638 95.836944 
L 388.88939 116.029552 
L 389.092401 93.17535 
L 389.295411 104.758751 
L 389.498422 84.476709 
L 389.701433 94.467721 
L 389.904443 91.142751 
L 390.107454 97.973038 
L 390.310464 84.321257 
L 390.513475 92.244962 
L 390.716486 88.135117 
L 390.919496 96.81987 
L 391.122507 124.560831 
L 391.325517 100.849444 
L 391.528528 117.788591 
L 391.731538 101.344441 
L 391.934549 147.98598 
L 392.13756 118.805142 
L 392.34057 118.201353 
L 392.543581 90.890403 
L 392.746591 108.448714 
L 392.949602 100.493248 
L 393.152613 132.361031 
L 393.355623 118.594486 
L 393.558634 89.816985 
L 393.761644 111.267739 
L 393.964655 98.976884 
L 394.167666 100.536448 
L 394.370676 108.78665 
L 394.573687 81.24928 
L 394.776697 88.601704 
L 394.979708 85.263467 
L 395.182719 79.326665 
L 395.385729 88.281131 
L 395.58874 77.641175 
L 396.197772 111.656098 
L 396.400782 84.591314 
L 396.806803 99.856652 
L 397.009814 88.899243 
L 397.415835 108.371911 
L 397.618846 96.510317 
L 397.821856 120.791851 
L 398.024867 111.112846 
L 398.227878 127.031736 
L 398.430888 87.550483 
L 398.633899 117.389458 
L 398.836909 91.857289 
L 399.03992 99.831141 
L 399.242931 122.640125 
L 399.445941 101.868881 
L 399.648952 102.592932 
L 399.851962 98.053187 
L 400.054973 116.093605 
L 400.460994 87.783837 
L 400.664005 118.221801 
L 400.867015 89.815692 
L 401.070026 92.501958 
L 401.273037 101.122807 
L 401.476047 74.353615 
L 401.679058 85.028311 
L 401.882068 73.736092 
L 402.085079 113.572334 
L 402.288089 121.146127 
L 402.4911 96.194281 
L 402.694111 98.953993 
L 402.897121 113.29875 
L 403.100132 89.166251 
L 403.303142 112.106253 
L 403.709164 109.375208 
L 403.912174 112.354184 
L 404.115185 89.60048 
L 404.318195 90.134114 
L 404.521206 81.858057 
L 404.724217 99.334812 
L 404.927227 100.36464 
L 405.130238 85.52432 
L 405.333248 80.285568 
L 405.536259 93.063069 
L 405.73927 94.896932 
L 405.94228 112.821243 
L 406.145291 85.950604 
L 406.348301 100.637261 
L 406.551312 101.430864 
L 406.754323 74.186096 
L 407.363354 113.793909 
L 407.566365 88.678919 
L 407.769376 113.652256 
L 407.972386 93.135631 
L 408.378407 97.850293 
L 408.581418 95.002475 
L 408.784429 117.892294 
L 408.987439 103.86897 
L 409.19045 107.615883 
L 409.39346 73.678098 
L 409.596471 80.389189 
L 409.799482 61.38 
L 410.002492 92.845705 
L 410.205503 87.439408 
L 410.408513 68.864789 
L 410.611524 93.255468 
L 410.814535 98.973081 
L 411.017545 79.443351 
L 411.220556 75.674488 
L 411.626577 86.426109 
L 411.829588 71.122845 
L 412.032598 73.912563 
L 412.235609 65.294566 
L 412.438619 74.247187 
L 412.64163 94.614434 
L 412.844641 89.946045 
L 413.047651 98.75978 
L 413.250662 92.993872 
L 413.453672 128.795562 
L 413.656683 124.151672 
L 413.859693 122.254043 
L 414.062704 97.658365 
L 414.265715 106.265232 
L 414.468725 105.127602 
L 414.671736 92.135346 
L 414.874746 105.548883 
L 415.077757 81.01779 
L 415.280768 101.71877 
L 415.483778 83.68484 
L 415.686789 90.464525 
L 415.889799 70.591771 
L 416.09281 97.906828 
L 416.295821 102.37693 
L 416.498831 122.448158 
L 416.701842 116.629018 
L 416.904852 91.395885 
L 417.107863 115.116152 
L 417.310874 115.723201 
L 417.716895 102.730152 
L 417.919905 128.715025 
L 418.122916 112.128584 
L 418.325927 134.483759 
L 418.528937 129.422018 
L 418.934958 107.672649 
L 419.137969 106.366648 
L 419.34098 115.969599 
L 419.54399 105.441036 
L 419.747001 113.653232 
L 419.950011 105.238132 
L 420.153022 103.556657 
L 420.356033 100.946098 
L 420.559043 100.396036 
L 420.762054 94.034638 
L 420.965064 95.645433 
L 421.168075 95.940671 
L 421.371086 74.781733 
L 421.574096 92.318387 
L 421.777107 93.030379 
L 421.980117 88.740101 
L 422.183128 92.750031 
L 422.589149 110.72414 
L 422.79216 99.001138 
L 422.99517 101.76146 
L 423.198181 127.679122 
L 423.401192 110.915585 
L 423.604202 131.219419 
L 423.807213 109.128562 
L 424.010223 105.258881 
L 424.213234 139.134681 
L 424.416244 105.833369 
L 424.822266 108.218105 
L 425.025276 103.236286 
L 425.228287 103.185616 
L 425.634308 117.474538 
L 425.837319 105.561117 
L 426.040329 104.313381 
L 426.44635 122.595059 
L 426.649361 101.13126 
L 426.852372 117.020247 
L 427.258393 109.602169 
L 427.461403 122.589727 
L 427.664414 122.800494 
L 427.867425 119.562779 
L 428.070435 108.503025 
L 428.476456 117.565245 
L 428.679467 102.084297 
L 428.882478 124.85971 
L 429.085488 99.180425 
L 429.288499 114.743703 
L 429.491509 120.922178 
L 429.69452 102.370155 
L 430.303552 129.085039 
L 430.506562 106.842506 
L 430.709573 107.25808 
L 430.912584 117.70663 
L 431.115594 117.898796 
L 431.318605 134.065183 
L 431.521615 114.679418 
L 431.724626 117.15069 
L 431.927637 122.700769 
L 432.130647 103.165246 
L 432.333658 112.017681 
L 432.536668 115.051802 
L 432.739679 108.424216 
L 432.94269 90.338732 
L 433.1457 114.393382 
L 433.348711 106.218617 
L 433.551721 106.136146 
L 433.754732 115.902208 
L 433.957743 109.750863 
L 434.160753 110.900068 
L 434.363764 123.301373 
L 434.566774 120.341173 
L 434.769785 134.00186 
L 434.972795 133.717838 
L 435.175806 122.130551 
L 435.581827 126.551646 
L 435.987848 112.775952 
L 436.190859 116.635082 
L 436.39387 110.579476 
L 436.59688 100.378462 
L 436.799891 117.785628 
L 437.002901 107.42536 
L 437.205912 115.845293 
L 437.408923 103.645279 
L 437.611933 119.828181 
L 438.017954 99.568054 
L 438.423976 112.736772 
L 438.626986 111.113801 
L 438.829997 124.149988 
L 439.033007 110.384972 
L 439.236018 121.200987 
L 439.642039 106.542639 
L 439.84505 107.885894 
L 440.04806 116.769621 
L 440.454082 106.505001 
L 440.657092 119.110446 
L 440.860103 119.29797 
L 441.063113 124.438283 
L 441.266124 108.550205 
L 441.875156 116.695978 
L 442.078166 114.302184 
L 442.281177 113.789361 
L 442.484188 112.366004 
L 442.687198 118.745045 
L 442.890209 112.413363 
L 443.093219 127.266875 
L 443.29623 123.941463 
L 443.702251 104.546357 
L 443.905262 95.877405 
L 444.108272 114.59788 
L 444.311283 99.74103 
L 444.514294 108.877517 
L 444.717304 106.36424 
L 444.920315 108.520505 
L 445.123325 106.246779 
L 445.326336 113.132035 
L 445.529346 103.097894 
L 445.732357 100.220588 
L 445.935368 109.863635 
L 446.138378 98.212384 
L 446.341389 94.725863 
L 446.544399 86.901132 
L 446.74741 110.831221 
L 446.950421 102.752968 
L 447.153431 104.519265 
L 447.356442 103.912478 
L 447.559452 97.472804 
L 447.762463 117.071504 
L 447.965474 121.867008 
L 448.168484 116.634151 
L 448.371495 120.925953 
L 448.574505 116.762482 
L 448.777516 117.221913 
L 448.980527 108.075094 
L 449.183537 104.576439 
L 449.386548 106.571997 
L 449.589558 104.651575 
L 449.792569 116.497137 
L 449.99558 103.68718 
L 450.19859 103.570494 
L 450.401601 96.761107 
L 450.604611 111.276843 
L 450.807622 105.44512 
L 451.010633 109.914455 
L 451.213643 97.559334 
L 451.619664 103.648742 
L 451.822675 94.55636 
L 452.025686 106.307536 
L 452.228696 93.472806 
L 452.431707 106.649014 
L 452.634717 108.490643 
L 452.837728 111.759921 
L 453.040739 94.631578 
L 453.243749 108.878395 
L 453.44676 107.188027 
L 453.64977 108.789026 
L 453.852781 97.218529 
L 454.055792 101.266708 
L 454.258802 107.930665 
L 454.461813 101.28534 
L 454.664823 114.461659 
L 454.867834 96.326748 
L 455.070845 115.522866 
L 455.476866 100.38543 
L 455.679876 111.582733 
L 456.085897 90.739649 
L 456.288908 108.002614 
L 456.491919 97.260165 
L 456.694929 94.367964 
L 456.89794 97.008234 
L 457.10095 86.868097 
L 457.303961 93.83042 
L 457.506972 107.136191 
L 457.709982 101.349118 
L 457.912993 90.174594 
L 458.116003 87.601612 
L 458.522025 104.425778 
L 458.725035 103.096945 
L 458.928046 99.3359 
L 459.131056 108.804581 
L 459.334067 101.378546 
L 459.537078 99.257959 
L 459.740088 107.460819 
L 459.943099 101.488793 
L 460.146109 108.198474 
L 460.34912 110.204089 
L 460.552131 108.493744 
L 460.755141 116.300674 
L 460.958152 103.312727 
L 461.161162 108.772757 
L 461.364173 102.72929 
L 461.567184 103.7099 
L 461.770194 100.79241 
L 461.973205 90.922025 
L 462.176215 92.345684 
L 462.582237 79.669855 
L 462.785247 82.246482 
L 463.191268 90.368084 
L 463.394279 91.997304 
L 463.59729 98.777512 
L 463.8003 97.146756 
L 464.003311 89.905557 
L 464.206321 103.945195 
L 464.409332 94.22046 
L 464.612343 111.621256 
L 464.815353 95.234351 
L 465.018364 101.17528 
L 465.221374 99.811725 
L 465.424385 103.920187 
L 465.627396 92.139718 
L 466.033417 105.545582 
L 466.236427 102.684493 
L 466.439438 102.728031 
L 466.642448 109.534867 
L 466.845459 102.797165 
L 467.04847 102.881671 
L 467.25148 101.19082 
L 467.454491 111.230278 
L 467.860512 103.95053 
L 468.063523 105.086778 
L 468.266533 102.447828 
L 468.469544 112.973507 
L 468.672554 95.249841 
L 468.875565 110.96735 
L 469.078576 111.026799 
L 469.281586 111.923971 
L 469.484597 107.070585 
L 469.687607 111.405969 
L 469.890618 100.535235 
L 470.093629 107.202509 
L 470.296639 100.847788 
L 470.49965 109.314183 
L 470.70266 97.00538 
L 470.905671 99.140073 
L 471.108682 103.164132 
L 471.514703 90.35858 
L 471.717713 101.697815 
L 471.920724 100.042414 
L 472.326745 91.47365 
L 472.529756 94.612376 
L 472.732766 93.328947 
L 472.935777 100.782216 
L 473.138788 97.793471 
L 473.341798 89.708109 
L 473.747819 99.764598 
L 473.95083 90.907797 
L 474.153841 89.569633 
L 474.356851 92.452666 
L 474.559862 87.354172 
L 474.965883 93.170332 
L 475.168894 80.853595 
L 475.371904 93.616591 
L 475.574915 85.271374 
L 475.777925 88.537947 
L 475.980936 89.237966 
L 476.386957 95.28809 
L 476.589968 90.995904 
L 476.792978 100.830283 
L 476.995989 98.125472 
L 477.198999 99.530828 
L 477.605021 113.169228 
L 477.808031 106.868085 
L 478.011042 106.720384 
L 478.214052 100.795482 
L 478.417063 114.595394 
L 478.620074 105.952165 
L 478.823084 109.278763 
L 479.229105 98.933808 
L 479.432116 102.656818 
L 479.635127 98.010901 
L 479.838137 104.507519 
L 480.041148 93.097261 
L 480.244158 95.931046 
L 480.447169 85.635484 
L 480.65018 93.311791 
L 480.85319 96.121566 
L 481.056201 93.2451 
L 481.259211 104.18406 
L 481.462222 91.612347 
L 481.665233 90.931284 
L 481.868243 92.736543 
L 482.071254 92.685109 
L 482.477275 95.679139 
L 482.680286 94.031787 
L 482.883296 95.340506 
L 483.086307 99.215106 
L 483.289317 94.275362 
L 483.492328 94.664436 
L 483.695339 96.659562 
L 483.898349 89.662228 
L 484.10136 97.938631 
L 484.30437 87.025505 
L 484.507381 88.910914 
L 484.710392 89.00405 
L 484.913402 86.310897 
L 485.116413 93.595518 
L 485.319423 90.847843 
L 485.522434 93.935296 
L 485.725445 90.191474 
L 485.928455 92.620525 
L 486.131466 98.089351 
L 486.537487 93.935111 
L 486.740498 96.322508 
L 486.943508 96.34147 
L 487.146519 87.580179 
L 487.349529 98.645313 
L 487.55254 89.753364 
L 487.755551 89.506832 
L 487.958561 92.936396 
L 488.161572 92.372625 
L 488.364582 101.617344 
L 488.567593 97.164248 
L 488.770603 103.96191 
L 489.176625 98.404487 
L 489.379635 102.391046 
L 489.582646 94.271294 
L 489.785656 99.793913 
L 490.191678 89.867106 
L 490.394688 92.350716 
L 490.597699 89.189245 
L 491.00372 93.401484 
L 491.206731 90.284015 
L 491.409741 90.447106 
L 491.612752 89.780774 
L 491.815762 93.156834 
L 492.018773 89.128645 
L 492.221784 94.946466 
L 492.424794 86.589017 
L 492.830815 94.863548 
L 493.033826 89.335447 
L 493.236837 96.39825 
L 493.439847 92.867046 
L 493.642858 100.892074 
L 493.845868 98.726566 
L 494.25189 101.548531 
L 494.4549 101.353827 
L 494.657911 97.449264 
L 494.860921 103.222164 
L 495.063932 103.708261 
L 495.266943 105.208309 
L 495.469953 104.029783 
L 495.672964 104.463844 
L 495.875974 98.572595 
L 496.078985 96.747096 
L 496.281996 97.628832 
L 496.485006 92.392276 
L 496.891027 96.67305 
L 497.094038 95.341348 
L 497.297049 97.675283 
L 497.500059 96.581322 
L 497.70307 93.052834 
L 497.90608 93.073363 
L 498.109091 90.634633 
L 498.109091 90.634633 
" clip-path="url(#p56c4358e0d)" style="fill: none; stroke: #008080; stroke-width: 1.5; stroke-linecap: round"/>
   </g>
   <g id="line2d_36">
    <path d="M 92.290909 267.369148 
L 92.49392 298.877678 
L 92.899941 314.105776 
L 93.305962 318.442317 
L 93.508973 314.060944 
L 93.711983 316.498316 
L 93.914994 316.807608 
L 94.118004 318.829085 
L 94.321015 314.88671 
L 95.133057 319.47232 
L 95.336068 320.183223 
L 95.539079 319.935767 
L 96.14811 322.119452 
L 96.960153 324.305545 
L 97.772195 325.183329 
L 97.975206 325.243195 
L 98.584238 326.263899 
L 98.787248 326.274213 
L 98.990259 326.633889 
L 99.39628 326.576731 
L 99.599291 326.698587 
L 99.802301 325.68845 
L 100.005312 325.711052 
L 100.208322 325.965533 
L 100.411333 324.912797 
L 100.614344 325.044131 
L 101.020365 325.411848 
L 101.223375 325.291888 
L 102.035418 325.872934 
L 102.238428 325.942658 
L 102.441439 325.650649 
L 102.84746 323.81309 
L 103.253481 324.340705 
L 103.456492 324.08923 
L 103.659502 324.328868 
L 103.862513 324.152456 
L 104.065524 323.574102 
L 104.268534 323.745189 
L 104.674555 323.843681 
L 104.877566 324.060363 
L 105.283587 323.881867 
L 106.09563 324.454481 
L 106.29864 324.319514 
L 106.501651 323.892042 
L 106.907672 324.023142 
L 107.313693 323.667657 
L 107.922725 323.871231 
L 108.125736 323.560662 
L 108.734767 323.947976 
L 109.140789 324.295082 
L 109.343799 324.171126 
L 109.54681 324.286453 
L 109.74982 324.061648 
L 111.170895 324.980162 
L 111.373905 324.846607 
L 111.779926 324.990033 
L 112.185948 324.906479 
L 112.388958 325.043214 
L 112.591969 324.550028 
L 112.794979 325.205595 
L 112.99799 324.885008 
L 113.201001 325.015674 
L 113.607022 325.109555 
L 113.810032 325.147585 
L 114.013043 325.336079 
L 114.216053 325.361605 
L 114.419064 325.545795 
L 114.622075 325.220105 
L 114.825085 325.640156 
L 115.840138 325.732305 
L 116.043149 325.956102 
L 116.44917 325.510646 
L 116.855191 325.478587 
L 117.058202 325.203912 
L 117.261212 325.19737 
L 117.464223 325.031396 
L 117.870244 325.124471 
L 118.073255 325.052406 
L 118.682287 325.199684 
L 119.088308 325.07468 
L 119.291318 325.101676 
L 119.494329 324.868693 
L 119.69734 325.017449 
L 120.103361 324.759678 
L 120.306371 325.238299 
L 120.509382 325.314036 
L 120.712393 325.18318 
L 120.915403 325.683178 
L 121.118414 325.743813 
L 121.321424 325.669977 
L 121.524435 325.212325 
L 121.930456 325.413799 
L 122.945509 325.113879 
L 123.35153 326.271493 
L 123.757552 326.098008 
L 123.960562 326.301307 
L 124.163573 326.219431 
L 124.366583 326.456211 
L 124.569594 326.896971 
L 124.772604 326.888775 
L 124.975615 327.022909 
L 125.381636 326.469608 
L 125.787657 326.439938 
L 125.990668 326.454242 
L 126.396689 325.839053 
L 126.5997 325.856884 
L 126.80271 326.021472 
L 127.005721 326.463165 
L 127.411742 326.417331 
L 128.020774 326.971457 
L 128.223785 327.094846 
L 128.426795 327.058533 
L 128.629806 327.446781 
L 129.035827 327.327901 
L 129.238838 327.379028 
L 129.644859 326.977469 
L 129.847869 327.164953 
L 130.05088 327.122849 
L 130.253891 327.458013 
L 131.674965 327.200915 
L 131.877975 327.4549 
L 132.487007 327.6939 
L 132.690018 327.791477 
L 132.893028 327.757658 
L 133.096039 328.347795 
L 133.29905 328.241334 
L 133.50206 328.560679 
L 134.111092 327.892334 
L 134.314103 327.84334 
L 134.517113 328.145507 
L 134.923134 328.042598 
L 135.126145 328.373556 
L 135.532166 328.236202 
L 135.938187 328.329514 
L 136.141198 328.360756 
L 136.547219 328.157526 
L 136.95324 328.651624 
L 137.359261 328.716922 
L 137.562272 328.987716 
L 137.765283 328.868259 
L 137.968293 329.031412 
L 138.577325 328.931811 
L 138.983346 328.61772 
L 139.186357 328.598456 
L 139.592378 328.275059 
L 140.40442 328.312096 
L 140.810442 328.392279 
L 141.013452 328.050303 
L 141.419473 328.241109 
L 141.622484 328.236242 
L 141.825495 328.111115 
L 142.028505 328.581323 
L 142.231516 328.603462 
L 142.637537 328.413176 
L 143.043558 328.502509 
L 143.246569 328.487359 
L 143.449579 328.840687 
L 143.65259 328.587453 
L 144.058611 328.690817 
L 144.261622 328.412635 
L 145.276675 328.42569 
L 145.479685 328.035514 
L 146.088717 328.696871 
L 146.291728 328.805311 
L 146.494738 328.677822 
L 146.697749 328.848001 
L 147.712802 328.579796 
L 148.118823 328.620352 
L 148.524844 327.989019 
L 148.727855 327.875195 
L 150.757961 328.107152 
L 151.366993 328.161809 
L 151.570003 328.025122 
L 151.976024 328.009377 
L 152.382046 327.690661 
L 152.585056 327.036951 
L 153.194088 326.495867 
L 153.600109 325.82672 
L 153.80312 325.954157 
L 154.00613 325.716813 
L 154.209141 325.845224 
L 154.412152 326.139528 
L 154.818173 326.145892 
L 155.630215 325.946254 
L 155.833226 326.261372 
L 156.239247 326.230422 
L 156.645268 326.12582 
L 157.2543 326.247546 
L 157.45731 326.266209 
L 157.660321 326.00389 
L 158.066342 326.076987 
L 158.472363 326.179157 
L 158.675374 326.213776 
L 158.878385 325.981328 
L 160.096448 326.799594 
L 160.908491 327.096908 
L 161.314512 327.085611 
L 161.517522 327.470762 
L 161.720533 327.486182 
L 162.126554 327.387977 
L 162.532575 327.5761 
L 163.750639 327.508626 
L 163.95365 327.426144 
L 164.15666 327.675941 
L 164.562681 327.649107 
L 164.765692 327.793467 
L 165.374724 327.650806 
L 165.577734 327.124865 
L 165.780745 326.926824 
L 165.983756 327.125857 
L 166.998808 327.204783 
L 167.201819 327.406117 
L 167.40483 327.769436 
L 168.013861 327.957115 
L 168.216872 328.082098 
L 168.622893 328.10397 
L 169.028914 328.678864 
L 169.434936 328.832671 
L 169.637946 328.808078 
L 170.043967 328.91691 
L 170.652999 328.796501 
L 170.85601 328.752098 
L 171.262031 328.871021 
L 171.871063 328.880871 
L 172.074073 329.068203 
L 172.480095 329.233121 
L 172.886116 329.470888 
L 173.089126 330.134446 
L 173.901169 330.991398 
L 174.104179 331.435684 
L 174.30719 331.364819 
L 174.510201 331.684532 
L 174.713211 331.623581 
L 174.916222 331.718143 
L 175.119232 331.581119 
L 175.931275 331.962876 
L 177.961381 331.950143 
L 178.164391 332.210169 
L 179.179444 332.149635 
L 179.788476 332.088289 
L 180.600518 332.163643 
L 180.803529 331.978002 
L 182.021593 332.156121 
L 182.427614 331.795175 
L 183.036646 331.877371 
L 183.239656 331.581511 
L 184.051699 331.905335 
L 184.45772 332.020157 
L 185.066752 332.098746 
L 185.472773 332.44719 
L 185.878794 332.586455 
L 186.081805 333.216269 
L 186.893847 333.752518 
L 187.299868 333.689985 
L 187.502879 333.852405 
L 188.111911 333.840986 
L 188.314921 333.669046 
L 188.517932 333.657357 
L 188.720942 333.530697 
L 189.126963 333.518391 
L 189.939006 333.240014 
L 190.345027 333.159216 
L 190.751048 333.144734 
L 190.954059 333.407318 
L 191.36008 333.387369 
L 191.563091 333.480555 
L 191.766101 333.388603 
L 192.375133 333.459431 
L 192.984165 333.455792 
L 193.390186 333.5559 
L 194.60825 333.513066 
L 195.014271 333.482593 
L 195.217281 333.638982 
L 195.420292 333.614391 
L 195.623303 333.81009 
L 195.826313 333.817756 
L 196.232334 333.609584 
L 196.841366 333.745156 
L 197.247387 333.767875 
L 197.653409 333.707596 
L 198.05943 333.734054 
L 198.668462 333.02256 
L 199.277493 332.937631 
L 199.480504 332.883432 
L 199.683514 332.691856 
L 199.886525 333.074649 
L 201.104589 333.099335 
L 201.307599 333.235088 
L 201.71362 333.259368 
L 202.119642 333.337276 
L 202.525663 333.376369 
L 202.931684 333.815158 
L 203.540716 333.776025 
L 203.743726 334.011224 
L 204.555769 333.999272 
L 204.758779 334.240336 
L 206.382864 334.1968 
L 208.615981 334.136397 
L 209.022002 334.378884 
L 210.240065 334.930847 
L 212.067161 334.88852 
L 212.473182 334.627643 
L 212.676193 334.63421 
L 212.879203 334.350099 
L 213.082214 334.322431 
L 213.285224 334.154331 
L 215.11232 334.162505 
L 215.31533 334.290951 
L 215.721352 334.271253 
L 216.533394 334.461425 
L 217.548447 334.393886 
L 217.751458 334.49671 
L 218.157479 334.470054 
L 218.5635 334.542066 
L 218.969521 335.124139 
L 219.984574 335.345017 
L 220.187585 335.573422 
L 221.405648 335.336902 
L 222.01468 335.418513 
L 223.029733 335.321521 
L 223.232744 335.094893 
L 224.044786 335.177503 
L 224.450807 335.261765 
L 224.856828 335.303515 
L 225.059839 335.303515 
L 225.668871 334.918476 
L 225.871881 334.918476 
L 226.277903 334.762559 
L 227.495966 334.785355 
L 227.698977 334.576313 
L 228.511019 334.557215 
L 228.71403 334.277029 
L 229.729083 334.357609 
L 230.135104 334.158556 
L 230.947146 334.105157 
L 231.150157 333.454203 
L 231.962199 333.301976 
L 232.36822 333.446502 
L 232.571231 333.470867 
L 232.774242 333.689097 
L 233.180263 333.540435 
L 233.383273 333.709991 
L 233.586284 333.618491 
L 233.789295 333.716151 
L 234.195316 333.64449 
L 234.601337 333.692038 
L 235.007358 333.571567 
L 235.413379 333.635619 
L 236.022411 333.636559 
L 236.225422 333.474044 
L 237.240475 333.450494 
L 237.443485 333.045064 
L 238.255528 332.90238 
L 238.458538 333.034059 
L 238.661549 332.961101 
L 238.86456 332.344747 
L 239.06757 332.311204 
L 239.270581 332.051782 
L 239.473591 332.206721 
L 240.894666 331.903953 
L 241.097676 331.67278 
L 241.300687 331.652623 
L 241.706708 331.92677 
L 242.31574 331.880132 
L 242.924771 331.392314 
L 243.330793 331.319885 
L 243.533803 330.662273 
L 243.736814 330.88855 
L 244.142835 330.2029 
L 245.76692 329.462035 
L 245.96993 329.638709 
L 246.172941 328.802481 
L 246.375952 328.802003 
L 246.578962 328.931713 
L 246.984983 328.270163 
L 247.594015 328.10342 
L 247.797026 327.997653 
L 248.000036 327.490025 
L 248.203047 327.539629 
L 249.015089 327.257123 
L 249.2181 327.530385 
L 249.421111 327.480178 
L 250.030142 326.90778 
L 250.233153 325.766038 
L 251.451217 324.928196 
L 251.654227 325.238554 
L 251.857238 325.029716 
L 252.060248 324.639578 
L 252.263259 324.503081 
L 253.075301 322.231013 
L 253.278312 322.065001 
L 253.481322 322.138947 
L 253.684333 322.073624 
L 253.887344 321.213251 
L 254.090354 320.906635 
L 254.293365 320.190771 
L 254.699386 319.579397 
L 254.902397 318.138574 
L 255.105407 317.664242 
L 255.308418 317.484394 
L 255.511428 316.798108 
L 255.91745 316.742303 
L 256.12046 316.528288 
L 256.323471 315.811958 
L 256.932503 315.645896 
L 257.338524 315.177198 
L 257.541534 314.35493 
L 257.744545 314.153101 
L 257.947556 314.351626 
L 258.353577 313.080599 
L 258.556587 313.016304 
L 258.759598 312.533673 
L 258.962609 312.460371 
L 259.165619 312.101986 
L 259.36863 312.354729 
L 259.774651 312.015386 
L 260.180672 310.970179 
L 260.586693 310.824651 
L 260.789704 310.287038 
L 260.992715 309.208527 
L 261.398736 308.592339 
L 261.804757 307.114035 
L 262.007768 306.556456 
L 262.210778 305.60331 
L 262.413789 305.566061 
L 262.616799 304.837492 
L 263.022821 304.306982 
L 263.631852 303.296703 
L 263.834863 303.426221 
L 264.037873 303.937338 
L 264.240884 303.906997 
L 264.443895 304.062013 
L 264.646905 303.925839 
L 264.849916 304.006226 
L 265.255937 303.831976 
L 265.864969 303.20779 
L 266.067979 302.67459 
L 266.474001 302.284493 
L 266.677011 302.848869 
L 266.880022 302.581898 
L 267.083032 301.329359 
L 267.286043 301.639944 
L 267.489054 301.423593 
L 268.301096 301.370018 
L 268.707117 301.700353 
L 269.113138 301.326276 
L 269.316149 300.755859 
L 269.51916 300.672282 
L 270.331202 299.412493 
L 270.534213 299.247002 
L 270.737223 300.312378 
L 270.940234 300.601284 
L 271.143244 300.587172 
L 271.346255 300.711982 
L 271.549266 300.681125 
L 271.752276 300.770074 
L 272.158297 301.288362 
L 272.361308 301.057392 
L 272.564319 301.112146 
L 273.985393 302.393182 
L 274.188403 302.08724 
L 274.391414 302.864154 
L 274.594424 302.679643 
L 274.797435 302.926745 
L 275.000446 302.995665 
L 275.203456 303.188105 
L 275.406467 304.334253 
L 275.609477 304.579713 
L 275.812488 304.228157 
L 276.015499 304.831932 
L 276.218509 304.090698 
L 276.42152 304.078169 
L 276.62453 303.78956 
L 276.827541 304.288917 
L 277.030552 303.958117 
L 277.233562 304.157558 
L 277.436573 303.96928 
L 277.639583 304.196606 
L 277.842594 304.044425 
L 278.045605 304.481217 
L 278.248615 304.251555 
L 278.451626 304.211404 
L 278.857647 305.312611 
L 279.060658 305.244603 
L 279.263668 305.44202 
L 279.466679 305.132417 
L 279.669689 305.441418 
L 280.075711 304.954425 
L 280.278721 305.226662 
L 280.684742 306.140457 
L 281.090764 306.094718 
L 281.293774 306.438821 
L 281.496785 307.71889 
L 281.699795 307.852316 
L 281.902806 307.849888 
L 282.308827 309.316144 
L 282.511838 309.64648 
L 282.714848 310.258706 
L 282.917859 310.292128 
L 283.32388 310.881679 
L 283.526891 311.12791 
L 283.729901 311.798049 
L 283.932912 311.956967 
L 284.135923 311.537275 
L 284.338933 311.539983 
L 284.744954 310.479115 
L 284.947965 310.527866 
L 285.556997 310.141187 
L 285.760007 310.090345 
L 285.963018 309.525172 
L 286.166028 309.515918 
L 286.369039 309.855307 
L 286.57205 309.691245 
L 286.77506 309.725201 
L 286.978071 309.605101 
L 287.181081 308.881418 
L 287.384092 308.632304 
L 287.587103 309.805937 
L 288.196134 309.249276 
L 288.399145 308.796735 
L 288.602156 308.828585 
L 289.008177 308.071455 
L 289.211187 307.096932 
L 289.414198 307.204956 
L 289.820219 308.011683 
L 290.02323 307.667712 
L 290.22624 307.644135 
L 290.429251 308.17288 
L 290.632262 307.960902 
L 291.038283 307.040549 
L 291.241293 306.872602 
L 291.444304 306.54725 
L 291.647315 306.573417 
L 292.053336 305.477066 
L 292.459357 304.600461 
L 292.662368 303.727369 
L 292.865378 304.11378 
L 293.068389 304.238504 
L 293.271399 303.550696 
L 293.47441 303.63985 
L 293.880431 304.047838 
L 294.083442 303.986808 
L 294.286452 302.784103 
L 294.489463 302.410542 
L 295.098495 300.392916 
L 295.504516 298.651903 
L 295.910537 296.911522 
L 296.113548 295.346885 
L 296.316558 295.189186 
L 296.519569 293.442088 
L 296.722579 293.480537 
L 296.92559 292.054859 
L 297.128601 291.429536 
L 297.331611 290.312759 
L 297.534622 290.293412 
L 298.549675 285.846555 
L 298.752685 285.367735 
L 299.158707 284.13187 
L 299.361717 283.75062 
L 299.970749 281.546945 
L 300.17376 280.57473 
L 300.37677 280.624357 
L 300.782791 279.179753 
L 301.594834 274.697119 
L 303.015908 268.629107 
L 303.421929 267.531812 
L 303.62494 266.433931 
L 303.82795 265.984353 
L 304.233972 264.046153 
L 304.436982 263.682559 
L 304.639993 263.979831 
L 304.843003 263.41086 
L 305.046014 263.557257 
L 305.655046 262.105139 
L 306.264077 260.324256 
L 306.467088 260.171932 
L 306.873109 258.736952 
L 307.07612 258.858939 
L 307.482141 257.635536 
L 307.685152 257.915626 
L 307.888162 257.480672 
L 308.091173 256.369873 
L 308.294183 256.223512 
L 308.700205 255.264884 
L 308.903215 255.258071 
L 309.106226 254.956028 
L 309.309236 253.787218 
L 309.715258 254.33506 
L 309.918268 253.961297 
L 310.324289 251.960445 
L 310.5273 251.845056 
L 310.730311 252.014472 
L 311.136332 251.131568 
L 311.542353 251.675008 
L 311.948374 250.24058 
L 312.151385 248.963963 
L 312.354395 248.825481 
L 312.557406 248.996754 
L 312.760417 248.923655 
L 313.166438 249.084255 
L 313.369448 248.556182 
L 313.572459 247.465162 
L 313.77547 247.671834 
L 314.181491 245.866615 
L 314.587512 244.168345 
L 314.790523 244.275475 
L 314.993533 243.122649 
L 315.196544 243.079514 
L 315.399554 242.603666 
L 315.602565 242.512044 
L 315.805576 242.59945 
L 316.008586 242.279849 
L 316.211597 241.534677 
L 316.617618 242.110536 
L 316.820628 242.007085 
L 317.023639 242.620187 
L 317.22665 242.172916 
L 317.42966 242.691092 
L 317.632671 242.148123 
L 317.835681 242.446074 
L 318.038692 241.265325 
L 318.647724 240.245426 
L 318.850734 240.586765 
L 319.459766 239.802268 
L 319.662777 239.320041 
L 320.068798 238.077314 
L 320.271809 237.869533 
L 320.474819 238.12753 
L 321.286862 236.927117 
L 321.489872 237.100938 
L 321.692883 237.945258 
L 321.895893 237.457363 
L 322.301915 238.771853 
L 322.504925 238.401804 
L 322.910946 239.208378 
L 323.113957 239.441419 
L 323.316968 238.748036 
L 323.519978 238.610861 
L 323.722989 238.832499 
L 323.925999 238.753949 
L 324.12901 239.24866 
L 324.332021 239.020891 
L 324.535031 239.722071 
L 324.738042 239.245612 
L 324.941052 239.336371 
L 325.347074 237.585655 
L 325.550084 237.411676 
L 325.956105 236.419071 
L 327.174169 237.700985 
L 327.58019 236.946219 
L 327.986211 237.186714 
L 328.189222 236.668177 
L 328.595243 236.737452 
L 328.798254 236.254679 
L 329.001264 236.809319 
L 329.610296 235.194176 
L 329.813307 235.911798 
L 330.016317 235.283285 
L 330.219328 235.343953 
L 330.625349 234.756695 
L 330.82836 234.758412 
L 331.843413 231.379615 
L 332.249434 229.759997 
L 333.061476 226.627853 
L 333.467497 224.421823 
L 333.670508 224.234647 
L 333.873519 223.016148 
L 334.076529 222.781375 
L 334.27954 221.55985 
L 334.48255 221.52127 
L 335.091582 219.340323 
L 335.294593 219.334956 
L 335.497603 219.801744 
L 335.903625 218.954256 
L 336.106635 219.047 
L 336.309646 218.834661 
L 336.512656 218.921212 
L 336.715667 219.304585 
L 336.918678 218.104935 
L 337.121688 218.350367 
L 337.324699 217.411191 
L 337.527709 217.210953 
L 337.933731 216.115497 
L 338.136741 216.231458 
L 338.339752 215.733102 
L 338.948783 216.19741 
L 339.151794 216.033143 
L 339.354805 215.273025 
L 339.557815 215.127976 
L 339.760826 214.262592 
L 339.963836 214.473121 
L 340.369858 214.026753 
L 340.572868 213.370902 
L 340.775879 213.153699 
L 340.978889 212.485896 
L 341.1819 212.556257 
L 341.384911 211.701262 
L 341.587921 211.568018 
L 341.993942 209.599817 
L 342.399964 208.04667 
L 343.212006 205.386129 
L 343.415017 205.08418 
L 344.43007 200.767914 
L 345.242112 196.731088 
L 345.445123 195.737872 
L 345.648133 196.08273 
L 346.663186 192.629577 
L 347.88125 185.29286 
L 348.287271 183.857307 
L 348.896303 180.559111 
L 349.302324 178.80097 
L 349.505334 177.655237 
L 349.708345 177.338949 
L 350.114366 175.8941 
L 350.520387 174.078076 
L 351.53544 171.014697 
L 351.941462 169.514626 
L 352.144472 168.846033 
L 352.347483 168.734013 
L 352.753504 169.113108 
L 352.956515 169.114196 
L 353.159525 169.269645 
L 353.362536 169.126359 
L 353.565546 168.753513 
L 353.768557 169.006742 
L 353.971568 168.981155 
L 354.174578 168.817653 
L 354.580599 169.810284 
L 354.78361 169.933189 
L 354.986621 169.507974 
L 355.189631 169.395423 
L 355.392642 169.429791 
L 355.798663 169.128191 
L 356.001674 168.46617 
L 356.407695 168.900255 
L 356.813716 168.193271 
L 357.016727 168.14861 
L 357.219737 167.98659 
L 357.422748 168.149585 
L 357.625758 167.80002 
L 357.828769 168.174935 
L 358.03178 168.160297 
L 358.23479 168.601168 
L 358.640811 167.985151 
L 359.046833 167.425839 
L 359.249843 166.650524 
L 359.452854 166.520788 
L 359.655864 165.876866 
L 359.858875 165.872999 
L 360.061885 165.669424 
L 360.264896 165.681365 
L 360.467907 164.801863 
L 360.670917 164.500722 
L 361.076938 164.660808 
L 361.68597 163.873963 
L 362.295002 163.79121 
L 362.498013 164.6196 
L 363.310055 162.917564 
L 363.513066 162.53894 
L 363.716076 162.518588 
L 363.919087 162.02058 
L 364.122097 161.992966 
L 364.325108 162.485364 
L 364.731129 162.387705 
L 364.93414 162.363973 
L 365.340161 162.880586 
L 365.543172 163.36873 
L 365.949193 163.736544 
L 366.152203 163.252126 
L 366.558225 163.442604 
L 366.761235 163.775246 
L 366.964246 164.470478 
L 367.167256 164.599779 
L 367.776288 165.419688 
L 367.979299 165.445391 
L 368.182309 165.864821 
L 368.38532 165.985141 
L 368.588331 166.262936 
L 368.791341 165.84015 
L 368.994352 165.800176 
L 369.400373 166.426649 
L 369.603384 166.372953 
L 369.806394 166.447961 
L 370.009405 166.303207 
L 370.618436 166.629971 
L 371.024458 167.030226 
L 371.227468 166.864001 
L 371.430479 166.982842 
L 371.633489 167.335725 
L 371.8365 167.124058 
L 372.445532 167.652513 
L 373.054564 167.638759 
L 373.257574 166.508488 
L 373.866606 165.767917 
L 374.069617 165.763268 
L 375.28768 161.956325 
L 375.693701 161.553801 
L 376.099723 161.251137 
L 376.302733 160.529796 
L 376.505744 160.421628 
L 377.723807 158.112195 
L 377.926818 158.109621 
L 379.144882 156.237767 
L 379.347892 156.227631 
L 379.550903 155.914656 
L 379.753913 156.049971 
L 379.956924 155.405756 
L 380.159935 155.450192 
L 380.768966 154.593795 
L 381.174987 154.565266 
L 381.377998 153.64616 
L 381.581009 153.473494 
L 381.784019 152.935273 
L 381.98703 152.804344 
L 382.19004 152.181905 
L 382.393051 152.147806 
L 382.596062 151.800474 
L 382.799072 152.033477 
L 383.002083 151.28216 
L 383.408104 150.870974 
L 383.814125 150.533814 
L 384.423157 148.712941 
L 384.626168 148.347325 
L 384.829178 147.358574 
L 385.235199 146.53668 
L 386.047242 143.228297 
L 387.062295 139.584442 
L 387.265305 139.162372 
L 388.077348 136.26803 
L 389.295411 133.072671 
L 389.498422 132.815427 
L 390.310464 130.409459 
L 390.513475 129.875881 
L 390.919496 128.164435 
L 392.543581 123.519554 
L 392.746591 123.151434 
L 392.949602 122.442746 
L 393.152613 122.168508 
L 393.355623 121.64978 
L 393.558634 120.709571 
L 393.761644 120.861513 
L 394.370676 119.768366 
L 395.182719 117.83774 
L 395.385729 117.473568 
L 395.58874 116.61535 
L 395.79175 116.239925 
L 395.994761 116.101525 
L 396.603793 114.999202 
L 398.024867 112.251201 
L 398.227878 112.215645 
L 398.430888 111.554697 
L 398.633899 111.371213 
L 399.03992 110.230693 
L 400.460994 107.578601 
L 400.664005 107.580345 
L 401.070026 106.567144 
L 401.273037 106.573921 
L 401.476047 106.079417 
L 401.679058 105.207631 
L 402.085079 104.627278 
L 402.288089 104.614641 
L 402.694111 104.211175 
L 403.303142 102.830111 
L 403.709164 102.722736 
L 403.912174 102.71276 
L 404.115185 102.225383 
L 404.521206 101.84642 
L 405.333248 101.618723 
L 405.73927 101.353191 
L 406.348301 101.66657 
L 406.551312 101.63772 
L 407.160344 100.980418 
L 407.363354 101.238146 
L 407.769376 100.672143 
L 407.972386 100.299118 
L 408.784429 100.12485 
L 408.987439 100.014042 
L 409.19045 100.130665 
L 409.39346 99.711344 
L 409.596471 99.584748 
L 409.799482 99.155255 
L 410.002492 99.238117 
L 410.205503 99.16853 
L 410.408513 98.947956 
L 410.611524 98.901247 
L 410.814535 99.046315 
L 411.423566 98.631464 
L 412.235609 97.168224 
L 412.438619 96.438137 
L 412.844641 95.91887 
L 413.047651 95.996784 
L 413.250662 95.843766 
L 413.453672 96.123987 
L 413.859693 96.07894 
L 414.062704 96.156577 
L 414.874746 96.052709 
L 415.077757 96.050417 
L 415.280768 96.180289 
L 415.483778 96.164659 
L 415.686789 96.274935 
L 415.889799 96.099793 
L 416.295821 96.414063 
L 418.325927 97.724974 
L 418.528937 97.906253 
L 418.731948 97.813995 
L 418.934958 98.013225 
L 419.137969 97.904088 
L 419.34098 98.142824 
L 419.54399 98.198367 
L 419.747001 98.109388 
L 420.356033 98.180932 
L 420.762054 97.986603 
L 420.965064 98.064441 
L 421.371086 97.694984 
L 421.980117 97.755484 
L 422.183128 97.831937 
L 422.386139 98.127501 
L 422.589149 98.099301 
L 422.79216 97.880044 
L 422.99517 97.935165 
L 423.198181 98.219572 
L 423.401192 98.195976 
L 423.604202 98.612344 
L 424.010223 98.533225 
L 424.213234 98.827873 
L 424.416244 98.763311 
L 425.228287 99.364978 
L 425.431297 99.477016 
L 425.837319 100.043608 
L 426.649361 100.594075 
L 427.055382 100.876498 
L 427.664414 101.845131 
L 427.867425 101.902249 
L 428.070435 102.098527 
L 428.273446 102.08386 
L 428.476456 102.325738 
L 428.679467 102.389637 
L 428.882478 102.657057 
L 429.69452 102.784154 
L 430.100541 103.515435 
L 430.303552 104.185782 
L 430.709573 104.520588 
L 431.115594 105.248164 
L 433.1457 108.536246 
L 433.754732 108.997209 
L 434.160753 108.677444 
L 434.363764 108.687813 
L 434.972795 109.470087 
L 436.39387 111.533739 
L 436.59688 111.55821 
L 436.799891 111.710772 
L 437.002901 111.562031 
L 437.205912 111.554272 
L 437.611933 111.722206 
L 438.017954 111.549642 
L 438.220965 111.599688 
L 438.423976 111.441487 
L 438.829997 111.329125 
L 439.033007 111.14064 
L 440.657092 111.436614 
L 441.672145 112.319799 
L 442.078166 112.952453 
L 443.499241 114.241551 
L 444.108272 113.699051 
L 444.311283 113.606105 
L 444.514294 113.641933 
L 444.717304 113.317474 
L 445.732357 113.353994 
L 445.935368 113.336005 
L 446.544399 112.865613 
L 446.74741 112.831374 
L 446.950421 112.634918 
L 447.153431 112.668462 
L 447.559452 112.379279 
L 447.965474 112.446077 
L 448.371495 112.398521 
L 448.777516 112.530307 
L 449.386548 112.279954 
L 449.792569 112.351484 
L 449.99558 112.180841 
L 450.19859 112.192725 
L 451.010633 111.792165 
L 451.619664 111.386376 
L 451.822675 110.9952 
L 452.025686 110.91231 
L 452.431707 110.518947 
L 452.837728 110.569122 
L 453.040739 110.366941 
L 453.243749 110.371438 
L 453.44676 110.538263 
L 454.664823 110.217972 
L 454.867834 109.950897 
L 455.070845 109.903191 
L 456.085897 108.618585 
L 457.10095 107.847577 
L 457.303961 107.610396 
L 457.506972 107.607533 
L 457.912993 107.330634 
L 458.116003 107.011559 
L 458.319014 106.918823 
L 458.725035 106.920505 
L 459.943099 106.158871 
L 460.755141 106.154647 
L 461.161162 106.020687 
L 462.176215 105.172516 
L 463.59729 103.184217 
L 464.003311 102.707372 
L 464.815353 102.610923 
L 466.033417 102.188598 
L 466.845459 102.334361 
L 467.04847 102.492584 
L 467.25148 102.397135 
L 467.657501 102.505172 
L 468.266533 102.436146 
L 468.469544 102.348092 
L 468.875565 102.037766 
L 469.484597 101.918576 
L 469.687607 101.986195 
L 470.70266 101.78745 
L 471.108682 101.73068 
L 472.123735 101.390576 
L 472.935777 101.184749 
L 474.559862 100.244134 
L 476.386957 98.79844 
L 477.40201 98.87542 
L 477.808031 99.264913 
L 478.214052 99.255315 
L 478.620074 99.678794 
L 479.026095 99.785387 
L 480.244158 99.526007 
L 481.665233 98.518783 
L 482.274264 98.249876 
L 482.883296 98.414847 
L 483.289317 98.727462 
L 483.695339 98.869802 
L 484.507381 98.728318 
L 485.116413 98.323601 
L 485.725445 98.113237 
L 485.928455 98.001359 
L 486.334476 98.011358 
L 488.567593 96.838996 
L 488.770603 96.853987 
L 488.973614 96.736948 
L 489.176625 96.768182 
L 489.785656 96.397273 
L 491.612752 95.252697 
L 492.221784 95.141814 
L 492.627805 94.972666 
L 493.236837 94.984372 
L 493.642858 94.936683 
L 495.469953 95.789938 
L 495.672964 96.023702 
L 497.297049 96.352694 
L 497.70307 96.273267 
L 498.109091 95.925421 
L 498.109091 95.925421 
" clip-path="url(#p56c4358e0d)" style="fill: none; stroke: #ff0000; stroke-linecap: round"/>
   </g>
   <g id="patch_3">
    <path d="M 72 352.44 
L 72 47.52 
" style="fill: none"/>
   </g>
   <g id="patch_4">
    <path d="M 518.4 352.44 
L 518.4 47.52 
" style="fill: none"/>
   </g>
   <g id="patch_5">
    <path d="M 72 352.44 
L 518.4 352.44 
" style="fill: none"/>
   </g>
   <g id="patch_6">
    <path d="M 72 47.52 
L 518.4 47.52 
" style="fill: none"/>
   </g>
   <g id="legend_1">
    <g id="line2d_37">
     <path d="M 81 60.177812 
L 91 60.177812 
L 101 60.177812 
" style="fill: none; stroke: #008080; stroke-width: 1.5; stroke-linecap: round"/>
    </g>
    <g id="text_20">
     <!-- Modified RF 2 -->
     <g style="fill: #262626" transform="translate(109 63.677812) scale(0.1 -0.1)">
      <defs>
       <path id="ArialMT-4d" d="M 475 0 
L 475 4581 
L 1388 4581 
L 2472 1338 
Q 2622 884 2691 659 
Q 2769 909 2934 1394 
L 4031 4581 
L 4847 4581 
L 4847 0 
L 4263 0 
L 4263 3834 
L 2931 0 
L 2384 0 
L 1059 3900 
L 1059 0 
L 475 0 
z
" transform="scale(0.015625)"/>
       <path id="ArialMT-64" d="M 2575 0 
L 2575 419 
Q 2259 -75 1647 -75 
Q 1250 -75 917 144 
Q 584 363 401 755 
Q 219 1147 219 1656 
Q 219 2153 384 2558 
Q 550 2963 881 3178 
Q 1213 3394 1622 3394 
Q 1922 3394 2156 3267 
Q 2391 3141 2538 2938 
L 2538 4581 
L 3097 4581 
L 3097 0 
L 2575 0 
z
M 797 1656 
Q 797 1019 1065 703 
Q 1334 388 1700 388 
Q 2069 388 2326 689 
Q 2584 991 2584 1609 
Q 2584 2291 2321 2609 
Q 2059 2928 1675 2928 
Q 1300 2928 1048 2622 
Q 797 2316 797 1656 
z
" transform="scale(0.015625)"/>
       <path id="ArialMT-66" d="M 556 0 
L 556 2881 
L 59 2881 
L 59 3319 
L 556 3319 
L 556 3672 
Q 556 4006 616 4169 
Q 697 4388 901 4523 
Q 1106 4659 1475 4659 
Q 1713 4659 2000 4603 
L 1916 4113 
Q 1741 4144 1584 4144 
Q 1328 4144 1222 4034 
Q 1116 3925 1116 3625 
L 1116 3319 
L 1763 3319 
L 1763 2881 
L 1116 2881 
L 1116 0 
L 556 0 
z
" transform="scale(0.015625)"/>
       <path id="ArialMT-46" d="M 525 0 
L 525 4581 
L 3616 4581 
L 3616 4041 
L 1131 4041 
L 1131 2622 
L 3281 2622 
L 3281 2081 
L 1131 2081 
L 1131 0 
L 525 0 
z
" transform="scale(0.015625)"/>
      </defs>
      <use xlink:href="#ArialMT-4d"/>
      <use xlink:href="#ArialMT-6f" x="83.300781"/>
      <use xlink:href="#ArialMT-64" x="138.916016"/>
      <use xlink:href="#ArialMT-69" x="194.53125"/>
      <use xlink:href="#ArialMT-66" x="216.748047"/>
      <use xlink:href="#ArialMT-69" x="244.53125"/>
      <use xlink:href="#ArialMT-65" x="266.748047"/>
      <use xlink:href="#ArialMT-64" x="322.363281"/>
      <use xlink:href="#ArialMT-20" x="377.978516"/>
      <use xlink:href="#ArialMT-52" x="405.761719"/>
      <use xlink:href="#ArialMT-46" x="477.978516"/>
      <use xlink:href="#ArialMT-20" x="539.0625"/>
      <use xlink:href="#ArialMT-32" x="566.845703"/>
     </g>
    </g>
    <g id="line2d_38">
     <path d="M 81 74.352812 
L 91 74.352812 
L 101 74.352812 
" style="fill: none; stroke: #ff0000; stroke-linecap: round"/>
    </g>
    <g id="text_21">
     <!-- Moving Average 100 -->
     <g style="fill: #262626" transform="translate(109 77.852812) scale(0.1 -0.1)">
      <defs>
       <path id="ArialMT-76" d="M 1344 0 
L 81 3319 
L 675 3319 
L 1388 1331 
Q 1503 1009 1600 663 
Q 1675 925 1809 1294 
L 2547 3319 
L 3125 3319 
L 1869 0 
L 1344 0 
z
" transform="scale(0.015625)"/>
       <path id="ArialMT-67" d="M 319 -275 
L 866 -356 
Q 900 -609 1056 -725 
Q 1266 -881 1628 -881 
Q 2019 -881 2231 -725 
Q 2444 -569 2519 -288 
Q 2563 -116 2559 434 
Q 2191 0 1641 0 
Q 956 0 581 494 
Q 206 988 206 1678 
Q 206 2153 378 2554 
Q 550 2956 876 3175 
Q 1203 3394 1644 3394 
Q 2231 3394 2613 2919 
L 2613 3319 
L 3131 3319 
L 3131 450 
Q 3131 -325 2973 -648 
Q 2816 -972 2473 -1159 
Q 2131 -1347 1631 -1347 
Q 1038 -1347 672 -1080 
Q 306 -813 319 -275 
z
M 784 1719 
Q 784 1066 1043 766 
Q 1303 466 1694 466 
Q 2081 466 2343 764 
Q 2606 1063 2606 1700 
Q 2606 2309 2336 2618 
Q 2066 2928 1684 2928 
Q 1309 2928 1046 2623 
Q 784 2319 784 1719 
z
" transform="scale(0.015625)"/>
       <path id="ArialMT-41" d="M -9 0 
L 1750 4581 
L 2403 4581 
L 4278 0 
L 3588 0 
L 3053 1388 
L 1138 1388 
L 634 0 
L -9 0 
z
M 1313 1881 
L 2866 1881 
L 2388 3150 
Q 2169 3728 2063 4100 
Q 1975 3659 1816 3225 
L 1313 1881 
z
" transform="scale(0.015625)"/>
      </defs>
      <use xlink:href="#ArialMT-4d"/>
      <use xlink:href="#ArialMT-6f" x="83.300781"/>
      <use xlink:href="#ArialMT-76" x="138.916016"/>
      <use xlink:href="#ArialMT-69" x="188.916016"/>
      <use xlink:href="#ArialMT-6e" x="211.132812"/>
      <use xlink:href="#ArialMT-67" x="266.748047"/>
      <use xlink:href="#ArialMT-20" x="322.363281"/>
      <use xlink:href="#ArialMT-41" x="344.646484"/>
      <use xlink:href="#ArialMT-76" x="409.595703"/>
      <use xlink:href="#ArialMT-65" x="459.595703"/>
      <use xlink:href="#ArialMT-72" x="515.210938"/>
      <use xlink:href="#ArialMT-61" x="548.511719"/>
      <use xlink:href="#ArialMT-67" x="604.126953"/>
      <use xlink:href="#ArialMT-65" x="659.742188"/>
      <use xlink:href="#ArialMT-20" x="715.357422"/>
      <use xlink:href="#ArialMT-31" x="743.140625"/>
      <use xlink:href="#ArialMT-30" x="798.755859"/>
      <use xlink:href="#ArialMT-30" x="854.371094"/>
     </g>
    </g>
   </g>
  </g>
 </g>
 <defs>
  <clipPath id="p56c4358e0d">
   <rect x="72" y="47.52" width="446.4" height="304.92"/>
  </clipPath>
 </defs>
</svg>
