<?xml version="1.0" encoding="utf-8" standalone="no"?>
<!DOCTYPE svg PUBLIC "-//W3C//DTD SVG 1.1//EN"
  "http://www.w3.org/Graphics/SVG/1.1/DTD/svg11.dtd">
<svg xmlns:xlink="http://www.w3.org/1999/xlink" width="576pt" height="396pt" viewBox="0 0 576 396" xmlns="http://www.w3.org/2000/svg" version="1.1">
 <metadata>
  <rdf:RDF xmlns:dc="http://purl.org/dc/elements/1.1/" xmlns:cc="http://creativecommons.org/ns#" xmlns:rdf="http://www.w3.org/1999/02/22-rdf-syntax-ns#">
   <cc:Work>
    <dc:type rdf:resource="http://purl.org/dc/dcmitype/StillImage"/>
    <dc:date>2023-10-10T02:26:20.426725</dc:date>
    <dc:format>image/svg+xml</dc:format>
    <dc:creator>
     <cc:Agent>
      <dc:title>Matplotlib v3.7.2, https://matplotlib.org/</dc:title>
     </cc:Agent>
    </dc:creator>
   </cc:Work>
  </rdf:RDF>
 </metadata>
 <defs>
  <style type="text/css">*{stroke-linejoin: round; stroke-linecap: butt}</style>
 </defs>
 <g id="figure_1">
  <g id="patch_1">
   <path d="M 0 396 
L 576 396 
L 576 0 
L 0 0 
z
" style="fill: #ffffff"/>
  </g>
  <g id="axes_1">
   <g id="patch_2">
    <path d="M 72 352.44 
L 518.4 352.44 
L 518.4 47.52 
L 72 47.52 
z
" style="fill: #eaeaf2"/>
   </g>
   <g id="matplotlib.axis_1">
    <g id="xtick_1">
     <g id="line2d_1">
      <path d="M 92.290909 352.44 
L 92.290909 47.52 
" clip-path="url(#p239351971b)" style="fill: none; stroke: #ffffff; stroke-linecap: round"/>
     </g>
     <g id="line2d_2"/>
     <g id="text_1">
      <!-- 0 -->
      <g style="fill: #262626" transform="translate(89.51044 366.597813) scale(0.1 -0.1)">
       <defs>
        <path id="ArialMT-30" d="M 266 2259 
Q 266 3072 433 3567 
Q 600 4063 929 4331 
Q 1259 4600 1759 4600 
Q 2128 4600 2406 4451 
Q 2684 4303 2865 4023 
Q 3047 3744 3150 3342 
Q 3253 2941 3253 2259 
Q 3253 1453 3087 958 
Q 2922 463 2592 192 
Q 2263 -78 1759 -78 
Q 1097 -78 719 397 
Q 266 969 266 2259 
z
M 844 2259 
Q 844 1131 1108 757 
Q 1372 384 1759 384 
Q 2147 384 2411 759 
Q 2675 1134 2675 2259 
Q 2675 3391 2411 3762 
Q 2147 4134 1753 4134 
Q 1366 4134 1134 3806 
Q 844 3388 844 2259 
z
" transform="scale(0.015625)"/>
       </defs>
       <use xlink:href="#ArialMT-30"/>
      </g>
     </g>
    </g>
    <g id="xtick_2">
     <g id="line2d_3">
      <path d="M 143.043558 352.44 
L 143.043558 47.52 
" clip-path="url(#p239351971b)" style="fill: none; stroke: #ffffff; stroke-linecap: round"/>
     </g>
     <g id="line2d_4"/>
     <g id="text_2">
      <!-- 250 -->
      <g style="fill: #262626" transform="translate(134.702152 366.597813) scale(0.1 -0.1)">
       <defs>
        <path id="ArialMT-32" d="M 3222 541 
L 3222 0 
L 194 0 
Q 188 203 259 391 
Q 375 700 629 1000 
Q 884 1300 1366 1694 
Q 2113 2306 2375 2664 
Q 2638 3022 2638 3341 
Q 2638 3675 2398 3904 
Q 2159 4134 1775 4134 
Q 1369 4134 1125 3890 
Q 881 3647 878 3216 
L 300 3275 
Q 359 3922 746 4261 
Q 1134 4600 1788 4600 
Q 2447 4600 2831 4234 
Q 3216 3869 3216 3328 
Q 3216 3053 3103 2787 
Q 2991 2522 2730 2228 
Q 2469 1934 1863 1422 
Q 1356 997 1212 845 
Q 1069 694 975 541 
L 3222 541 
z
" transform="scale(0.015625)"/>
        <path id="ArialMT-35" d="M 266 1200 
L 856 1250 
Q 922 819 1161 601 
Q 1400 384 1738 384 
Q 2144 384 2425 690 
Q 2706 997 2706 1503 
Q 2706 1984 2436 2262 
Q 2166 2541 1728 2541 
Q 1456 2541 1237 2417 
Q 1019 2294 894 2097 
L 366 2166 
L 809 4519 
L 3088 4519 
L 3088 3981 
L 1259 3981 
L 1013 2750 
Q 1425 3038 1878 3038 
Q 2478 3038 2890 2622 
Q 3303 2206 3303 1553 
Q 3303 931 2941 478 
Q 2500 -78 1738 -78 
Q 1113 -78 717 272 
Q 322 622 266 1200 
z
" transform="scale(0.015625)"/>
       </defs>
       <use xlink:href="#ArialMT-32"/>
       <use xlink:href="#ArialMT-35" x="55.615234"/>
       <use xlink:href="#ArialMT-30" x="111.230469"/>
      </g>
     </g>
    </g>
    <g id="xtick_3">
     <g id="line2d_5">
      <path d="M 193.796207 352.44 
L 193.796207 47.52 
" clip-path="url(#p239351971b)" style="fill: none; stroke: #ffffff; stroke-linecap: round"/>
     </g>
     <g id="line2d_6"/>
     <g id="text_3">
      <!-- 500 -->
      <g style="fill: #262626" transform="translate(185.454801 366.597813) scale(0.1 -0.1)">
       <use xlink:href="#ArialMT-35"/>
       <use xlink:href="#ArialMT-30" x="55.615234"/>
       <use xlink:href="#ArialMT-30" x="111.230469"/>
      </g>
     </g>
    </g>
    <g id="xtick_4">
     <g id="line2d_7">
      <path d="M 244.548856 352.44 
L 244.548856 47.52 
" clip-path="url(#p239351971b)" style="fill: none; stroke: #ffffff; stroke-linecap: round"/>
     </g>
     <g id="line2d_8"/>
     <g id="text_4">
      <!-- 750 -->
      <g style="fill: #262626" transform="translate(236.20745 366.597813) scale(0.1 -0.1)">
       <defs>
        <path id="ArialMT-37" d="M 303 3981 
L 303 4522 
L 3269 4522 
L 3269 4084 
Q 2831 3619 2401 2847 
Q 1972 2075 1738 1259 
Q 1569 684 1522 0 
L 944 0 
Q 953 541 1156 1306 
Q 1359 2072 1739 2783 
Q 2119 3494 2547 3981 
L 303 3981 
z
" transform="scale(0.015625)"/>
       </defs>
       <use xlink:href="#ArialMT-37"/>
       <use xlink:href="#ArialMT-35" x="55.615234"/>
       <use xlink:href="#ArialMT-30" x="111.230469"/>
      </g>
     </g>
    </g>
    <g id="xtick_5">
     <g id="line2d_9">
      <path d="M 295.301505 352.44 
L 295.301505 47.52 
" clip-path="url(#p239351971b)" style="fill: none; stroke: #ffffff; stroke-linecap: round"/>
     </g>
     <g id="line2d_10"/>
     <g id="text_5">
      <!-- 1000 -->
      <g style="fill: #262626" transform="translate(284.17963 366.597813) scale(0.1 -0.1)">
       <defs>
        <path id="ArialMT-31" d="M 2384 0 
L 1822 0 
L 1822 3584 
Q 1619 3391 1289 3197 
Q 959 3003 697 2906 
L 697 3450 
Q 1169 3672 1522 3987 
Q 1875 4303 2022 4600 
L 2384 4600 
L 2384 0 
z
" transform="scale(0.015625)"/>
       </defs>
       <use xlink:href="#ArialMT-31"/>
       <use xlink:href="#ArialMT-30" x="55.615234"/>
       <use xlink:href="#ArialMT-30" x="111.230469"/>
       <use xlink:href="#ArialMT-30" x="166.845703"/>
      </g>
     </g>
    </g>
    <g id="xtick_6">
     <g id="line2d_11">
      <path d="M 346.054154 352.44 
L 346.054154 47.52 
" clip-path="url(#p239351971b)" style="fill: none; stroke: #ffffff; stroke-linecap: round"/>
     </g>
     <g id="line2d_12"/>
     <g id="text_6">
      <!-- 1250 -->
      <g style="fill: #262626" transform="translate(334.932279 366.597813) scale(0.1 -0.1)">
       <use xlink:href="#ArialMT-31"/>
       <use xlink:href="#ArialMT-32" x="55.615234"/>
       <use xlink:href="#ArialMT-35" x="111.230469"/>
       <use xlink:href="#ArialMT-30" x="166.845703"/>
      </g>
     </g>
    </g>
    <g id="xtick_7">
     <g id="line2d_13">
      <path d="M 396.806803 352.44 
L 396.806803 47.52 
" clip-path="url(#p239351971b)" style="fill: none; stroke: #ffffff; stroke-linecap: round"/>
     </g>
     <g id="line2d_14"/>
     <g id="text_7">
      <!-- 1500 -->
      <g style="fill: #262626" transform="translate(385.684928 366.597813) scale(0.1 -0.1)">
       <use xlink:href="#ArialMT-31"/>
       <use xlink:href="#ArialMT-35" x="55.615234"/>
       <use xlink:href="#ArialMT-30" x="111.230469"/>
       <use xlink:href="#ArialMT-30" x="166.845703"/>
      </g>
     </g>
    </g>
    <g id="xtick_8">
     <g id="line2d_15">
      <path d="M 447.559452 352.44 
L 447.559452 47.52 
" clip-path="url(#p239351971b)" style="fill: none; stroke: #ffffff; stroke-linecap: round"/>
     </g>
     <g id="line2d_16"/>
     <g id="text_8">
      <!-- 1750 -->
      <g style="fill: #262626" transform="translate(436.437577 366.597813) scale(0.1 -0.1)">
       <use xlink:href="#ArialMT-31"/>
       <use xlink:href="#ArialMT-37" x="55.615234"/>
       <use xlink:href="#ArialMT-35" x="111.230469"/>
       <use xlink:href="#ArialMT-30" x="166.845703"/>
      </g>
     </g>
    </g>
    <g id="xtick_9">
     <g id="line2d_17">
      <path d="M 498.312102 352.44 
L 498.312102 47.52 
" clip-path="url(#p239351971b)" style="fill: none; stroke: #ffffff; stroke-linecap: round"/>
     </g>
     <g id="line2d_18"/>
     <g id="text_9">
      <!-- 2000 -->
      <g style="fill: #262626" transform="translate(487.190227 366.597813) scale(0.1 -0.1)">
       <use xlink:href="#ArialMT-32"/>
       <use xlink:href="#ArialMT-30" x="55.615234"/>
       <use xlink:href="#ArialMT-30" x="111.230469"/>
       <use xlink:href="#ArialMT-30" x="166.845703"/>
      </g>
     </g>
    </g>
    <g id="text_10">
     <!-- Iteration -->
     <g style="fill: #262626" transform="translate(275.328672 380.458906) scale(0.11 -0.11)">
      <defs>
       <path id="ArialMT-49" d="M 597 0 
L 597 4581 
L 1203 4581 
L 1203 0 
L 597 0 
z
" transform="scale(0.015625)"/>
       <path id="ArialMT-74" d="M 1650 503 
L 1731 6 
Q 1494 -44 1306 -44 
Q 1000 -44 831 53 
Q 663 150 594 308 
Q 525 466 525 972 
L 525 2881 
L 113 2881 
L 113 3319 
L 525 3319 
L 525 4141 
L 1084 4478 
L 1084 3319 
L 1650 3319 
L 1650 2881 
L 1084 2881 
L 1084 941 
Q 1084 700 1114 631 
Q 1144 563 1211 522 
Q 1278 481 1403 481 
Q 1497 481 1650 503 
z
" transform="scale(0.015625)"/>
       <path id="ArialMT-65" d="M 2694 1069 
L 3275 997 
Q 3138 488 2766 206 
Q 2394 -75 1816 -75 
Q 1088 -75 661 373 
Q 234 822 234 1631 
Q 234 2469 665 2931 
Q 1097 3394 1784 3394 
Q 2450 3394 2872 2941 
Q 3294 2488 3294 1666 
Q 3294 1616 3291 1516 
L 816 1516 
Q 847 969 1125 678 
Q 1403 388 1819 388 
Q 2128 388 2347 550 
Q 2566 713 2694 1069 
z
M 847 1978 
L 2700 1978 
Q 2663 2397 2488 2606 
Q 2219 2931 1791 2931 
Q 1403 2931 1139 2672 
Q 875 2413 847 1978 
z
" transform="scale(0.015625)"/>
       <path id="ArialMT-72" d="M 416 0 
L 416 3319 
L 922 3319 
L 922 2816 
Q 1116 3169 1280 3281 
Q 1444 3394 1641 3394 
Q 1925 3394 2219 3213 
L 2025 2691 
Q 1819 2813 1613 2813 
Q 1428 2813 1281 2702 
Q 1134 2591 1072 2394 
Q 978 2094 978 1738 
L 978 0 
L 416 0 
z
" transform="scale(0.015625)"/>
       <path id="ArialMT-61" d="M 2588 409 
Q 2275 144 1986 34 
Q 1697 -75 1366 -75 
Q 819 -75 525 192 
Q 231 459 231 875 
Q 231 1119 342 1320 
Q 453 1522 633 1644 
Q 813 1766 1038 1828 
Q 1203 1872 1538 1913 
Q 2219 1994 2541 2106 
Q 2544 2222 2544 2253 
Q 2544 2597 2384 2738 
Q 2169 2928 1744 2928 
Q 1347 2928 1158 2789 
Q 969 2650 878 2297 
L 328 2372 
Q 403 2725 575 2942 
Q 747 3159 1072 3276 
Q 1397 3394 1825 3394 
Q 2250 3394 2515 3294 
Q 2781 3194 2906 3042 
Q 3031 2891 3081 2659 
Q 3109 2516 3109 2141 
L 3109 1391 
Q 3109 606 3145 398 
Q 3181 191 3288 0 
L 2700 0 
Q 2613 175 2588 409 
z
M 2541 1666 
Q 2234 1541 1622 1453 
Q 1275 1403 1131 1340 
Q 988 1278 909 1158 
Q 831 1038 831 891 
Q 831 666 1001 516 
Q 1172 366 1500 366 
Q 1825 366 2078 508 
Q 2331 650 2450 897 
Q 2541 1088 2541 1459 
L 2541 1666 
z
" transform="scale(0.015625)"/>
       <path id="ArialMT-69" d="M 425 3934 
L 425 4581 
L 988 4581 
L 988 3934 
L 425 3934 
z
M 425 0 
L 425 3319 
L 988 3319 
L 988 0 
L 425 0 
z
" transform="scale(0.015625)"/>
       <path id="ArialMT-6f" d="M 213 1659 
Q 213 2581 725 3025 
Q 1153 3394 1769 3394 
Q 2453 3394 2887 2945 
Q 3322 2497 3322 1706 
Q 3322 1066 3130 698 
Q 2938 331 2570 128 
Q 2203 -75 1769 -75 
Q 1072 -75 642 372 
Q 213 819 213 1659 
z
M 791 1659 
Q 791 1022 1069 705 
Q 1347 388 1769 388 
Q 2188 388 2466 706 
Q 2744 1025 2744 1678 
Q 2744 2294 2464 2611 
Q 2184 2928 1769 2928 
Q 1347 2928 1069 2612 
Q 791 2297 791 1659 
z
" transform="scale(0.015625)"/>
       <path id="ArialMT-6e" d="M 422 0 
L 422 3319 
L 928 3319 
L 928 2847 
Q 1294 3394 1984 3394 
Q 2284 3394 2536 3286 
Q 2788 3178 2913 3003 
Q 3038 2828 3088 2588 
Q 3119 2431 3119 2041 
L 3119 0 
L 2556 0 
L 2556 2019 
Q 2556 2363 2490 2533 
Q 2425 2703 2258 2804 
Q 2091 2906 1866 2906 
Q 1506 2906 1245 2678 
Q 984 2450 984 1813 
L 984 0 
L 422 0 
z
" transform="scale(0.015625)"/>
      </defs>
      <use xlink:href="#ArialMT-49"/>
      <use xlink:href="#ArialMT-74" x="27.783203"/>
      <use xlink:href="#ArialMT-65" x="55.566406"/>
      <use xlink:href="#ArialMT-72" x="111.181641"/>
      <use xlink:href="#ArialMT-61" x="144.482422"/>
      <use xlink:href="#ArialMT-74" x="200.097656"/>
      <use xlink:href="#ArialMT-69" x="227.880859"/>
      <use xlink:href="#ArialMT-6f" x="250.097656"/>
      <use xlink:href="#ArialMT-6e" x="305.712891"/>
     </g>
    </g>
   </g>
   <g id="matplotlib.axis_2">
    <g id="ytick_1">
     <g id="line2d_19">
      <path d="M 72 339.251022 
L 518.4 339.251022 
" clip-path="url(#p239351971b)" style="fill: none; stroke: #ffffff; stroke-linecap: round"/>
     </g>
     <g id="line2d_20"/>
     <g id="text_11">
      <!-- 0 -->
      <g style="fill: #262626" transform="translate(59.439062 342.829929) scale(0.1 -0.1)">
       <use xlink:href="#ArialMT-30"/>
      </g>
     </g>
    </g>
    <g id="ytick_2">
     <g id="line2d_21">
      <path d="M 72 290.060621 
L 518.4 290.060621 
" clip-path="url(#p239351971b)" style="fill: none; stroke: #ffffff; stroke-linecap: round"/>
     </g>
     <g id="line2d_22"/>
     <g id="text_12">
      <!-- 1 -->
      <g style="fill: #262626" transform="translate(59.439062 293.639528) scale(0.1 -0.1)">
       <use xlink:href="#ArialMT-31"/>
      </g>
     </g>
    </g>
    <g id="ytick_3">
     <g id="line2d_23">
      <path d="M 72 240.87022 
L 518.4 240.87022 
" clip-path="url(#p239351971b)" style="fill: none; stroke: #ffffff; stroke-linecap: round"/>
     </g>
     <g id="line2d_24"/>
     <g id="text_13">
      <!-- 2 -->
      <g style="fill: #262626" transform="translate(59.439062 244.449127) scale(0.1 -0.1)">
       <use xlink:href="#ArialMT-32"/>
      </g>
     </g>
    </g>
    <g id="ytick_4">
     <g id="line2d_25">
      <path d="M 72 191.679819 
L 518.4 191.679819 
" clip-path="url(#p239351971b)" style="fill: none; stroke: #ffffff; stroke-linecap: round"/>
     </g>
     <g id="line2d_26"/>
     <g id="text_14">
      <!-- 3 -->
      <g style="fill: #262626" transform="translate(59.439062 195.258726) scale(0.1 -0.1)">
       <defs>
        <path id="ArialMT-33" d="M 269 1209 
L 831 1284 
Q 928 806 1161 595 
Q 1394 384 1728 384 
Q 2125 384 2398 659 
Q 2672 934 2672 1341 
Q 2672 1728 2419 1979 
Q 2166 2231 1775 2231 
Q 1616 2231 1378 2169 
L 1441 2663 
Q 1497 2656 1531 2656 
Q 1891 2656 2178 2843 
Q 2466 3031 2466 3422 
Q 2466 3731 2256 3934 
Q 2047 4138 1716 4138 
Q 1388 4138 1169 3931 
Q 950 3725 888 3313 
L 325 3413 
Q 428 3978 793 4289 
Q 1159 4600 1703 4600 
Q 2078 4600 2393 4439 
Q 2709 4278 2876 4000 
Q 3044 3722 3044 3409 
Q 3044 3113 2884 2869 
Q 2725 2625 2413 2481 
Q 2819 2388 3044 2092 
Q 3269 1797 3269 1353 
Q 3269 753 2831 336 
Q 2394 -81 1725 -81 
Q 1122 -81 723 278 
Q 325 638 269 1209 
z
" transform="scale(0.015625)"/>
       </defs>
       <use xlink:href="#ArialMT-33"/>
      </g>
     </g>
    </g>
    <g id="ytick_5">
     <g id="line2d_27">
      <path d="M 72 142.489418 
L 518.4 142.489418 
" clip-path="url(#p239351971b)" style="fill: none; stroke: #ffffff; stroke-linecap: round"/>
     </g>
     <g id="line2d_28"/>
     <g id="text_15">
      <!-- 4 -->
      <g style="fill: #262626" transform="translate(59.439062 146.068325) scale(0.1 -0.1)">
       <defs>
        <path id="ArialMT-34" d="M 2069 0 
L 2069 1097 
L 81 1097 
L 81 1613 
L 2172 4581 
L 2631 4581 
L 2631 1613 
L 3250 1613 
L 3250 1097 
L 2631 1097 
L 2631 0 
L 2069 0 
z
M 2069 1613 
L 2069 3678 
L 634 1613 
L 2069 1613 
z
" transform="scale(0.015625)"/>
       </defs>
       <use xlink:href="#ArialMT-34"/>
      </g>
     </g>
    </g>
    <g id="ytick_6">
     <g id="line2d_29">
      <path d="M 72 93.299017 
L 518.4 93.299017 
" clip-path="url(#p239351971b)" style="fill: none; stroke: #ffffff; stroke-linecap: round"/>
     </g>
     <g id="line2d_30"/>
     <g id="text_16">
      <!-- 5 -->
      <g style="fill: #262626" transform="translate(59.439062 96.877924) scale(0.1 -0.1)">
       <use xlink:href="#ArialMT-35"/>
      </g>
     </g>
    </g>
    <g id="text_17">
     <!-- Sumrate -->
     <g style="fill: #262626" transform="translate(53.252812 220.764844) rotate(-90) scale(0.11 -0.11)">
      <defs>
       <path id="ArialMT-53" d="M 288 1472 
L 859 1522 
Q 900 1178 1048 958 
Q 1197 738 1509 602 
Q 1822 466 2213 466 
Q 2559 466 2825 569 
Q 3091 672 3220 851 
Q 3350 1031 3350 1244 
Q 3350 1459 3225 1620 
Q 3100 1781 2813 1891 
Q 2628 1963 1997 2114 
Q 1366 2266 1113 2400 
Q 784 2572 623 2826 
Q 463 3081 463 3397 
Q 463 3744 659 4045 
Q 856 4347 1234 4503 
Q 1613 4659 2075 4659 
Q 2584 4659 2973 4495 
Q 3363 4331 3572 4012 
Q 3781 3694 3797 3291 
L 3216 3247 
Q 3169 3681 2898 3903 
Q 2628 4125 2100 4125 
Q 1550 4125 1298 3923 
Q 1047 3722 1047 3438 
Q 1047 3191 1225 3031 
Q 1400 2872 2139 2705 
Q 2878 2538 3153 2413 
Q 3553 2228 3743 1945 
Q 3934 1663 3934 1294 
Q 3934 928 3725 604 
Q 3516 281 3123 101 
Q 2731 -78 2241 -78 
Q 1619 -78 1198 103 
Q 778 284 539 648 
Q 300 1013 288 1472 
z
" transform="scale(0.015625)"/>
       <path id="ArialMT-75" d="M 2597 0 
L 2597 488 
Q 2209 -75 1544 -75 
Q 1250 -75 995 37 
Q 741 150 617 320 
Q 494 491 444 738 
Q 409 903 409 1263 
L 409 3319 
L 972 3319 
L 972 1478 
Q 972 1038 1006 884 
Q 1059 663 1231 536 
Q 1403 409 1656 409 
Q 1909 409 2131 539 
Q 2353 669 2445 892 
Q 2538 1116 2538 1541 
L 2538 3319 
L 3100 3319 
L 3100 0 
L 2597 0 
z
" transform="scale(0.015625)"/>
       <path id="ArialMT-6d" d="M 422 0 
L 422 3319 
L 925 3319 
L 925 2853 
Q 1081 3097 1340 3245 
Q 1600 3394 1931 3394 
Q 2300 3394 2536 3241 
Q 2772 3088 2869 2813 
Q 3263 3394 3894 3394 
Q 4388 3394 4653 3120 
Q 4919 2847 4919 2278 
L 4919 0 
L 4359 0 
L 4359 2091 
Q 4359 2428 4304 2576 
Q 4250 2725 4106 2815 
Q 3963 2906 3769 2906 
Q 3419 2906 3187 2673 
Q 2956 2441 2956 1928 
L 2956 0 
L 2394 0 
L 2394 2156 
Q 2394 2531 2256 2718 
Q 2119 2906 1806 2906 
Q 1569 2906 1367 2781 
Q 1166 2656 1075 2415 
Q 984 2175 984 1722 
L 984 0 
L 422 0 
z
" transform="scale(0.015625)"/>
      </defs>
      <use xlink:href="#ArialMT-53"/>
      <use xlink:href="#ArialMT-75" x="66.699219"/>
      <use xlink:href="#ArialMT-6d" x="122.314453"/>
      <use xlink:href="#ArialMT-72" x="205.615234"/>
      <use xlink:href="#ArialMT-61" x="238.916016"/>
      <use xlink:href="#ArialMT-74" x="294.53125"/>
      <use xlink:href="#ArialMT-65" x="322.314453"/>
     </g>
    </g>
   </g>
   <g id="line2d_31">
    <path d="M 92.290909 322.393555 
L 92.49392 318.878503 
L 92.69693 324.895625 
L 92.899941 325.299361 
L 93.305962 331.788646 
L 93.508973 310.334129 
L 93.711983 325.209488 
L 94.118004 276.287812 
L 94.321015 313.334413 
L 94.524026 316.804846 
L 94.727036 267.251889 
L 94.930047 320.413879 
L 95.133057 282.197977 
L 95.336068 293.69536 
L 95.539079 325.995048 
L 95.742089 230.218261 
L 95.9451 296.648458 
L 96.14811 283.687618 
L 96.351121 237.607711 
L 96.554132 335.826959 
L 96.960153 215.089212 
L 97.163163 329.281226 
L 97.366174 330.315223 
L 97.772195 222.735722 
L 97.975206 311.906665 
L 98.381227 240.93002 
L 98.584238 162.850514 
L 98.787248 283.663643 
L 98.990259 326.229548 
L 99.193269 335.130339 
L 99.39628 332.867912 
L 99.599291 325.583456 
L 99.802301 304.965212 
L 100.005312 320.928686 
L 100.208322 282.527662 
L 100.411333 296.843452 
L 100.614344 220.133612 
L 100.817354 305.149875 
L 101.020365 332.576396 
L 101.426386 314.494876 
L 101.629397 335.245707 
L 102.441439 279.902536 
L 102.644449 316.941218 
L 102.84746 304.904493 
L 103.050471 173.511215 
L 103.253481 318.378861 
L 103.659502 299.29921 
L 103.862513 329.945868 
L 104.065524 325.990453 
L 104.268534 258.399425 
L 104.471545 281.532033 
L 104.674555 291.872523 
L 104.877566 290.397126 
L 105.080577 304.276647 
L 105.283587 332.143036 
L 105.486598 336.45642 
L 105.689608 273.697713 
L 105.892619 333.62092 
L 106.09563 254.697723 
L 106.29864 279.387978 
L 106.501651 319.085885 
L 106.704661 309.883787 
L 106.907672 330.567054 
L 107.110683 328.789453 
L 107.313693 331.978073 
L 107.516704 329.955344 
L 107.719714 307.832666 
L 107.922725 306.157062 
L 108.328746 222.01439 
L 108.531757 286.820488 
L 108.734767 222.178923 
L 108.937778 246.528784 
L 109.140789 140.735595 
L 109.343799 300.851128 
L 109.54681 258.922561 
L 109.74982 315.799597 
L 110.155842 269.274504 
L 110.358852 174.320184 
L 110.561863 321.919602 
L 110.764873 337.513398 
L 110.967884 275.230746 
L 111.170895 304.726462 
L 111.373905 282.387864 
L 111.576916 231.950072 
L 111.982937 327.938333 
L 112.388958 245.598119 
L 112.591969 324.254761 
L 112.794979 324.625961 
L 113.201001 250.401326 
L 113.607022 274.73527 
L 113.810032 335.310681 
L 114.013043 318.895533 
L 114.216053 238.02373 
L 114.622075 299.52759 
L 114.825085 293.377576 
L 115.028096 326.746085 
L 115.434117 240.602909 
L 115.637128 306.435002 
L 115.840138 271.413294 
L 116.043149 323.44868 
L 116.246159 267.54216 
L 116.44917 325.044571 
L 116.652181 245.503149 
L 116.855191 256.568759 
L 117.058202 309.090006 
L 117.261212 323.531325 
L 117.464223 329.435374 
L 117.870244 230.592905 
L 118.073255 324.769861 
L 118.276265 214.988948 
L 118.885297 328.335043 
L 119.088308 338.58 
L 119.291318 332.710335 
L 119.494329 237.583749 
L 119.69734 203.258618 
L 119.90035 319.164554 
L 120.103361 275.97698 
L 120.509382 334.959416 
L 120.712393 283.99557 
L 120.915403 273.730398 
L 121.118414 223.092096 
L 121.524435 318.893 
L 121.727446 289.527178 
L 121.930456 229.255977 
L 122.133467 334.364259 
L 122.336477 308.981874 
L 122.539488 261.991706 
L 122.742499 268.664032 
L 122.945509 329.562778 
L 123.14852 253.592802 
L 123.35153 284.026387 
L 123.554541 279.403504 
L 123.757552 265.014517 
L 123.960562 302.495187 
L 124.163573 252.736346 
L 124.366583 338.404015 
L 124.569594 265.973433 
L 124.772604 287.430636 
L 124.975615 287.008683 
L 125.178626 326.439753 
L 125.381636 322.981338 
L 125.584647 332.331464 
L 125.787657 320.750124 
L 126.396689 231.461599 
L 126.5997 299.562392 
L 126.80271 252.555988 
L 127.005721 335.212322 
L 127.208732 277.325855 
L 127.411742 303.895567 
L 127.614753 291.633903 
L 127.817763 191.718367 
L 128.020774 328.354421 
L 128.223785 318.952003 
L 128.426795 239.443014 
L 128.629806 308.357664 
L 128.832816 234.239373 
L 129.238838 328.984882 
L 129.441848 253.390596 
L 129.644859 320.734913 
L 129.847869 306.715203 
L 130.05088 251.360969 
L 130.253891 232.849233 
L 130.456901 290.789768 
L 130.659912 259.282507 
L 130.862922 329.680354 
L 131.065933 336.807843 
L 131.268944 336.074414 
L 131.471954 221.61941 
L 131.674965 333.109432 
L 131.877975 202.924918 
L 132.283997 305.345318 
L 132.487007 313.58054 
L 132.690018 272.222585 
L 132.893028 296.057704 
L 133.096039 306.265204 
L 133.29905 270.078771 
L 133.50206 268.167197 
L 133.705071 330.865667 
L 133.908081 286.681863 
L 134.111092 278.862695 
L 134.314103 325.06562 
L 134.517113 332.31777 
L 134.923134 258.339232 
L 135.126145 336.153191 
L 135.329155 276.246448 
L 135.532166 319.767047 
L 135.735177 298.54046 
L 135.938187 327.558969 
L 136.141198 289.296815 
L 136.344208 335.680643 
L 136.547219 258.950021 
L 136.95324 321.685652 
L 137.156251 290.648988 
L 137.359261 304.790799 
L 137.562272 336.596714 
L 137.765283 330.685662 
L 137.968293 268.824713 
L 138.171304 311.242655 
L 138.374314 254.509244 
L 138.577325 329.060345 
L 138.780336 221.81694 
L 138.983346 301.014729 
L 139.186357 317.585102 
L 139.389367 206.903338 
L 139.592378 326.983669 
L 139.795389 329.69145 
L 139.998399 314.235836 
L 140.20141 266.150084 
L 140.40442 334.140368 
L 140.607431 302.019946 
L 140.810442 304.114161 
L 141.013452 227.215366 
L 141.216463 299.724464 
L 141.419473 328.568095 
L 141.622484 266.269145 
L 141.825495 298.336915 
L 142.028505 300.574046 
L 142.231516 289.566235 
L 142.434526 320.670121 
L 142.637537 309.690854 
L 142.840548 323.131057 
L 143.043558 312.538326 
L 143.246569 266.332445 
L 143.449579 313.910828 
L 143.65259 281.331312 
L 143.855601 332.267673 
L 144.058611 283.275665 
L 144.261622 330.362064 
L 144.464632 318.10341 
L 144.667643 256.77358 
L 144.870654 324.900131 
L 145.073664 220.742264 
L 145.276675 247.744815 
L 145.479685 328.562758 
L 145.682696 335.614672 
L 145.885706 307.980723 
L 146.088717 201.050088 
L 146.291728 309.674325 
L 146.494738 317.508438 
L 146.697749 279.337205 
L 146.900759 298.152619 
L 147.10377 302.273095 
L 147.306781 326.632962 
L 147.509791 328.989306 
L 147.712802 317.162477 
L 147.915812 234.20778 
L 148.118823 317.110059 
L 148.321834 282.269822 
L 148.727855 328.52453 
L 148.930865 275.131602 
L 149.133876 297.719453 
L 149.336887 240.232264 
L 149.539897 255.676064 
L 149.742908 305.80501 
L 149.945918 236.158006 
L 150.148929 277.286262 
L 150.35194 247.559755 
L 150.757961 329.599224 
L 150.960971 271.430173 
L 151.163982 327.565264 
L 151.366993 328.467472 
L 151.773014 307.386733 
L 151.976024 319.296736 
L 152.179035 321.339369 
L 152.382046 312.994073 
L 152.788067 267.916064 
L 152.991077 328.046702 
L 153.397099 308.367447 
L 153.600109 265.480685 
L 154.00613 314.749022 
L 154.209141 265.017605 
L 154.412152 280.762914 
L 154.615162 328.069521 
L 154.818173 323.976086 
L 155.021183 300.920677 
L 155.224194 333.214985 
L 155.427205 298.197223 
L 155.630215 221.895934 
L 155.833226 300.559868 
L 156.239247 332.832638 
L 156.442257 316.167572 
L 156.645268 337.707729 
L 156.848279 333.8644 
L 157.051289 296.798309 
L 157.2543 299.386304 
L 157.45731 334.728248 
L 157.660321 300.088419 
L 157.863332 314.512716 
L 158.066342 244.604067 
L 158.269353 321.276484 
L 158.472363 259.320629 
L 158.675374 323.338332 
L 158.878385 302.45954 
L 159.081395 332.18665 
L 159.284406 331.245142 
L 159.487416 300.070108 
L 159.690427 326.938561 
L 160.096448 320.164463 
L 160.299459 280.642859 
L 160.502469 335.70507 
L 160.70548 328.330643 
L 160.908491 334.264093 
L 161.111501 325.115145 
L 161.720533 234.122808 
L 161.923544 319.669141 
L 162.126554 331.631806 
L 162.329565 298.300387 
L 162.735586 330.026682 
L 162.938597 331.818252 
L 163.141607 312.095776 
L 163.344618 336.435008 
L 163.547628 334.789465 
L 163.750639 320.107093 
L 163.95365 328.97185 
L 164.15666 279.482828 
L 164.359671 259.291486 
L 164.765692 331.969162 
L 164.968703 299.91911 
L 165.171713 314.583067 
L 165.374724 320.057523 
L 165.577734 292.550243 
L 165.780745 326.304402 
L 165.983756 308.671899 
L 166.186766 324.999141 
L 166.389777 317.004829 
L 166.592787 269.582081 
L 166.795798 331.510842 
L 166.998808 330.31078 
L 167.201819 294.57357 
L 167.40483 337.455524 
L 167.60784 281.144645 
L 167.810851 320.691507 
L 168.013861 288.212223 
L 168.216872 211.45704 
L 168.419883 334.346864 
L 168.622893 217.717891 
L 168.825904 280.428538 
L 169.028914 241.049077 
L 169.231925 317.210735 
L 169.434936 259.991509 
L 169.637946 289.860046 
L 169.840957 256.80076 
L 170.246978 331.434068 
L 170.449989 262.859765 
L 170.652999 239.221294 
L 170.85601 284.914573 
L 171.05902 231.023964 
L 171.465042 265.247105 
L 171.668052 322.701121 
L 171.871063 279.069278 
L 172.074073 327.609931 
L 172.277084 328.32669 
L 172.480095 331.339088 
L 172.683105 223.941506 
L 172.886116 246.516498 
L 173.089126 336.979443 
L 173.292137 257.794084 
L 173.495148 262.269295 
L 173.698158 331.983303 
L 173.901169 226.780915 
L 174.104179 278.184025 
L 174.30719 267.564319 
L 174.510201 176.239235 
L 174.713211 247.623382 
L 175.119232 314.617113 
L 175.322243 228.709935 
L 175.525254 267.117361 
L 175.728264 192.481851 
L 175.931275 262.721344 
L 176.134285 266.246869 
L 176.337296 332.874804 
L 176.743317 180.442637 
L 176.946328 254.354656 
L 177.149338 184.235681 
L 177.352349 296.817271 
L 177.75837 190.310473 
L 177.961381 276.486277 
L 178.164391 285.208143 
L 178.367402 197.609414 
L 178.570412 201.920661 
L 178.773423 285.144049 
L 178.976434 242.385432 
L 179.179444 309.254412 
L 179.382455 231.508829 
L 179.585465 297.821688 
L 179.788476 293.745116 
L 179.991487 262.41824 
L 180.194497 275.905179 
L 180.397508 279.734108 
L 180.600518 317.033694 
L 180.803529 223.141187 
L 181.00654 265.178321 
L 181.20955 264.606287 
L 181.412561 234.803589 
L 181.615571 236.584222 
L 181.818582 286.28439 
L 182.021593 292.468722 
L 182.224603 312.129893 
L 182.427614 306.755347 
L 182.630624 332.088331 
L 182.833635 257.239698 
L 183.036646 280.336943 
L 183.239656 260.967537 
L 183.442667 221.514028 
L 183.645677 330.279849 
L 183.848688 218.035824 
L 184.051699 289.827244 
L 184.254709 258.628815 
L 184.45772 182.015785 
L 184.66073 223.50817 
L 184.863741 330.802051 
L 185.066752 223.956452 
L 185.269762 216.888615 
L 185.472773 238.66985 
L 185.675783 205.674728 
L 185.878794 225.727845 
L 186.081805 282.640037 
L 186.284815 141.941012 
L 186.487826 312.29511 
L 186.690836 293.61128 
L 186.893847 166.590349 
L 187.096858 312.089479 
L 187.299868 173.437222 
L 187.705889 319.656324 
L 187.9089 325.397828 
L 188.111911 334.808625 
L 188.314921 305.56036 
L 188.517932 235.207761 
L 188.720942 320.379199 
L 188.923953 301.468024 
L 189.126963 297.110144 
L 189.329974 328.231189 
L 189.532985 325.930145 
L 189.735995 317.882665 
L 190.142016 261.625117 
L 190.548038 285.025872 
L 190.751048 207.483133 
L 190.954059 308.730476 
L 191.157069 199.262243 
L 191.36008 170.53941 
L 191.563091 266.715026 
L 191.766101 270.726016 
L 191.969112 220.136927 
L 192.172122 202.609121 
L 192.375133 174.888956 
L 192.578144 277.624793 
L 192.781154 198.261997 
L 192.984165 221.261254 
L 193.187175 126.619503 
L 193.390186 228.286962 
L 193.593197 161.900964 
L 193.796207 314.817818 
L 193.999218 172.796888 
L 194.202228 287.337062 
L 194.405239 284.303011 
L 194.81126 195.007362 
L 195.014271 282.717089 
L 195.217281 214.91078 
L 195.420292 198.324764 
L 195.623303 136.260004 
L 195.826313 302.236819 
L 196.029324 315.295388 
L 196.232334 247.157554 
L 196.435345 261.952618 
L 196.638356 217.876307 
L 196.841366 122.861742 
L 197.247387 256.915694 
L 197.450398 249.901993 
L 197.653409 234.63935 
L 197.856419 242.549558 
L 198.05943 303.135675 
L 198.26244 297.376991 
L 198.465451 303.794452 
L 198.668462 317.924485 
L 198.871472 292.679323 
L 199.074483 288.745885 
L 199.277493 302.560272 
L 199.480504 295.977487 
L 200.089536 130.860591 
L 200.292546 325.577678 
L 200.495557 273.391104 
L 200.698567 309.133603 
L 200.901578 316.5122 
L 201.104589 206.448387 
L 201.51061 148.267484 
L 201.71362 256.974737 
L 201.916631 241.344612 
L 202.119642 199.837833 
L 202.322652 197.232236 
L 202.525663 125.487007 
L 202.728673 243.950465 
L 202.931684 138.400863 
L 203.134695 220.694077 
L 203.337705 114.944827 
L 203.540716 292.110439 
L 203.946737 176.553186 
L 204.149748 160.898096 
L 204.352758 271.046367 
L 204.555769 188.394734 
L 204.758779 186.106368 
L 204.96179 124.065143 
L 205.164801 201.591998 
L 205.367811 150.918888 
L 205.570822 278.259927 
L 205.773832 208.142318 
L 205.976843 182.185608 
L 206.382864 194.90598 
L 206.585875 264.330181 
L 206.788885 264.483412 
L 206.991896 326.26278 
L 207.600928 176.883148 
L 207.803938 217.333555 
L 208.006949 185.737414 
L 208.20996 187.655713 
L 208.41297 146.022882 
L 208.615981 206.856782 
L 208.818991 139.823704 
L 209.022002 272.053784 
L 209.225013 301.02396 
L 209.834044 189.708909 
L 210.037055 145.708404 
L 210.240065 170.151706 
L 210.646087 274.358432 
L 210.849097 240.288932 
L 211.255118 335.022516 
L 211.458129 275.789982 
L 211.66114 283.29214 
L 211.86415 205.19066 
L 212.067161 331.337767 
L 212.270171 320.749295 
L 212.473182 236.763289 
L 212.676193 228.570852 
L 212.879203 225.00928 
L 213.082214 277.857622 
L 213.285224 167.603847 
L 213.488235 143.561803 
L 213.691246 154.571618 
L 213.894256 195.873619 
L 214.097267 201.33753 
L 214.300277 154.576554 
L 214.909309 234.460401 
L 215.11232 249.474519 
L 215.31533 151.149572 
L 215.518341 189.807951 
L 215.721352 144.462 
L 215.924362 235.339556 
L 216.127373 210.321257 
L 216.330383 258.077571 
L 216.533394 279.300468 
L 216.736405 219.179686 
L 216.939415 196.910479 
L 217.142426 186.966523 
L 217.345436 324.948276 
L 217.548447 277.680303 
L 217.751458 275.151888 
L 217.954468 227.307869 
L 218.157479 266.818054 
L 218.360489 215.005092 
L 218.5635 234.168263 
L 218.766511 311.65666 
L 218.969521 277.071334 
L 219.172532 200.841978 
L 219.375542 223.379254 
L 219.578553 175.554699 
L 219.781564 224.426807 
L 219.984574 235.735452 
L 220.187585 336.401667 
L 220.796616 135.559137 
L 220.999627 311.641685 
L 221.405648 219.305386 
L 221.608659 260.326647 
L 221.811669 248.948376 
L 222.01468 280.2889 
L 222.217691 242.64227 
L 222.420701 154.942824 
L 222.623712 204.366873 
L 222.826722 281.075355 
L 223.029733 189.70099 
L 223.232744 293.746161 
L 223.435754 198.053338 
L 223.638765 183.74284 
L 224.044786 217.560748 
L 224.247797 200.393006 
L 224.450807 155.934407 
L 224.653818 203.158626 
L 224.856828 171.701941 
L 225.059839 245.790058 
L 225.26285 275.654832 
L 225.46586 285.931053 
L 225.668871 170.879145 
L 225.871881 264.819854 
L 226.074892 196.472871 
L 226.277903 199.420698 
L 226.480913 234.076402 
L 226.683924 287.965932 
L 226.886934 201.026535 
L 227.089945 189.589403 
L 227.292956 233.536372 
L 227.495966 239.443783 
L 227.698977 304.369439 
L 227.901987 240.244888 
L 228.104998 229.207262 
L 228.308009 181.826611 
L 228.511019 205.900432 
L 228.71403 257.462175 
L 228.91704 161.166234 
L 229.120051 293.583429 
L 229.323062 245.053817 
L 229.526072 305.872015 
L 229.729083 206.231871 
L 229.932093 329.838319 
L 230.135104 236.751816 
L 230.338115 228.50691 
L 230.541125 92.134876 
L 230.947146 304.111516 
L 231.150157 215.457569 
L 231.353167 280.018372 
L 231.556178 268.478871 
L 231.759189 215.265202 
L 231.962199 272.685641 
L 232.16521 229.164192 
L 232.36822 225.029075 
L 232.571231 267.137867 
L 232.774242 284.790454 
L 232.977252 220.789327 
L 233.383273 316.476141 
L 233.586284 183.681066 
L 233.789295 287.536524 
L 233.992305 163.326702 
L 234.195316 157.877825 
L 234.398326 193.125647 
L 234.601337 208.604756 
L 234.804348 208.317899 
L 235.007358 173.56185 
L 235.210369 202.491106 
L 235.413379 206.03123 
L 235.61639 154.909641 
L 235.819401 267.994295 
L 236.022411 145.711588 
L 236.225422 278.515135 
L 236.428432 191.879397 
L 236.631443 261.315604 
L 237.037464 196.796123 
L 237.240475 267.791183 
L 237.443485 223.579472 
L 237.646496 278.567278 
L 237.849507 279.300251 
L 238.458538 190.939095 
L 238.661549 247.161132 
L 238.86456 244.677389 
L 239.06757 215.213348 
L 239.270581 157.144089 
L 239.473591 248.658365 
L 239.676602 247.216942 
L 240.082623 155.15966 
L 240.488644 272.489807 
L 240.691655 198.602592 
L 240.894666 217.48429 
L 241.097676 217.905487 
L 241.300687 227.116567 
L 241.503697 293.034158 
L 241.706708 233.875461 
L 241.909718 274.791381 
L 242.112729 275.035912 
L 242.31574 274.840391 
L 242.721761 187.536588 
L 242.924771 158.142019 
L 243.736814 329.804774 
L 243.939824 236.993132 
L 244.142835 262.578638 
L 244.345846 303.217205 
L 244.548856 238.935052 
L 244.751867 310.586142 
L 245.157888 222.987433 
L 245.360899 281.452764 
L 245.563909 243.840746 
L 245.76692 316.650149 
L 245.96993 263.060127 
L 246.172941 166.950821 
L 246.578962 300.467734 
L 246.984983 248.122844 
L 247.187994 278.929739 
L 247.594015 211.606757 
L 248.203047 316.776825 
L 248.406058 301.259821 
L 248.609068 211.708585 
L 248.812079 195.066441 
L 249.015089 191.38656 
L 249.2181 226.959823 
L 249.421111 301.821741 
L 249.624121 276.743318 
L 249.827132 296.147797 
L 250.030142 191.800362 
L 250.233153 296.50099 
L 250.436164 230.936202 
L 250.639174 312.141012 
L 250.842185 180.391224 
L 251.045195 240.830815 
L 251.248206 190.887989 
L 251.654227 232.953662 
L 251.857238 218.205905 
L 252.263259 254.079748 
L 252.466269 171.792128 
L 252.872291 313.790044 
L 253.075301 208.315604 
L 253.278312 294.170117 
L 253.481322 259.242757 
L 253.684333 142.543672 
L 253.887344 310.854815 
L 254.090354 220.642926 
L 254.293365 213.064151 
L 254.496375 169.332101 
L 254.699386 279.70559 
L 255.105407 219.661609 
L 255.308418 292.877459 
L 255.511428 185.710585 
L 255.714439 266.923091 
L 255.91745 265.14393 
L 256.12046 271.914724 
L 256.323471 287.005235 
L 256.526481 232.510502 
L 256.729492 223.025272 
L 256.932503 167.26155 
L 257.135513 309.231293 
L 257.338524 291.484613 
L 257.541534 177.19863 
L 257.744545 332.703828 
L 257.947556 179.70682 
L 258.150566 299.809102 
L 258.353577 234.350658 
L 258.556587 270.48048 
L 258.759598 248.751751 
L 258.962609 259.285692 
L 259.165619 311.717464 
L 259.36863 191.024534 
L 259.57164 253.785825 
L 259.774651 251.742456 
L 259.977662 310.745873 
L 260.180672 247.952518 
L 260.383683 224.323918 
L 260.586693 220.724064 
L 260.789704 228.033637 
L 260.992715 204.368368 
L 261.195725 247.715707 
L 261.398736 215.987774 
L 261.601746 218.68664 
L 261.804757 303.97946 
L 262.007768 211.471342 
L 262.210778 286.482324 
L 262.413789 215.751507 
L 262.616799 202.880858 
L 262.81981 281.309436 
L 263.022821 268.150053 
L 263.225831 195.334441 
L 263.428842 217.784277 
L 263.631852 272.233238 
L 263.834863 264.789774 
L 264.240884 202.974972 
L 264.443895 289.154268 
L 264.646905 189.340358 
L 264.849916 210.371609 
L 265.052926 201.103511 
L 265.255937 247.510819 
L 265.661958 257.693071 
L 265.864969 186.120912 
L 266.067979 235.203301 
L 266.474001 150.018093 
L 266.677011 196.73276 
L 266.880022 180.970369 
L 267.083032 260.75044 
L 267.286043 175.530416 
L 267.489054 169.478914 
L 267.895075 252.085457 
L 268.098085 186.89246 
L 268.301096 209.475655 
L 268.504107 174.02086 
L 268.707117 268.198133 
L 268.910128 274.341523 
L 269.113138 167.791322 
L 269.316149 300.67091 
L 269.51916 212.610217 
L 269.925181 186.167649 
L 270.128191 231.859044 
L 270.331202 208.592714 
L 270.534213 217.552601 
L 270.737223 166.589646 
L 270.940234 153.46536 
L 271.346255 216.601179 
L 271.549266 180.896804 
L 271.752276 168.537343 
L 272.158297 219.319435 
L 272.361308 234.961632 
L 272.564319 171.440091 
L 272.767329 150.911293 
L 272.97034 227.089921 
L 273.17335 179.795572 
L 273.376361 173.36485 
L 273.579372 188.495244 
L 273.782382 215.561851 
L 273.985393 195.873114 
L 274.188403 200.076318 
L 274.391414 220.615375 
L 274.594424 146.567669 
L 274.797435 323.319736 
L 275.000446 215.814783 
L 275.406467 247.701313 
L 275.609477 210.284037 
L 275.812488 135.631338 
L 276.015499 294.940575 
L 276.218509 203.943426 
L 276.42152 238.332569 
L 276.62453 186.519889 
L 276.827541 170.049966 
L 277.030552 224.409751 
L 277.436573 202.796391 
L 277.639583 233.992335 
L 277.842594 198.771339 
L 278.045605 192.209459 
L 278.248615 192.325736 
L 278.451626 134.689478 
L 278.654636 175.072469 
L 278.857647 191.1821 
L 279.060658 257.345824 
L 279.263668 283.459517 
L 279.466679 149.109689 
L 279.669689 176.630074 
L 279.8727 231.615226 
L 280.278721 180.365637 
L 280.481732 157.417226 
L 280.684742 188.252849 
L 281.090764 179.815494 
L 281.293774 143.565967 
L 281.699795 287.848406 
L 282.105817 160.561754 
L 282.308827 167.572806 
L 282.511838 201.543885 
L 282.714848 182.496964 
L 282.917859 236.62442 
L 283.12087 217.147376 
L 283.32388 267.474027 
L 283.526891 195.028446 
L 283.729901 287.501104 
L 283.932912 176.409235 
L 284.135923 200.11643 
L 284.338933 150.713143 
L 284.541944 229.008827 
L 284.744954 151.495911 
L 284.947965 266.581159 
L 285.150975 180.718668 
L 285.353986 182.291485 
L 285.556997 204.231643 
L 285.760007 172.40196 
L 285.963018 226.991851 
L 286.166028 169.365235 
L 286.57205 210.304871 
L 286.77506 211.046969 
L 286.978071 225.251137 
L 287.181081 268.50158 
L 287.587103 171.786693 
L 287.790113 218.306568 
L 287.993124 215.509229 
L 288.399145 151.612846 
L 288.602156 120.510373 
L 288.805166 216.460224 
L 289.211187 137.139847 
L 289.414198 183.005954 
L 289.617209 141.630521 
L 289.820219 167.410002 
L 290.02323 208.036423 
L 290.22624 188.666951 
L 290.429251 216.028267 
L 290.632262 202.329149 
L 290.835272 149.06987 
L 291.038283 196.316254 
L 291.241293 151.879971 
L 291.444304 230.07514 
L 291.647315 201.933922 
L 291.850325 237.281453 
L 292.053336 187.913868 
L 292.256346 236.31327 
L 292.459357 216.486975 
L 292.662368 184.262063 
L 292.865378 186.856678 
L 293.068389 184.146062 
L 293.271399 219.194362 
L 293.47441 186.696301 
L 293.677421 253.045688 
L 293.880431 172.050632 
L 294.083442 234.936293 
L 294.286452 242.331402 
L 294.489463 286.793234 
L 294.692474 171.55568 
L 295.098495 241.442228 
L 295.301505 136.832792 
L 295.504516 202.837523 
L 295.707526 192.407039 
L 295.910537 152.371884 
L 296.113548 187.547308 
L 296.316558 153.326477 
L 296.722579 198.580453 
L 296.92559 137.725207 
L 297.331611 190.294795 
L 297.534622 139.189546 
L 297.737632 197.718055 
L 298.143654 176.996739 
L 298.346664 124.729823 
L 298.549675 196.401513 
L 298.752685 166.755478 
L 298.955696 193.483214 
L 299.158707 160.505591 
L 299.361717 209.024774 
L 299.564728 225.982878 
L 299.767738 143.271926 
L 299.970749 196.311278 
L 300.17376 146.407486 
L 300.37677 166.808584 
L 300.579781 249.982501 
L 300.782791 173.91861 
L 300.985802 161.211128 
L 301.188813 162.346302 
L 301.594834 130.402549 
L 301.797844 140.701299 
L 302.000855 165.352096 
L 302.203866 167.062246 
L 302.406876 142.79011 
L 302.609887 158.633455 
L 302.812897 232.156998 
L 303.015908 209.631471 
L 303.218919 161.991624 
L 303.421929 155.556425 
L 303.62494 116.627683 
L 303.82795 137.859652 
L 304.030961 129.729105 
L 304.233972 130.666013 
L 304.436982 111.300439 
L 304.843003 152.446927 
L 305.046014 130.535649 
L 305.249025 141.338827 
L 305.452035 134.326272 
L 305.858056 174.06983 
L 306.061067 134.813633 
L 306.467088 176.761768 
L 306.670099 149.699897 
L 306.873109 142.270248 
L 307.27913 182.43766 
L 307.482141 132.133113 
L 307.685152 162.704632 
L 307.888162 162.037732 
L 308.091173 133.967527 
L 308.294183 139.13492 
L 308.497194 130.417971 
L 308.700205 128.187626 
L 308.903215 105.601966 
L 309.106226 135.191619 
L 309.309236 137.940618 
L 309.512247 144.39726 
L 309.715258 158.774702 
L 309.918268 194.246267 
L 310.121279 135.787231 
L 310.5273 113.891403 
L 310.730311 118.529064 
L 310.933321 137.159127 
L 311.136332 112.820589 
L 311.339342 137.27038 
L 311.542353 141.321077 
L 311.745364 126.410414 
L 311.948374 136.004083 
L 312.151385 152.069516 
L 312.354395 114.177539 
L 312.760417 124.608449 
L 312.963427 134.775341 
L 313.166438 107.493236 
L 313.572459 148.989628 
L 313.77547 129.914309 
L 313.97848 161.159774 
L 314.181491 99.734272 
L 314.384501 144.093304 
L 314.587512 93.650916 
L 314.790523 241.041091 
L 314.993533 134.778552 
L 315.196544 150.599469 
L 315.399554 120.8741 
L 315.602565 169.830766 
L 315.805576 131.358901 
L 316.008586 192.559149 
L 316.211597 142.32216 
L 316.414607 119.745272 
L 316.617618 172.652111 
L 317.023639 126.823066 
L 317.22665 156.95418 
L 317.42966 132.954845 
L 317.632671 169.801833 
L 317.835681 118.685577 
L 318.038692 167.055483 
L 318.241703 138.76308 
L 318.444713 206.676847 
L 318.647724 134.14871 
L 318.850734 108.714688 
L 319.053745 195.036761 
L 319.459766 125.272204 
L 319.662777 117.528832 
L 319.865787 130.642457 
L 320.068798 127.620148 
L 320.271809 165.005577 
L 320.474819 104.124713 
L 320.88084 205.867055 
L 321.083851 220.035771 
L 321.286862 122.054524 
L 321.692883 136.974549 
L 321.895893 185.597123 
L 322.098904 111.76148 
L 322.301915 129.986744 
L 322.504925 110.62471 
L 322.707936 175.047619 
L 322.910946 122.591017 
L 323.113957 130.917058 
L 323.316968 112.94059 
L 323.519978 131.958255 
L 323.722989 108.400622 
L 324.332021 146.244214 
L 324.535031 145.624521 
L 324.738042 143.29041 
L 324.941052 147.277209 
L 325.144063 110.612712 
L 325.347074 107.299984 
L 325.550084 154.656114 
L 325.753095 128.210283 
L 325.956105 126.009239 
L 326.159116 138.897766 
L 326.362127 110.192916 
L 326.565137 119.471241 
L 326.971158 173.784917 
L 327.58019 119.403357 
L 327.783201 107.160235 
L 327.986211 117.034995 
L 328.189222 140.826823 
L 328.392232 114.483074 
L 328.595243 123.173234 
L 328.798254 112.320038 
L 329.204275 161.335886 
L 329.407285 136.028768 
L 329.610296 131.204416 
L 329.813307 131.026083 
L 330.016317 116.176773 
L 330.219328 119.480913 
L 330.625349 134.50174 
L 330.82836 121.953564 
L 331.03137 144.247699 
L 331.234381 124.013766 
L 331.437391 169.338066 
L 331.640402 126.790202 
L 331.843413 118.661025 
L 332.046423 147.57074 
L 332.249434 102.531249 
L 332.452444 125.024962 
L 332.655455 125.004004 
L 332.858466 112.8834 
L 333.061476 127.644008 
L 333.264487 126.443061 
L 333.467497 154.359646 
L 333.670508 127.551616 
L 333.873519 152.528352 
L 334.27954 106.34621 
L 334.48255 156.042778 
L 334.685561 99.352029 
L 334.888572 116.485206 
L 335.091582 168.614009 
L 335.294593 136.259265 
L 335.497603 128.001844 
L 335.700614 145.00042 
L 335.903625 143.91586 
L 336.512656 108.719679 
L 336.715667 130.333587 
L 336.918678 125.898397 
L 337.121688 107.394878 
L 337.324699 118.266489 
L 337.527709 146.821085 
L 337.73072 143.296373 
L 337.933731 117.871614 
L 338.136741 140.395007 
L 338.339752 120.282737 
L 338.542762 118.571638 
L 338.745773 101.542302 
L 338.948783 138.232206 
L 339.354805 114.47479 
L 339.557815 118.396175 
L 339.760826 104.971956 
L 339.963836 121.658626 
L 340.369858 113.529358 
L 340.572868 115.556142 
L 340.775879 126.233033 
L 340.978889 149.317933 
L 341.1819 132.213748 
L 341.384911 131.000237 
L 341.587921 101.771639 
L 341.790932 133.141801 
L 341.993942 124.526016 
L 342.196953 135.421919 
L 342.399964 122.430145 
L 342.602974 141.176167 
L 342.805985 181.192506 
L 343.008995 135.479192 
L 343.212006 129.229081 
L 343.415017 109.427437 
L 343.618027 176.093387 
L 343.821038 96.633773 
L 344.024048 117.15512 
L 344.43007 99.39623 
L 344.63308 102.529068 
L 344.836091 172.292179 
L 345.039101 104.384159 
L 345.242112 152.444196 
L 345.445123 139.05429 
L 345.648133 97.699119 
L 345.851144 164.180903 
L 346.054154 117.205895 
L 346.257165 105.811967 
L 346.460176 148.149118 
L 346.663186 93.382111 
L 347.069207 138.333176 
L 347.272218 125.076191 
L 347.475229 102.275447 
L 347.678239 124.619376 
L 347.88125 97.789536 
L 348.08426 171.352195 
L 348.287271 123.391631 
L 348.490282 165.178584 
L 348.693292 95.726057 
L 348.896303 129.544367 
L 349.099313 128.755115 
L 349.302324 118.334027 
L 349.708345 148.985383 
L 350.114366 103.605081 
L 350.520387 115.862348 
L 350.723398 168.017926 
L 350.926409 133.253737 
L 351.129419 132.120449 
L 351.33243 88.732141 
L 351.53544 96.351905 
L 351.738451 130.211972 
L 351.941462 96.495339 
L 352.144472 135.651261 
L 352.550493 94.05243 
L 352.753504 135.552712 
L 352.956515 120.028014 
L 353.159525 95.961634 
L 353.362536 130.401075 
L 353.565546 127.712917 
L 353.768557 92.299278 
L 353.971568 87.671447 
L 354.174578 109.957865 
L 354.377589 112.380605 
L 354.78361 101.50689 
L 354.986621 156.575276 
L 355.189631 101.577001 
L 355.392642 124.966278 
L 355.798663 129.347509 
L 356.001674 104.141559 
L 356.204684 121.208922 
L 356.407695 95.280249 
L 356.610705 124.48324 
L 356.813716 93.678859 
L 357.016727 93.940362 
L 357.219737 118.4677 
L 357.422748 117.654738 
L 357.625758 103.496905 
L 357.828769 101.892818 
L 358.03178 89.44382 
L 358.23479 129.601733 
L 358.437801 98.930149 
L 358.640811 90.475914 
L 358.843822 91.807138 
L 359.046833 133.475145 
L 359.249843 90.273292 
L 359.655864 128.96879 
L 359.858875 101.439207 
L 360.061885 99.124812 
L 360.264896 104.462476 
L 360.467907 92.359949 
L 360.670917 90.764853 
L 360.873928 86.611106 
L 361.076938 92.558905 
L 361.279949 109.740205 
L 361.68597 86.920311 
L 361.888981 98.450183 
L 362.091991 87.352131 
L 362.295002 91.345715 
L 362.498013 118.779701 
L 362.701023 92.003196 
L 362.904034 110.204255 
L 363.107044 89.228948 
L 363.310055 119.81518 
L 363.513066 94.725758 
L 363.716076 96.412416 
L 363.919087 110.882829 
L 364.122097 113.347252 
L 364.325108 111.003853 
L 364.528119 132.5469 
L 364.731129 82.776038 
L 364.93414 116.021222 
L 365.13715 94.889897 
L 365.340161 101.103511 
L 365.543172 90.065938 
L 365.746182 95.887846 
L 365.949193 88.920648 
L 366.152203 88.403183 
L 366.355214 94.008202 
L 366.558225 94.475134 
L 366.761235 85.179626 
L 366.964246 86.517409 
L 367.167256 85.791033 
L 367.370267 85.717541 
L 367.573278 85.940198 
L 367.776288 98.567725 
L 367.979299 102.612732 
L 368.38532 90.588006 
L 368.588331 77.935912 
L 368.791341 98.030198 
L 368.994352 99.839004 
L 369.197362 86.732298 
L 369.400373 94.592299 
L 369.603384 92.593976 
L 369.806394 114.636085 
L 370.009405 84.535829 
L 370.415426 97.94573 
L 370.618436 86.532721 
L 370.821447 83.281919 
L 371.227468 109.300097 
L 371.430479 103.642345 
L 371.633489 83.186482 
L 371.8365 90.237072 
L 372.039511 107.777341 
L 372.242521 92.616779 
L 372.445532 89.728291 
L 372.648542 104.172136 
L 372.851553 80.900964 
L 373.054564 87.270604 
L 373.257574 97.209946 
L 373.460585 99.28638 
L 373.663595 81.026951 
L 373.866606 99.500916 
L 374.069617 88.508617 
L 374.272627 98.763372 
L 374.475638 84.663609 
L 374.678648 87.697057 
L 374.881659 85.784131 
L 375.28768 95.562969 
L 375.490691 93.813672 
L 375.693701 101.617383 
L 375.896712 87.440635 
L 376.099723 98.173354 
L 376.302733 96.695917 
L 376.505744 82.09201 
L 376.708754 86.75293 
L 376.911765 96.35467 
L 377.317786 91.575022 
L 377.723807 99.528261 
L 377.926818 106.050983 
L 378.129829 77.828149 
L 378.332839 127.420173 
L 378.53585 84.82545 
L 378.73886 88.359594 
L 378.941871 118.974323 
L 379.144882 76.42056 
L 379.347892 101.051446 
L 379.550903 80.73866 
L 379.753913 81.624573 
L 380.159935 99.615268 
L 380.565956 81.356866 
L 380.768966 83.504778 
L 380.971977 83.143208 
L 381.174987 98.366991 
L 381.581009 83.438483 
L 381.784019 95.574612 
L 381.98703 80.452036 
L 382.19004 81.304677 
L 382.393051 77.143921 
L 382.799072 101.281012 
L 383.205093 75.028762 
L 383.408104 90.135516 
L 383.611115 91.859852 
L 384.017136 96.561233 
L 384.220146 112.931355 
L 384.423157 82.668564 
L 384.626168 90.155953 
L 384.829178 113.177545 
L 385.032189 91.14457 
L 385.235199 99.507709 
L 385.43821 87.810531 
L 385.641221 88.162876 
L 385.844231 108.206431 
L 386.047242 86.38489 
L 386.250252 96.907489 
L 386.453263 87.953788 
L 386.656274 86.144872 
L 386.859284 91.108839 
L 387.062295 84.127521 
L 387.265305 82.83416 
L 387.468316 91.416176 
L 387.671327 92.969178 
L 387.874337 88.875913 
L 388.077348 79.343607 
L 388.280358 86.898816 
L 388.483369 82.223072 
L 388.68638 91.533514 
L 388.88939 79.101679 
L 389.092401 108.468693 
L 389.295411 83.392945 
L 389.498422 84.615003 
L 389.701433 108.933467 
L 389.904443 94.675895 
L 390.107454 91.590917 
L 390.310464 85.976886 
L 390.513475 90.851031 
L 390.716486 90.569506 
L 390.919496 81.60085 
L 391.122507 86.227546 
L 391.325517 86.943599 
L 391.528528 72.938955 
L 391.731538 104.15597 
L 392.13756 76.80666 
L 392.746591 87.992302 
L 392.949602 85.582506 
L 393.152613 87.147567 
L 393.355623 79.257543 
L 393.558634 112.405786 
L 393.761644 83.684494 
L 394.167666 102.414207 
L 394.370676 86.392052 
L 394.573687 91.874327 
L 394.776697 82.710516 
L 394.979708 81.408286 
L 395.182719 95.721779 
L 395.385729 93.50226 
L 395.58874 93.610608 
L 395.79175 81.440156 
L 395.994761 85.968131 
L 396.197772 84.303558 
L 396.400782 91.076676 
L 396.603793 79.511471 
L 396.806803 97.308443 
L 397.009814 82.772001 
L 397.212825 92.495927 
L 397.618846 84.678473 
L 397.821856 76.984175 
L 398.024867 77.071977 
L 398.227878 77.784016 
L 398.430888 84.758956 
L 398.633899 84.675646 
L 398.836909 83.138377 
L 399.03992 96.371361 
L 399.242931 78.874758 
L 399.445941 77.841121 
L 399.648952 78.179959 
L 399.851962 101.091459 
L 400.054973 97.802936 
L 400.257984 81.923077 
L 400.460994 79.247862 
L 400.664005 100.076357 
L 400.867015 80.507406 
L 401.070026 87.820801 
L 401.273037 73.660268 
L 401.476047 89.027722 
L 401.679058 83.401185 
L 401.882068 94.547227 
L 402.085079 79.813469 
L 402.288089 92.019488 
L 402.4911 77.75086 
L 402.694111 76.697313 
L 402.897121 76.728961 
L 403.100132 83.463903 
L 403.303142 77.643843 
L 403.506153 82.641008 
L 403.709164 70.522302 
L 403.912174 85.134969 
L 404.115185 80.946717 
L 404.521206 84.890459 
L 404.724217 78.647477 
L 404.927227 90.238414 
L 405.130238 79.453759 
L 405.333248 84.39099 
L 405.536259 75.887045 
L 405.73927 79.461742 
L 405.94228 71.967242 
L 406.145291 86.192666 
L 406.348301 77.372018 
L 406.551312 79.565069 
L 406.957333 92.083054 
L 407.160344 81.054146 
L 407.769376 75.133002 
L 407.972386 82.591885 
L 408.378407 79.792268 
L 408.581418 87.135252 
L 408.784429 85.286012 
L 408.987439 84.774996 
L 409.19045 88.29492 
L 409.39346 107.374272 
L 409.596471 105.041474 
L 409.799482 94.722084 
L 410.002492 93.998799 
L 410.205503 85.140538 
L 410.408513 100.536584 
L 410.611524 100.388102 
L 410.814535 84.884418 
L 411.017545 112.1968 
L 411.220556 88.446803 
L 411.423566 108.717211 
L 411.829588 83.532649 
L 412.032598 86.151413 
L 412.235609 92.275017 
L 412.438619 80.919125 
L 412.64163 78.976755 
L 412.844641 92.239248 
L 413.047651 77.919432 
L 413.250662 77.943843 
L 413.453672 96.09888 
L 413.656683 84.302437 
L 414.062704 76.220178 
L 414.265715 78.785034 
L 414.468725 75.488789 
L 414.671736 76.100647 
L 415.077757 79.020182 
L 415.280768 77.801032 
L 415.483778 73.946351 
L 415.686789 75.956969 
L 415.889799 76.646758 
L 416.295821 71.322137 
L 416.498831 78.489029 
L 416.701842 77.974182 
L 416.904852 81.594777 
L 417.716895 69.331711 
L 417.919905 68.183636 
L 418.122916 65.909012 
L 418.325927 72.546783 
L 418.528937 69.38872 
L 418.731948 70.981731 
L 418.934958 75.808063 
L 419.137969 72.863977 
L 419.34098 72.222048 
L 419.54399 78.838082 
L 419.950011 72.034304 
L 420.153022 74.212648 
L 420.356033 72.731874 
L 420.559043 72.873925 
L 420.965064 81.572758 
L 421.168075 72.297525 
L 421.371086 73.767023 
L 421.574096 91.55978 
L 421.777107 72.366909 
L 421.980117 81.244778 
L 422.183128 76.822296 
L 422.386139 75.346338 
L 422.589149 85.425821 
L 422.79216 72.216296 
L 422.99517 78.023699 
L 423.198181 71.507177 
L 423.401192 69.900832 
L 423.604202 81.101996 
L 423.807213 78.482068 
L 424.010223 72.665636 
L 424.213234 74.731618 
L 424.416244 72.873619 
L 424.619255 74.16151 
L 424.822266 74.561392 
L 425.025276 76.37032 
L 425.228287 74.273553 
L 425.431297 74.799411 
L 425.634308 69.593424 
L 425.837319 74.493953 
L 426.040329 71.00069 
L 426.24334 72.438802 
L 426.44635 76.834308 
L 426.649361 74.214089 
L 426.852372 70.025361 
L 427.055382 70.262226 
L 427.258393 69.678011 
L 427.461403 65.81016 
L 427.664414 71.578945 
L 427.867425 68.54654 
L 428.070435 76.602427 
L 428.273446 69.077468 
L 428.476456 71.16624 
L 428.679467 67.752696 
L 429.085488 73.770342 
L 429.288499 64.830492 
L 429.491509 65.261334 
L 429.69452 75.790165 
L 429.897531 67.927446 
L 430.100541 80.321656 
L 430.303552 67.604895 
L 430.506562 75.540722 
L 430.709573 71.506638 
L 430.912584 72.920218 
L 431.115594 81.955269 
L 431.521615 70.659753 
L 431.724626 68.771131 
L 431.927637 71.396561 
L 432.130647 72.459211 
L 432.333658 70.792026 
L 432.739679 64.70201 
L 432.94269 76.362057 
L 433.551721 65.636276 
L 433.754732 65.369245 
L 434.160753 79.312734 
L 434.363764 66.808193 
L 434.566774 71.652111 
L 434.769785 69.168644 
L 434.972795 71.778598 
L 435.175806 63.263914 
L 435.378817 68.548111 
L 435.784838 73.473077 
L 435.987848 66.55597 
L 436.190859 70.983422 
L 436.39387 72.337873 
L 436.59688 70.092974 
L 436.799891 71.087105 
L 437.002901 69.026982 
L 437.205912 73.05665 
L 437.408923 70.786372 
L 437.611933 69.784578 
L 437.814944 70.67047 
L 438.017954 73.521018 
L 438.220965 67.659177 
L 438.423976 76.953745 
L 438.626986 69.646007 
L 438.829997 70.398964 
L 439.033007 65.329947 
L 439.642039 72.852574 
L 439.84505 71.437015 
L 440.04806 72.089362 
L 440.251071 65.871047 
L 440.454082 68.169997 
L 440.860103 66.144999 
L 441.063113 67.876008 
L 441.266124 65.991446 
L 441.672145 67.027831 
L 441.875156 73.086662 
L 442.281177 65.448667 
L 442.484188 68.582945 
L 442.890209 64.510155 
L 443.093219 66.864094 
L 443.29623 64.962689 
L 443.499241 70.010454 
L 443.702251 69.400101 
L 443.905262 65.858467 
L 444.108272 65.540863 
L 444.311283 66.040051 
L 444.514294 67.162256 
L 444.717304 69.722143 
L 444.920315 73.825562 
L 445.326336 65.262791 
L 445.732357 71.222699 
L 445.935368 66.901656 
L 446.138378 67.311483 
L 446.341389 64.533021 
L 446.544399 69.716272 
L 446.950421 66.209562 
L 447.153431 69.57018 
L 447.356442 67.987031 
L 447.559452 64.169445 
L 447.762463 65.280448 
L 447.965474 65.229393 
L 448.168484 68.774025 
L 448.371495 64.051474 
L 448.574505 64.273479 
L 448.777516 62.904866 
L 449.183537 68.181283 
L 449.386548 74.848784 
L 449.792569 66.240307 
L 449.99558 68.101545 
L 450.19859 67.579164 
L 450.401601 68.055573 
L 450.604611 65.812595 
L 450.807622 74.025086 
L 451.010633 68.889659 
L 451.213643 67.513716 
L 451.416654 71.885327 
L 451.822675 67.137895 
L 452.025686 69.222831 
L 452.228696 68.192603 
L 452.431707 66.368601 
L 452.634717 65.571261 
L 452.837728 71.228583 
L 453.040739 64.701307 
L 453.243749 66.798134 
L 453.44676 64.898426 
L 453.64977 70.446022 
L 453.852781 67.132361 
L 454.055792 68.077185 
L 454.258802 68.410434 
L 454.461813 65.653969 
L 454.664823 65.104685 
L 454.867834 69.613791 
L 455.070845 69.925587 
L 455.476866 62.7349 
L 455.679876 64.305659 
L 455.882887 66.977696 
L 456.085897 67.331075 
L 456.288908 64.003269 
L 456.89794 70.844007 
L 457.10095 71.196435 
L 457.303961 64.721543 
L 457.709982 69.424008 
L 457.912993 78.244868 
L 458.116003 68.136068 
L 458.319014 70.211041 
L 458.522025 66.659919 
L 458.725035 65.960038 
L 458.928046 65.945546 
L 459.131056 67.840573 
L 459.334067 67.305881 
L 459.537078 70.140554 
L 459.740088 65.362038 
L 459.943099 65.390323 
L 460.146109 64.809768 
L 460.552131 68.378574 
L 460.755141 65.451097 
L 461.364173 70.988596 
L 461.567184 69.243801 
L 461.770194 71.202991 
L 461.973205 67.663628 
L 462.176215 69.135378 
L 462.379226 73.16073 
L 462.582237 70.867103 
L 462.785247 71.313823 
L 462.988258 74.216053 
L 463.394279 68.394792 
L 463.59729 67.812459 
L 463.8003 68.765096 
L 464.003311 67.786805 
L 464.206321 65.467909 
L 464.409332 65.816871 
L 464.612343 63.900596 
L 465.018364 67.391674 
L 465.424385 69.522592 
L 465.627396 67.019935 
L 465.830406 68.089306 
L 466.033417 71.514129 
L 466.236427 67.492239 
L 466.439438 67.324502 
L 466.642448 64.737982 
L 466.845459 65.807372 
L 467.04847 64.139511 
L 467.25148 68.231646 
L 467.454491 63.871305 
L 467.657501 67.863616 
L 467.860512 64.5714 
L 468.063523 67.084197 
L 468.266533 65.049296 
L 468.469544 61.38 
L 468.672554 65.42835 
L 468.875565 65.3675 
L 469.078576 67.95044 
L 469.281586 64.85971 
L 469.484597 68.72978 
L 469.890618 69.50823 
L 470.093629 69.462521 
L 470.296639 65.795211 
L 470.49965 71.752165 
L 470.70266 64.609914 
L 470.905671 64.987976 
L 471.108682 65.065543 
L 471.311692 65.846173 
L 471.514703 64.174325 
L 471.717713 65.753652 
L 471.920724 65.8087 
L 472.123735 69.245128 
L 472.529756 66.564717 
L 472.732766 69.093822 
L 472.935777 66.637335 
L 473.138788 66.261397 
L 473.341798 68.408728 
L 473.544809 66.763619 
L 473.747819 67.209845 
L 473.95083 66.109422 
L 474.153841 68.239605 
L 474.356851 66.479614 
L 474.559862 68.955838 
L 474.762872 65.319579 
L 474.965883 67.596074 
L 475.168894 73.095958 
L 475.371904 66.002237 
L 475.574915 70.234258 
L 475.777925 70.650391 
L 475.980936 67.647532 
L 476.183947 68.705631 
L 476.386957 66.359522 
L 476.589968 69.563446 
L 476.792978 64.838363 
L 476.995989 67.741985 
L 477.40201 64.2123 
L 477.605021 65.726012 
L 478.011042 63.311954 
L 478.214052 66.376767 
L 478.620074 64.433502 
L 478.823084 63.923585 
L 479.229105 65.943365 
L 479.432116 63.215848 
L 479.635127 65.39244 
L 479.838137 64.907629 
L 480.041148 66.866375 
L 480.244158 65.064078 
L 480.447169 67.350036 
L 480.65018 64.65473 
L 480.85319 64.91115 
L 481.056201 65.842758 
L 481.259211 62.729934 
L 481.665233 67.557267 
L 481.868243 63.905664 
L 482.071254 66.709577 
L 482.274264 64.180059 
L 482.477275 69.328297 
L 482.680286 65.393 
L 482.883296 64.192109 
L 483.086307 63.690774 
L 483.289317 65.446575 
L 483.492328 63.761614 
L 483.695339 63.110136 
L 483.898349 64.786035 
L 484.10136 63.381704 
L 484.507381 66.645838 
L 484.710392 66.169036 
L 484.913402 67.800942 
L 485.116413 65.903315 
L 485.319423 67.442796 
L 485.522434 65.300264 
L 485.928455 65.150379 
L 486.131466 63.896465 
L 486.334476 65.180345 
L 486.537487 69.918446 
L 486.740498 64.266291 
L 486.943508 64.635482 
L 487.146519 65.853115 
L 487.349529 63.863262 
L 487.755551 66.805384 
L 487.958561 63.999853 
L 488.161572 64.422489 
L 488.364582 62.412524 
L 488.567593 66.434255 
L 488.770603 63.717266 
L 488.973614 64.614163 
L 489.379635 63.809684 
L 489.582646 67.26892 
L 489.785656 63.612354 
L 489.988667 65.997393 
L 490.191678 64.286629 
L 490.394688 64.669411 
L 490.597699 65.476568 
L 490.800709 65.763279 
L 491.206731 66.593042 
L 491.409741 65.500969 
L 491.612752 66.026016 
L 491.815762 64.950012 
L 492.018773 64.797426 
L 492.424794 65.190654 
L 492.627805 65.461783 
L 492.830815 64.166059 
L 493.033826 66.555773 
L 493.236837 64.481568 
L 493.439847 65.288892 
L 493.845868 64.137668 
L 494.048879 64.230273 
L 494.25189 63.119404 
L 494.4549 63.528467 
L 494.657911 65.481867 
L 494.860921 61.892685 
L 495.063932 62.999534 
L 495.266943 62.131736 
L 495.469953 62.430957 
L 495.672964 62.374524 
L 495.875974 62.806546 
L 496.078985 64.397557 
L 496.281996 62.92689 
L 496.485006 64.745248 
L 496.891027 63.184457 
L 497.094038 63.167158 
L 497.297049 64.428078 
L 497.500059 67.857844 
L 497.70307 63.861342 
L 497.90608 64.203568 
L 498.109091 66.996263 
L 498.109091 66.996263 
" clip-path="url(#p239351971b)" style="fill: none; stroke: #008080; stroke-width: 1.5; stroke-linecap: round"/>
   </g>
   <g id="line2d_32">
    <path d="M 92.290909 322.393555 
L 92.49392 320.636029 
L 92.899941 322.866761 
L 93.305962 325.321327 
L 93.508973 323.180299 
L 93.711983 323.433948 
L 94.321015 315.854742 
L 94.524026 315.933918 
L 94.727036 312.189146 
L 94.930047 312.776627 
L 95.336068 309.672882 
L 95.539079 310.63301 
L 95.742089 306.165524 
L 95.9451 305.664625 
L 96.14811 304.565775 
L 96.351121 301.377296 
L 96.554132 302.94319 
L 96.757142 300.927748 
L 96.960153 297.351142 
L 97.366174 299.847071 
L 97.569185 299.047173 
L 97.772195 296.321764 
L 97.975206 296.859175 
L 98.178216 296.268771 
L 98.381227 294.48365 
L 98.584238 290.370114 
L 98.787248 290.166888 
L 99.599291 294.468069 
L 99.802301 294.74431 
L 100.005312 295.415704 
L 100.208322 295.093503 
L 100.411333 295.136185 
L 100.614344 293.350409 
L 100.817354 293.624815 
L 101.223375 295.127505 
L 101.426386 295.548534 
L 101.832407 296.873228 
L 102.035418 297.077321 
L 102.441439 296.405865 
L 102.84746 296.953676 
L 103.050471 294.667705 
L 103.456492 295.369505 
L 103.659502 295.438447 
L 104.065524 296.541149 
L 104.268534 295.905454 
L 104.471545 295.669824 
L 104.877566 295.525856 
L 105.080577 295.662587 
L 105.486598 296.833409 
L 105.689608 296.4881 
L 105.892619 297.034171 
L 106.09563 296.4206 
L 106.29864 296.177276 
L 107.110683 297.577507 
L 107.516704 298.45617 
L 107.922725 298.675111 
L 108.125736 298.350581 
L 108.328746 297.396379 
L 108.531757 297.265812 
L 108.937778 295.749862 
L 109.140789 293.904454 
L 109.343799 293.986179 
L 109.54681 293.578463 
L 109.74982 293.833878 
L 109.952831 293.831474 
L 110.155842 293.555553 
L 110.358852 292.230715 
L 110.764873 293.045624 
L 110.967884 292.854066 
L 111.170895 292.980368 
L 111.373905 292.868868 
L 111.576916 292.234297 
L 111.779926 292.239256 
L 111.982937 292.603532 
L 112.185948 292.537951 
L 112.388958 292.068553 
L 112.591969 292.387228 
L 112.794979 292.409331 
L 112.99799 292.001599 
L 113.607022 290.134947 
L 114.013043 290.254585 
L 114.216053 289.39136 
L 114.419064 289.111681 
L 114.622075 289.341777 
L 114.825085 289.144185 
L 115.231106 289.281797 
L 115.434117 288.491589 
L 115.637128 288.73156 
L 115.840138 288.510945 
L 116.043149 288.485734 
L 116.44917 289.136427 
L 116.652181 288.758363 
L 116.855191 288.946096 
L 117.058202 288.681373 
L 117.261212 289.344178 
L 117.464223 290.476319 
L 117.667234 289.906105 
L 117.870244 288.918755 
L 118.073255 289.379349 
L 118.276265 289.302649 
L 118.479276 288.792407 
L 118.682287 288.940932 
L 118.885297 289.806328 
L 119.088308 291.546224 
L 119.291318 292.031835 
L 119.90035 289.712816 
L 120.103361 289.221663 
L 120.306371 289.235097 
L 120.712393 289.388549 
L 120.915403 289.159707 
L 121.118414 289.188999 
L 121.727446 288.506077 
L 121.930456 287.662127 
L 122.336477 287.549887 
L 122.539488 287.10551 
L 122.742499 286.993195 
L 122.945509 287.484881 
L 123.14852 286.857669 
L 123.35153 286.650955 
L 123.554541 287.699393 
L 123.757552 287.171033 
L 123.960562 287.09418 
L 124.163573 286.633162 
L 124.366583 286.716906 
L 124.569594 286.122678 
L 124.772604 286.410116 
L 124.975615 286.46434 
L 125.584647 287.406976 
L 125.787657 287.294175 
L 126.193679 286.646074 
L 126.396689 285.634596 
L 126.5997 286.078801 
L 126.80271 285.813137 
L 127.005721 285.972805 
L 127.614753 285.018498 
L 127.817763 283.629788 
L 128.020774 283.613938 
L 128.223785 283.72403 
L 128.426795 283.063495 
L 128.629806 283.413202 
L 129.035827 283.558606 
L 129.238838 284.61609 
L 129.441848 284.684029 
L 129.644859 286.4662 
L 129.847869 286.524261 
L 130.05088 286.449393 
L 130.253891 285.628103 
L 130.659912 285.501127 
L 130.862922 287.039347 
L 131.065933 287.186755 
L 131.268944 287.172508 
L 131.471954 286.641702 
L 131.674965 286.922722 
L 131.877975 286.13596 
L 132.283997 286.505938 
L 132.690018 286.226273 
L 132.893028 286.725872 
L 133.096039 286.547758 
L 133.29905 286.007687 
L 133.50206 285.913326 
L 133.705071 286.710003 
L 133.908081 286.922707 
L 134.111092 286.963573 
L 134.314103 286.862136 
L 134.517113 286.99503 
L 134.720124 287.520351 
L 134.923134 287.414197 
L 135.126145 287.776826 
L 135.532166 287.538112 
L 135.735177 287.808716 
L 135.938187 288.669667 
L 136.141198 288.499982 
L 136.344208 289.136293 
L 136.547219 288.497692 
L 136.75023 288.686793 
L 136.95324 288.653537 
L 137.562272 289.850315 
L 137.765283 289.92115 
L 137.968293 289.321044 
L 138.374314 289.949454 
L 138.780336 290.059538 
L 139.186357 290.693988 
L 139.389367 289.491694 
L 139.795389 289.346989 
L 140.20141 290.728609 
L 140.810442 291.112875 
L 141.013452 290.046102 
L 141.216463 290.201834 
L 141.622484 291.172277 
L 141.825495 291.327838 
L 142.028505 291.146462 
L 142.231516 291.146849 
L 142.434526 292.05194 
L 142.637537 291.807648 
L 142.840548 291.947739 
L 143.043558 292.448201 
L 143.246569 292.425116 
L 143.449579 292.270146 
L 143.65259 292.544785 
L 143.855601 293.022421 
L 144.058611 293.06076 
L 144.261622 293.707765 
L 144.667643 293.902274 
L 144.870654 293.768573 
L 145.276675 292.92781 
L 145.479685 293.339237 
L 145.682696 293.430078 
L 145.885706 293.281557 
L 146.088717 291.981741 
L 146.291728 291.87208 
L 146.697749 292.388413 
L 146.900759 293.04872 
L 147.10377 293.075559 
L 147.306781 293.808994 
L 147.509791 293.74738 
L 147.712802 294.141802 
L 147.915812 293.451824 
L 148.118823 293.704063 
L 148.321834 294.600612 
L 148.524844 294.342417 
L 148.727855 294.437195 
L 148.930865 294.790547 
L 149.133876 294.685218 
L 149.336887 294.744554 
L 149.742908 294.182325 
L 149.945918 294.011705 
L 150.35194 292.995823 
L 150.55495 293.342 
L 150.757961 294.29992 
L 150.960971 294.108241 
L 151.163982 294.784308 
L 151.366993 294.772299 
L 151.773014 294.303908 
L 151.976024 295.27101 
L 152.179035 295.154475 
L 152.382046 296.244268 
L 152.585056 296.549571 
L 152.788067 296.178984 
L 152.991077 296.322214 
L 153.194088 296.763627 
L 153.397099 296.885506 
L 153.600109 296.481699 
L 153.80312 296.680508 
L 154.00613 297.141714 
L 154.209141 296.489753 
L 154.412152 296.43115 
L 154.615162 296.918346 
L 154.818173 296.907558 
L 155.021183 296.596696 
L 155.427205 297.408497 
L 155.630215 296.277237 
L 155.833226 296.517964 
L 156.036236 296.480106 
L 156.239247 296.819632 
L 156.442257 296.706846 
L 156.645268 297.186162 
L 156.848279 297.16818 
L 157.051289 297.542915 
L 157.863332 297.987953 
L 158.066342 297.077135 
L 158.472363 296.889875 
L 158.675374 297.009634 
L 158.878385 297.48439 
L 159.081395 297.515343 
L 159.284406 298.598791 
L 159.690427 298.682046 
L 159.893438 299.843929 
L 160.096448 299.776412 
L 160.299459 299.290783 
L 160.502469 299.503349 
L 160.70548 300.118998 
L 160.908491 300.120223 
L 161.111501 300.348889 
L 161.314512 300.233723 
L 161.517522 300.626475 
L 161.720533 299.976953 
L 161.923544 299.888845 
L 162.126554 300.536 
L 162.329565 300.535638 
L 162.532575 300.724209 
L 162.735586 301.124808 
L 163.547628 301.611027 
L 163.750639 302.143449 
L 163.95365 302.292568 
L 164.15666 302.274267 
L 164.359671 301.55173 
L 164.562681 301.801004 
L 164.765692 301.816916 
L 164.968703 301.636874 
L 165.171713 302.209245 
L 165.374724 302.161298 
L 165.780745 303.650086 
L 166.186766 303.348042 
L 166.389777 303.43739 
L 166.592787 304.115925 
L 167.40483 304.998876 
L 168.013861 304.327124 
L 168.216872 303.280536 
L 168.419883 304.272012 
L 168.622893 303.287931 
L 168.825904 303.2697 
L 169.028914 302.663486 
L 169.637946 302.323751 
L 169.840957 302.487795 
L 170.246978 303.120956 
L 170.449989 303.38533 
L 170.652999 303.008449 
L 170.85601 303.378298 
L 171.465042 302.004193 
L 171.668052 301.956033 
L 171.871063 301.466942 
L 172.277084 301.767555 
L 172.480095 301.886786 
L 172.886116 300.264257 
L 173.089126 300.753921 
L 173.292137 300.653703 
L 173.495148 300.002442 
L 173.698158 300.152718 
L 173.901169 299.344931 
L 174.104179 299.470707 
L 174.30719 299.247002 
L 174.510201 297.875618 
L 174.713211 297.703398 
L 174.916222 297.689741 
L 175.119232 297.556549 
L 175.322243 296.61332 
L 175.525254 296.278633 
L 175.728264 294.885236 
L 175.931275 294.53399 
L 176.337296 295.293058 
L 176.540307 294.858378 
L 176.743317 293.349566 
L 176.946328 292.737557 
L 177.149338 291.218032 
L 177.555359 290.310689 
L 177.961381 288.654077 
L 178.164391 288.506748 
L 178.367402 287.349289 
L 178.773423 286.568935 
L 179.179444 286.261815 
L 179.585465 285.219085 
L 180.803529 282.928619 
L 181.818582 279.676732 
L 182.021593 279.930053 
L 182.224603 280.702401 
L 182.427614 280.574541 
L 182.630624 280.579061 
L 183.036646 279.783581 
L 183.239656 279.099827 
L 183.442667 278.007706 
L 183.645677 278.187747 
L 183.848688 277.015477 
L 184.254709 275.961611 
L 184.45772 274.506601 
L 184.66073 273.952396 
L 184.863741 274.660421 
L 186.081805 269.96761 
L 186.284815 268.14223 
L 186.487826 268.178104 
L 186.690836 267.867333 
L 186.893847 266.37808 
L 187.096858 266.798946 
L 187.502879 264.377191 
L 187.705889 264.625535 
L 187.9089 264.506152 
L 188.111911 265.037478 
L 188.314921 264.887665 
L 188.517932 264.362868 
L 188.720942 265.441306 
L 188.923953 265.115772 
L 189.532985 267.215535 
L 189.735995 267.222187 
L 189.939006 267.534547 
L 190.142016 267.254993 
L 190.345027 267.415489 
L 190.548038 267.326674 
L 190.751048 266.099437 
L 190.954059 266.553602 
L 191.157069 266.157968 
L 191.36008 265.025541 
L 191.766101 265.561369 
L 191.969112 265.114733 
L 192.375133 262.894215 
L 192.578144 262.399313 
L 193.187175 259.05808 
L 193.390186 258.877589 
L 193.593197 257.144139 
L 193.796207 257.708731 
L 194.202228 256.380823 
L 194.405239 256.950349 
L 194.81126 255.757907 
L 195.014271 256.812144 
L 195.217281 256.488256 
L 195.420292 255.685694 
L 195.623303 253.919782 
L 196.029324 255.124781 
L 196.232334 255.666124 
L 196.435345 255.658513 
L 196.638356 255.179597 
L 196.841366 253.10026 
L 197.044377 252.453859 
L 197.247387 253.211018 
L 197.450398 253.166932 
L 197.653409 253.665978 
L 197.856419 253.128674 
L 198.05943 253.73196 
L 198.26244 254.792024 
L 198.668462 255.386327 
L 199.074483 257.187268 
L 199.277493 257.359706 
L 199.480504 257.890321 
L 199.886525 256.515334 
L 200.089536 254.862254 
L 200.292546 255.177427 
L 200.495557 255.28607 
L 200.901578 255.979203 
L 201.104589 254.884299 
L 201.307599 254.456449 
L 201.51061 253.298915 
L 201.71362 253.223356 
L 201.916631 253.288118 
L 202.119642 252.924293 
L 202.322652 252.042588 
L 202.525663 250.389304 
L 202.728673 249.71426 
L 203.337705 245.53561 
L 203.540716 245.65218 
L 203.946737 244.934769 
L 204.149748 243.257722 
L 204.352758 243.782579 
L 204.758779 242.060253 
L 204.96179 241.486484 
L 205.164801 241.269492 
L 205.367811 239.488471 
L 205.570822 240.026129 
L 205.773832 239.939532 
L 205.976843 239.380282 
L 206.179854 239.222591 
L 206.585875 238.736138 
L 206.788885 239.949429 
L 206.991896 240.087723 
L 207.194907 239.870282 
L 207.397917 240.315225 
L 207.600928 238.976549 
L 207.803938 239.411166 
L 208.006949 238.836416 
L 208.615981 234.48664 
L 208.818991 232.845683 
L 209.022002 233.210495 
L 209.428023 232.684344 
L 209.631034 231.97311 
L 210.443076 226.749365 
L 210.646087 226.875438 
L 210.849097 226.551459 
L 211.052108 226.676829 
L 211.255118 227.939595 
L 211.458129 227.613452 
L 211.66114 228.445431 
L 211.86415 228.788513 
L 212.270171 229.923622 
L 212.676193 230.345286 
L 212.879203 230.841527 
L 213.082214 230.843832 
L 213.285224 230.540286 
L 213.488235 229.770985 
L 213.691246 230.047738 
L 213.894256 229.726814 
L 214.097267 230.117275 
L 214.300277 228.530728 
L 214.503288 228.657242 
L 214.909309 227.378826 
L 215.11232 227.568629 
L 215.31533 227.134394 
L 215.721352 225.516989 
L 215.924362 225.883472 
L 216.127373 226.616752 
L 217.142426 224.596118 
L 217.345436 226.596975 
L 217.548447 227.299213 
L 217.751458 227.479769 
L 217.954468 227.256065 
L 218.157479 227.574666 
L 218.360489 227.301948 
L 218.5635 226.619103 
L 218.766511 226.760486 
L 218.969521 226.4959 
L 219.578553 223.529823 
L 219.984574 222.159769 
L 220.593606 224.515619 
L 220.796616 222.634247 
L 220.999627 223.012965 
L 221.202638 222.417752 
L 221.405648 221.455309 
L 221.811669 222.672124 
L 222.01468 223.979267 
L 222.217691 223.837361 
L 222.420701 222.981898 
L 222.623712 223.02674 
L 223.029733 224.492652 
L 223.435754 225.576297 
L 223.638765 225.210443 
L 223.841775 226.084547 
L 224.247797 225.018937 
L 224.450807 224.814791 
L 224.653818 225.233212 
L 224.856828 224.249604 
L 225.26285 225.704493 
L 225.46586 227.307126 
L 225.668871 227.003038 
L 225.871881 228.13077 
L 226.074892 227.320997 
L 226.277903 227.234645 
L 226.480913 227.748415 
L 226.683924 228.720871 
L 226.886934 228.78147 
L 227.089945 228.041463 
L 227.292956 227.735056 
L 227.495966 226.875462 
L 228.104998 228.00179 
L 228.308009 227.650236 
L 228.511019 227.84987 
L 228.71403 228.541023 
L 228.91704 228.690957 
L 229.526072 230.926353 
L 229.729083 229.987817 
L 229.932093 230.603227 
L 230.135104 230.716853 
L 230.338115 231.100991 
L 230.541125 230.57056 
L 230.744136 230.927397 
L 230.947146 231.65705 
L 231.150157 231.073873 
L 231.353167 231.467234 
L 231.556178 231.178031 
L 231.759189 229.992315 
L 231.962199 229.961579 
L 232.16521 229.425659 
L 232.36822 229.622079 
L 232.774242 228.630408 
L 232.977252 228.47225 
L 233.180263 228.820448 
L 233.383273 229.726061 
L 233.586284 228.79362 
L 233.789295 229.981072 
L 233.992305 230.176764 
L 234.601337 230.254244 
L 234.804348 230.786336 
L 235.413379 230.330785 
L 235.61639 229.394499 
L 235.819401 230.551377 
L 236.022411 230.11478 
L 236.225422 231.442039 
L 236.428432 231.01174 
L 236.631443 231.516634 
L 236.834454 231.16767 
L 237.037464 230.350796 
L 237.646496 232.003085 
L 238.458538 230.24946 
L 238.661549 230.054837 
L 238.86456 230.348622 
L 239.06757 230.16095 
L 239.270581 228.631122 
L 239.473591 228.349806 
L 239.676602 228.808964 
L 240.285634 228.332553 
L 240.488644 228.696458 
L 240.691655 227.33211 
L 240.894666 226.959591 
L 241.097676 227.343006 
L 241.300687 228.249515 
L 241.706708 227.915366 
L 241.909718 228.464732 
L 242.31574 228.866725 
L 242.721761 227.753874 
L 243.330793 227.783043 
L 243.533803 229.007738 
L 243.939824 229.750296 
L 244.954877 233.792131 
L 245.157888 233.988456 
L 245.360899 235.075098 
L 245.563909 235.055798 
L 245.76692 235.461692 
L 245.96993 235.235247 
L 246.375952 235.067684 
L 246.781973 236.884793 
L 246.984983 237.023867 
L 247.187994 236.934399 
L 247.594015 237.582144 
L 247.797026 237.761569 
L 248.000036 238.43268 
L 248.203047 238.555525 
L 248.406058 239.159634 
L 248.609068 238.986379 
L 248.812079 239.117467 
L 249.015089 238.973765 
L 249.2181 238.671762 
L 249.421111 240.06439 
L 249.624121 239.897657 
L 249.827132 240.403538 
L 250.030142 239.274115 
L 250.233153 240.167869 
L 250.436164 239.18864 
L 250.639174 239.935068 
L 250.842185 239.458675 
L 251.045195 240.930912 
L 251.248206 240.779385 
L 251.451217 239.875347 
L 251.654227 240.048575 
L 252.060248 239.153513 
L 252.263259 239.537815 
L 252.466269 238.53887 
L 252.66928 238.717144 
L 252.872291 239.595965 
L 253.075301 239.013567 
L 253.278312 239.106435 
L 253.481322 239.487162 
L 253.684333 238.287209 
L 253.887344 238.231553 
L 254.090354 238.597512 
L 254.293365 237.860161 
L 254.496375 237.919621 
L 254.699386 239.125836 
L 254.902397 239.626458 
L 255.105407 239.735931 
L 255.308418 240.573155 
L 255.511428 240.693439 
L 255.91745 241.916654 
L 256.12046 243.07512 
L 256.323471 243.263347 
L 256.526481 244.122742 
L 256.932503 243.329597 
L 257.338524 244.483737 
L 257.541534 244.289702 
L 257.744545 244.932402 
L 257.947556 244.498019 
L 258.150566 244.708334 
L 258.353577 244.263288 
L 258.759598 244.872193 
L 259.165619 246.188064 
L 259.36863 245.656847 
L 259.57164 246.038753 
L 259.977662 247.590098 
L 260.180672 247.597381 
L 260.383683 247.747058 
L 260.586693 248.396211 
L 260.789704 248.566078 
L 260.992715 247.891608 
L 261.195725 248.377877 
L 261.601746 248.370794 
L 261.804757 249.131812 
L 262.007768 248.32426 
L 262.210778 248.84512 
L 262.616799 247.54616 
L 262.81981 247.61021 
L 263.022821 248.057273 
L 263.225831 248.13448 
L 263.631852 249.382201 
L 263.834863 249.238204 
L 264.240884 247.162354 
L 264.443895 247.678801 
L 265.255937 245.035328 
L 265.458948 245.033863 
L 265.661958 245.377483 
L 265.864969 244.433604 
L 266.067979 244.348084 
L 266.474001 241.984616 
L 266.677011 242.279487 
L 267.692064 238.746325 
L 267.895075 238.822107 
L 268.301096 238.159762 
L 268.504107 236.840899 
L 269.113138 235.65858 
L 269.316149 236.704168 
L 269.51916 236.914304 
L 269.72217 236.634951 
L 269.925181 235.489861 
L 270.128191 235.045462 
L 270.331202 234.17858 
L 270.534213 234.433553 
L 271.143244 231.181408 
L 271.346255 231.539922 
L 271.549266 230.946516 
L 271.955287 230.605135 
L 272.158297 230.470143 
L 272.361308 230.636041 
L 272.767329 228.936849 
L 272.97034 229.484352 
L 273.17335 228.81728 
L 273.376361 227.426931 
L 273.579372 227.23069 
L 273.985393 225.824968 
L 274.188403 226.394598 
L 274.594424 224.76772 
L 274.797435 225.859359 
L 275.000446 226.319584 
L 275.203456 225.835068 
L 275.406467 225.8748 
L 275.609477 225.781953 
L 275.812488 224.22506 
L 276.015499 225.306546 
L 276.62453 223.572032 
L 276.827541 222.414059 
L 277.233562 222.208614 
L 277.436573 222.560444 
L 277.842594 220.897551 
L 278.045605 221.046173 
L 278.248615 219.656291 
L 278.451626 219.210574 
L 278.654636 217.975558 
L 278.857647 217.548147 
L 279.060658 217.418101 
L 279.263668 217.761742 
L 279.669689 215.333391 
L 279.8727 215.735279 
L 280.278721 214.4949 
L 280.481732 212.976795 
L 280.887753 211.982715 
L 281.090764 211.577679 
L 281.293774 210.741366 
L 281.496785 210.939735 
L 281.699795 211.337088 
L 281.902806 211.33794 
L 282.105817 210.762446 
L 282.308827 209.411885 
L 282.511838 209.313593 
L 282.714848 208.284035 
L 283.12087 208.63195 
L 283.32388 208.494966 
L 283.526891 207.77099 
L 283.729901 208.683531 
L 283.932912 208.273877 
L 284.135923 207.559849 
L 284.338933 206.430378 
L 284.541944 206.41498 
L 284.947965 205.68179 
L 285.150975 205.596426 
L 285.353986 205.318405 
L 285.556997 205.349377 
L 285.760007 204.605725 
L 285.963018 204.342073 
L 286.166028 203.46754 
L 286.369039 203.478517 
L 286.57205 203.231998 
L 286.77506 203.430662 
L 287.384092 205.311451 
L 287.587103 204.430622 
L 287.993124 205.309894 
L 288.196134 204.896628 
L 288.602156 203.244601 
L 289.008177 203.413688 
L 289.414198 201.211769 
L 289.617209 200.952751 
L 289.820219 199.633336 
L 290.22624 199.488266 
L 290.429251 199.783916 
L 290.632262 199.491541 
L 290.835272 198.902206 
L 291.241293 198.546304 
L 291.444304 199.304817 
L 292.053336 199.686745 
L 292.256346 200.357794 
L 292.459357 200.51435 
L 292.865378 199.690961 
L 293.068389 199.816762 
L 293.271399 200.492832 
L 293.47441 200.092895 
L 293.677421 200.818144 
L 293.880431 200.805132 
L 294.489463 202.430189 
L 294.692474 202.147806 
L 294.895484 202.072843 
L 295.098495 203.012195 
L 295.301505 201.16579 
L 295.504516 201.037302 
L 295.707526 200.657476 
L 295.910537 199.71362 
L 296.113548 199.488504 
L 296.316558 199.663703 
L 296.519569 198.4674 
L 296.722579 198.414302 
L 296.92559 197.418189 
L 297.128601 197.277522 
L 297.331611 197.477966 
L 297.534622 196.634201 
L 297.940643 196.360833 
L 298.346664 195.063436 
L 298.549675 195.104941 
L 298.752685 194.85177 
L 298.955696 195.433887 
L 299.158707 195.28966 
L 299.361717 195.46632 
L 299.564728 195.155796 
L 299.767738 193.7678 
L 299.970749 194.235142 
L 300.17376 193.935909 
L 300.37677 193.294259 
L 300.579781 193.790281 
L 301.188813 193.507512 
L 302.000855 192.050407 
L 302.406876 190.128924 
L 302.609887 190.109832 
L 302.812897 190.749279 
L 303.015908 190.829354 
L 303.218919 190.626331 
L 303.62494 188.828433 
L 304.233972 185.345772 
L 304.639993 183.984742 
L 304.843003 184.001908 
L 305.046014 183.026926 
L 305.249025 182.926361 
L 305.452035 181.616907 
L 305.858056 181.33017 
L 306.061067 180.642863 
L 306.264077 180.471317 
L 306.467088 179.97399 
L 306.670099 179.779284 
L 307.27913 178.607154 
L 307.888162 176.024922 
L 308.091173 175.650475 
L 308.700205 173.58063 
L 308.903215 173.125077 
L 309.106226 173.270436 
L 309.512247 172.099778 
L 309.918268 172.425275 
L 310.121279 172.36742 
L 310.324289 171.939635 
L 311.136332 168.645966 
L 311.339342 168.529139 
L 312.151385 166.307355 
L 312.760417 163.298967 
L 313.369448 161.187681 
L 313.572459 160.839598 
L 313.77547 159.955637 
L 313.97848 159.7028 
L 314.181491 158.184865 
L 314.384501 157.90806 
L 314.587512 156.509195 
L 314.790523 156.496419 
L 314.993533 154.991323 
L 315.196544 154.783836 
L 315.602565 153.162238 
L 316.008586 153.006275 
L 316.414607 152.187349 
L 316.820628 151.957677 
L 317.22665 151.077309 
L 317.632671 151.00522 
L 317.835681 150.296217 
L 318.038692 150.572118 
L 318.241703 149.988405 
L 318.444713 150.174867 
L 318.647724 149.750629 
L 318.850734 149.592064 
L 319.256756 149.488353 
L 320.068798 146.637533 
L 320.271809 146.852718 
L 320.474819 145.93998 
L 320.67783 145.999236 
L 320.88084 146.385953 
L 321.083851 146.089451 
L 321.489872 145.281922 
L 321.692883 145.030716 
L 321.895893 145.405112 
L 322.301915 145.114463 
L 322.504925 144.572607 
L 322.707936 144.65167 
L 323.113957 144.17726 
L 323.519978 142.227857 
L 323.925999 141.369434 
L 324.941052 142.250612 
L 325.144063 142.080825 
L 325.347074 141.633826 
L 325.550084 141.872642 
L 326.159116 141.451576 
L 326.362127 140.819131 
L 326.565137 140.667226 
L 327.377179 140.549928 
L 327.58019 140.093639 
L 327.783201 139.348318 
L 328.189222 138.98222 
L 328.392232 138.511382 
L 328.595243 138.404508 
L 328.798254 138.139014 
L 329.001264 138.170729 
L 329.407285 138.800185 
L 329.813307 138.692247 
L 330.219328 138.023789 
L 330.422338 137.36027 
L 330.82836 137.325263 
L 331.03137 137.625821 
L 331.234381 137.680125 
L 331.640402 138.137041 
L 331.843413 137.95279 
L 332.046423 138.014668 
L 332.655455 137.401561 
L 333.061476 137.475566 
L 333.264487 137.49373 
L 333.873519 138.08852 
L 334.27954 137.615815 
L 334.685561 137.561367 
L 334.888572 137.288019 
L 335.091582 138.030228 
L 335.294593 136.992784 
L 335.700614 136.870252 
L 335.903625 137.098388 
L 336.106635 136.730401 
L 336.309646 136.659829 
L 336.512656 135.829735 
L 336.715667 135.711036 
L 336.918678 135.771958 
L 337.121688 135.125847 
L 337.324699 134.860913 
L 337.527709 135.058913 
L 337.933731 134.774348 
L 338.136741 134.483192 
L 338.339752 134.499005 
L 338.948783 132.972775 
L 339.151794 132.879906 
L 339.354805 132.936936 
L 339.760826 131.656599 
L 340.369858 131.45458 
L 340.572868 131.335134 
L 340.775879 130.951248 
L 340.978889 131.398705 
L 341.1819 131.198917 
L 341.384911 130.457662 
L 341.587921 129.28673 
L 341.790932 129.396505 
L 342.196953 129.311936 
L 342.399964 128.686521 
L 342.602974 128.977755 
L 343.008995 129.730827 
L 343.212006 129.277178 
L 343.415017 129.146846 
L 343.618027 129.594136 
L 344.024048 129.286117 
L 344.227059 129.259191 
L 344.63308 128.731795 
L 344.836091 128.989696 
L 345.039101 128.581376 
L 345.242112 128.672007 
L 345.648133 128.462735 
L 345.851144 129.025912 
L 346.257165 128.433352 
L 346.460176 128.652559 
L 346.663186 128.201909 
L 346.866197 128.255329 
L 347.069207 128.442081 
L 347.272218 128.150187 
L 347.475229 127.442172 
L 347.88125 126.83614 
L 348.08426 127.350485 
L 348.287271 127.511192 
L 348.490282 127.987861 
L 348.693292 127.541319 
L 349.099313 127.745706 
L 349.505334 127.836667 
L 349.911356 127.545449 
L 350.317377 127.075375 
L 350.520387 127.072262 
L 350.723398 127.552827 
L 351.129419 127.588882 
L 351.53544 126.785741 
L 351.738451 126.84711 
L 351.941462 126.125894 
L 352.144472 126.213628 
L 352.347483 126.111768 
L 352.550493 125.581883 
L 352.753504 125.908828 
L 352.956515 125.859354 
L 353.159525 125.571806 
L 353.362536 125.745248 
L 353.565546 125.74593 
L 353.768557 125.407873 
L 353.971568 124.747594 
L 354.174578 124.573398 
L 354.580599 123.980794 
L 354.986621 123.938152 
L 355.392642 124.044153 
L 355.595652 123.634778 
L 355.798663 123.566344 
L 356.204684 123.094545 
L 356.407695 122.613004 
L 356.610705 122.532005 
L 357.016727 122.083178 
L 357.828769 121.683365 
L 358.03178 121.115273 
L 358.437801 120.792143 
L 358.843822 120.015958 
L 359.046833 120.163518 
L 359.249843 120.051943 
L 359.452854 119.757827 
L 359.655864 119.79941 
L 360.467907 119.184409 
L 361.48296 117.714166 
L 361.888981 116.943438 
L 362.091991 116.800671 
L 362.295002 116.386848 
L 362.498013 116.329954 
L 362.701023 115.900065 
L 362.904034 115.779017 
L 363.716076 113.928575 
L 363.919087 113.942985 
L 364.122097 113.321736 
L 364.528119 113.616408 
L 364.731129 113.389625 
L 364.93414 113.554229 
L 365.13715 113.478594 
L 365.340161 112.773755 
L 365.543172 112.631991 
L 365.949193 111.575654 
L 366.152203 111.483615 
L 366.355214 110.788836 
L 366.761235 110.359498 
L 366.964246 109.749283 
L 367.167256 109.674124 
L 367.370267 109.378374 
L 367.776288 108.597171 
L 367.979299 108.600511 
L 368.182309 108.333488 
L 368.38532 108.262186 
L 368.588331 107.337272 
L 368.791341 107.086169 
L 368.994352 106.439242 
L 369.197362 106.350195 
L 369.603384 105.646104 
L 369.806394 105.609491 
L 370.415426 104.321301 
L 371.024458 103.698079 
L 371.430479 102.823532 
L 371.633489 102.339038 
L 372.039511 102.467061 
L 372.242521 102.094831 
L 372.445532 102.027831 
L 372.851553 101.444155 
L 373.054564 101.377008 
L 373.460585 100.792014 
L 373.663595 100.644146 
L 374.069617 99.950042 
L 374.475638 99.984262 
L 375.08467 99.366812 
L 375.28768 99.307961 
L 375.490691 98.686559 
L 375.693701 98.686959 
L 376.302733 97.704077 
L 377.114776 96.857259 
L 377.520797 96.84427 
L 378.129829 96.287716 
L 378.332839 96.540462 
L 378.53585 96.494736 
L 378.73886 96.086398 
L 378.941871 96.284855 
L 379.144882 96.145693 
L 379.347892 96.237221 
L 379.550903 95.715077 
L 379.956924 95.477642 
L 380.362945 95.071289 
L 380.971977 94.596612 
L 381.377998 94.699406 
L 382.19004 94.275959 
L 382.393051 94.065006 
L 382.799072 94.209743 
L 383.205093 93.729261 
L 383.408104 93.530561 
L 383.611115 93.556609 
L 383.814125 93.309805 
L 384.017136 93.327978 
L 384.220146 93.491532 
L 384.626168 92.982566 
L 384.829178 93.004087 
L 385.032189 92.594163 
L 385.235199 92.759823 
L 385.43821 92.48051 
L 385.641221 92.413905 
L 386.047242 92.447785 
L 386.859284 92.397242 
L 387.265305 92.271568 
L 388.077348 92.357099 
L 388.88939 91.865401 
L 389.092401 92.167706 
L 389.498422 91.87205 
L 389.701433 92.091864 
L 390.107454 92.08276 
L 390.310464 91.799006 
L 390.716486 91.845813 
L 390.919496 91.683983 
L 391.325517 91.717215 
L 391.528528 91.470519 
L 391.934549 91.263462 
L 392.34057 91.101828 
L 392.543581 90.877566 
L 392.949602 90.790732 
L 393.152613 90.622172 
L 393.355623 90.6059 
L 393.558634 90.854763 
L 393.964655 90.665608 
L 394.167666 90.877363 
L 394.370676 90.747572 
L 394.573687 90.780896 
L 394.979708 90.589726 
L 395.58874 90.765464 
L 396.197772 90.376531 
L 396.400782 90.412532 
L 396.603793 90.227761 
L 397.415835 90.222304 
L 397.821856 89.981728 
L 398.430888 89.380772 
L 398.633899 89.448569 
L 398.836909 89.010135 
L 399.03992 89.124451 
L 399.242931 89.030542 
L 399.445941 88.623283 
L 399.851962 88.641099 
L 400.054973 88.810052 
L 400.257984 88.813007 
L 400.460994 88.674924 
L 401.070026 88.651968 
L 401.273037 88.554497 
L 401.476047 88.61276 
L 401.679058 88.464584 
L 402.085079 88.479743 
L 403.100132 88.283209 
L 403.303142 88.049177 
L 404.115185 87.801607 
L 404.521206 87.574406 
L 404.724217 87.234961 
L 404.927227 87.30991 
L 405.130238 87.203948 
L 405.536259 86.767868 
L 405.94228 86.412529 
L 406.145291 86.393022 
L 406.348301 86.087731 
L 408.581418 85.411601 
L 409.19045 85.388834 
L 409.39346 85.66876 
L 409.596471 85.634827 
L 410.002492 85.839906 
L 410.205503 85.604332 
L 411.220556 85.928971 
L 411.626577 86.300413 
L 411.829588 86.266641 
L 412.032598 86.397457 
L 412.438619 86.210967 
L 413.047651 86.279383 
L 413.250662 86.179893 
L 413.453672 86.284016 
L 413.859693 86.257035 
L 414.062704 85.898761 
L 414.265715 85.850252 
L 415.077757 85.19309 
L 415.483778 85.0706 
L 416.295821 84.41675 
L 417.310874 83.935126 
L 417.716895 83.590462 
L 418.122916 83.20082 
L 418.934958 82.924842 
L 419.950011 82.427773 
L 420.153022 82.388492 
L 420.559043 81.860883 
L 420.965064 81.852648 
L 421.168075 81.57761 
L 421.574096 81.547893 
L 421.980117 81.458029 
L 422.183128 81.392891 
L 422.386139 81.202783 
L 422.589149 81.258351 
L 422.79216 81.06228 
L 423.198181 81.013594 
L 423.604202 80.922603 
L 424.213234 80.873813 
L 425.025276 80.511272 
L 425.431297 80.315104 
L 426.24334 80.001573 
L 426.44635 80.049762 
L 428.679467 78.844808 
L 429.085488 78.627461 
L 430.100541 77.472604 
L 430.506562 77.021363 
L 430.709573 76.886374 
L 431.115594 76.430442 
L 431.318605 76.336841 
L 431.724626 75.730774 
L 432.130647 75.12198 
L 432.536668 74.803416 
L 432.739679 74.530416 
L 433.1457 74.422338 
L 433.551721 74.076156 
L 434.769785 73.400771 
L 435.175806 73.23694 
L 436.190859 72.903213 
L 437.408923 72.567085 
L 437.814944 72.458063 
L 439.033007 72.527605 
L 440.657092 72.179222 
L 441.266124 71.938036 
L 441.672145 71.738066 
L 441.875156 71.73133 
L 442.281177 71.434061 
L 443.499241 70.766815 
L 443.905262 70.705929 
L 444.514294 70.374182 
L 449.589558 69.240699 
L 450.401601 69.20275 
L 450.604611 69.059096 
L 450.807622 69.122662 
L 452.025686 68.785759 
L 453.243749 68.667169 
L 453.64977 68.532164 
L 456.085897 68.199048 
L 456.491919 68.105363 
L 460.146109 67.655737 
L 460.958152 67.563579 
L 465.018364 67.919477 
L 469.078576 67.744543 
L 470.093629 67.734182 
L 471.311692 67.617773 
L 472.326745 67.49773 
L 473.341798 67.46191 
L 474.559862 67.478786 
L 474.965883 67.467412 
L 475.371904 67.510776 
L 475.980936 67.61595 
L 476.792978 67.683764 
L 477.198999 67.660946 
L 478.011042 67.50547 
L 478.620074 67.308999 
L 479.229105 67.227915 
L 481.259211 67.063264 
L 482.680286 66.839712 
L 483.898349 66.408378 
L 484.710392 66.322408 
L 485.725445 66.321334 
L 486.943508 66.143955 
L 488.161572 66.104461 
L 489.582646 66.060008 
L 490.394688 65.923622 
L 491.206731 65.849601 
L 492.627805 65.809924 
L 496.485006 65.050534 
L 497.500059 64.904162 
L 498.109091 64.900591 
L 498.109091 64.900591 
" clip-path="url(#p239351971b)" style="fill: none; stroke: #ff0000; stroke-linecap: round"/>
   </g>
   <g id="patch_3">
    <path d="M 72 352.44 
L 72 47.52 
" style="fill: none"/>
   </g>
   <g id="patch_4">
    <path d="M 518.4 352.44 
L 518.4 47.52 
" style="fill: none"/>
   </g>
   <g id="patch_5">
    <path d="M 72 352.44 
L 518.4 352.44 
" style="fill: none"/>
   </g>
   <g id="patch_6">
    <path d="M 72 47.52 
L 518.4 47.52 
" style="fill: none"/>
   </g>
   <g id="legend_1">
    <g id="line2d_33">
     <path d="M 81 60.177812 
L 91 60.177812 
L 101 60.177812 
" style="fill: none; stroke: #008080; stroke-width: 1.5; stroke-linecap: round"/>
    </g>
    <g id="text_18">
     <!-- Modified RF 2 -->
     <g style="fill: #262626" transform="translate(109 63.677812) scale(0.1 -0.1)">
      <defs>
       <path id="ArialMT-4d" d="M 475 0 
L 475 4581 
L 1388 4581 
L 2472 1338 
Q 2622 884 2691 659 
Q 2769 909 2934 1394 
L 4031 4581 
L 4847 4581 
L 4847 0 
L 4263 0 
L 4263 3834 
L 2931 0 
L 2384 0 
L 1059 3900 
L 1059 0 
L 475 0 
z
" transform="scale(0.015625)"/>
       <path id="ArialMT-64" d="M 2575 0 
L 2575 419 
Q 2259 -75 1647 -75 
Q 1250 -75 917 144 
Q 584 363 401 755 
Q 219 1147 219 1656 
Q 219 2153 384 2558 
Q 550 2963 881 3178 
Q 1213 3394 1622 3394 
Q 1922 3394 2156 3267 
Q 2391 3141 2538 2938 
L 2538 4581 
L 3097 4581 
L 3097 0 
L 2575 0 
z
M 797 1656 
Q 797 1019 1065 703 
Q 1334 388 1700 388 
Q 2069 388 2326 689 
Q 2584 991 2584 1609 
Q 2584 2291 2321 2609 
Q 2059 2928 1675 2928 
Q 1300 2928 1048 2622 
Q 797 2316 797 1656 
z
" transform="scale(0.015625)"/>
       <path id="ArialMT-66" d="M 556 0 
L 556 2881 
L 59 2881 
L 59 3319 
L 556 3319 
L 556 3672 
Q 556 4006 616 4169 
Q 697 4388 901 4523 
Q 1106 4659 1475 4659 
Q 1713 4659 2000 4603 
L 1916 4113 
Q 1741 4144 1584 4144 
Q 1328 4144 1222 4034 
Q 1116 3925 1116 3625 
L 1116 3319 
L 1763 3319 
L 1763 2881 
L 1116 2881 
L 1116 0 
L 556 0 
z
" transform="scale(0.015625)"/>
       <path id="ArialMT-20" transform="scale(0.015625)"/>
       <path id="ArialMT-52" d="M 503 0 
L 503 4581 
L 2534 4581 
Q 3147 4581 3465 4457 
Q 3784 4334 3975 4021 
Q 4166 3709 4166 3331 
Q 4166 2844 3850 2509 
Q 3534 2175 2875 2084 
Q 3116 1969 3241 1856 
Q 3506 1613 3744 1247 
L 4541 0 
L 3778 0 
L 3172 953 
Q 2906 1366 2734 1584 
Q 2563 1803 2427 1890 
Q 2291 1978 2150 2013 
Q 2047 2034 1813 2034 
L 1109 2034 
L 1109 0 
L 503 0 
z
M 1109 2559 
L 2413 2559 
Q 2828 2559 3062 2645 
Q 3297 2731 3419 2920 
Q 3541 3109 3541 3331 
Q 3541 3656 3305 3865 
Q 3069 4075 2559 4075 
L 1109 4075 
L 1109 2559 
z
" transform="scale(0.015625)"/>
       <path id="ArialMT-46" d="M 525 0 
L 525 4581 
L 3616 4581 
L 3616 4041 
L 1131 4041 
L 1131 2622 
L 3281 2622 
L 3281 2081 
L 1131 2081 
L 1131 0 
L 525 0 
z
" transform="scale(0.015625)"/>
      </defs>
      <use xlink:href="#ArialMT-4d"/>
      <use xlink:href="#ArialMT-6f" x="83.300781"/>
      <use xlink:href="#ArialMT-64" x="138.916016"/>
      <use xlink:href="#ArialMT-69" x="194.53125"/>
      <use xlink:href="#ArialMT-66" x="216.748047"/>
      <use xlink:href="#ArialMT-69" x="244.53125"/>
      <use xlink:href="#ArialMT-65" x="266.748047"/>
      <use xlink:href="#ArialMT-64" x="322.363281"/>
      <use xlink:href="#ArialMT-20" x="377.978516"/>
      <use xlink:href="#ArialMT-52" x="405.761719"/>
      <use xlink:href="#ArialMT-46" x="477.978516"/>
      <use xlink:href="#ArialMT-20" x="539.0625"/>
      <use xlink:href="#ArialMT-32" x="566.845703"/>
     </g>
    </g>
    <g id="line2d_34">
     <path d="M 81 74.352812 
L 91 74.352812 
L 101 74.352812 
" style="fill: none; stroke: #ff0000; stroke-linecap: round"/>
    </g>
    <g id="text_19">
     <!-- Moving Average 100 -->
     <g style="fill: #262626" transform="translate(109 77.852812) scale(0.1 -0.1)">
      <defs>
       <path id="ArialMT-76" d="M 1344 0 
L 81 3319 
L 675 3319 
L 1388 1331 
Q 1503 1009 1600 663 
Q 1675 925 1809 1294 
L 2547 3319 
L 3125 3319 
L 1869 0 
L 1344 0 
z
" transform="scale(0.015625)"/>
       <path id="ArialMT-67" d="M 319 -275 
L 866 -356 
Q 900 -609 1056 -725 
Q 1266 -881 1628 -881 
Q 2019 -881 2231 -725 
Q 2444 -569 2519 -288 
Q 2563 -116 2559 434 
Q 2191 0 1641 0 
Q 956 0 581 494 
Q 206 988 206 1678 
Q 206 2153 378 2554 
Q 550 2956 876 3175 
Q 1203 3394 1644 3394 
Q 2231 3394 2613 2919 
L 2613 3319 
L 3131 3319 
L 3131 450 
Q 3131 -325 2973 -648 
Q 2816 -972 2473 -1159 
Q 2131 -1347 1631 -1347 
Q 1038 -1347 672 -1080 
Q 306 -813 319 -275 
z
M 784 1719 
Q 784 1066 1043 766 
Q 1303 466 1694 466 
Q 2081 466 2343 764 
Q 2606 1063 2606 1700 
Q 2606 2309 2336 2618 
Q 2066 2928 1684 2928 
Q 1309 2928 1046 2623 
Q 784 2319 784 1719 
z
" transform="scale(0.015625)"/>
       <path id="ArialMT-41" d="M -9 0 
L 1750 4581 
L 2403 4581 
L 4278 0 
L 3588 0 
L 3053 1388 
L 1138 1388 
L 634 0 
L -9 0 
z
M 1313 1881 
L 2866 1881 
L 2388 3150 
Q 2169 3728 2063 4100 
Q 1975 3659 1816 3225 
L 1313 1881 
z
" transform="scale(0.015625)"/>
      </defs>
      <use xlink:href="#ArialMT-4d"/>
      <use xlink:href="#ArialMT-6f" x="83.300781"/>
      <use xlink:href="#ArialMT-76" x="138.916016"/>
      <use xlink:href="#ArialMT-69" x="188.916016"/>
      <use xlink:href="#ArialMT-6e" x="211.132812"/>
      <use xlink:href="#ArialMT-67" x="266.748047"/>
      <use xlink:href="#ArialMT-20" x="322.363281"/>
      <use xlink:href="#ArialMT-41" x="344.646484"/>
      <use xlink:href="#ArialMT-76" x="409.595703"/>
      <use xlink:href="#ArialMT-65" x="459.595703"/>
      <use xlink:href="#ArialMT-72" x="515.210938"/>
      <use xlink:href="#ArialMT-61" x="548.511719"/>
      <use xlink:href="#ArialMT-67" x="604.126953"/>
      <use xlink:href="#ArialMT-65" x="659.742188"/>
      <use xlink:href="#ArialMT-20" x="715.357422"/>
      <use xlink:href="#ArialMT-31" x="743.140625"/>
      <use xlink:href="#ArialMT-30" x="798.755859"/>
      <use xlink:href="#ArialMT-30" x="854.371094"/>
     </g>
    </g>
   </g>
  </g>
 </g>
 <defs>
  <clipPath id="p239351971b">
   <rect x="72" y="47.52" width="446.4" height="304.92"/>
  </clipPath>
 </defs>
</svg>
