<?xml version="1.0" encoding="utf-8" standalone="no"?>
<!DOCTYPE svg PUBLIC "-//W3C//DTD SVG 1.1//EN"
  "http://www.w3.org/Graphics/SVG/1.1/DTD/svg11.dtd">
<svg xmlns:xlink="http://www.w3.org/1999/xlink" width="576pt" height="396pt" viewBox="0 0 576 396" xmlns="http://www.w3.org/2000/svg" version="1.1">
 <metadata>
  <rdf:RDF xmlns:dc="http://purl.org/dc/elements/1.1/" xmlns:cc="http://creativecommons.org/ns#" xmlns:rdf="http://www.w3.org/1999/02/22-rdf-syntax-ns#">
   <cc:Work>
    <dc:type rdf:resource="http://purl.org/dc/dcmitype/StillImage"/>
    <dc:date>2023-10-10T02:26:21.135139</dc:date>
    <dc:format>image/svg+xml</dc:format>
    <dc:creator>
     <cc:Agent>
      <dc:title>Matplotlib v3.7.2, https://matplotlib.org/</dc:title>
     </cc:Agent>
    </dc:creator>
   </cc:Work>
  </rdf:RDF>
 </metadata>
 <defs>
  <style type="text/css">*{stroke-linejoin: round; stroke-linecap: butt}</style>
 </defs>
 <g id="figure_1">
  <g id="patch_1">
   <path d="M 0 396 
L 576 396 
L 576 0 
L 0 0 
z
" style="fill: #ffffff"/>
  </g>
  <g id="axes_1">
   <g id="patch_2">
    <path d="M 72 352.44 
L 518.4 352.44 
L 518.4 47.52 
L 72 47.52 
z
" style="fill: #eaeaf2"/>
   </g>
   <g id="matplotlib.axis_1">
    <g id="xtick_1">
     <g id="line2d_1">
      <path d="M 92.290909 352.44 
L 92.290909 47.52 
" clip-path="url(#pf0526de32b)" style="fill: none; stroke: #ffffff; stroke-linecap: round"/>
     </g>
     <g id="line2d_2"/>
     <g id="text_1">
      <!-- 0 -->
      <g style="fill: #262626" transform="translate(89.51044 366.597813) scale(0.1 -0.1)">
       <defs>
        <path id="ArialMT-30" d="M 266 2259 
Q 266 3072 433 3567 
Q 600 4063 929 4331 
Q 1259 4600 1759 4600 
Q 2128 4600 2406 4451 
Q 2684 4303 2865 4023 
Q 3047 3744 3150 3342 
Q 3253 2941 3253 2259 
Q 3253 1453 3087 958 
Q 2922 463 2592 192 
Q 2263 -78 1759 -78 
Q 1097 -78 719 397 
Q 266 969 266 2259 
z
M 844 2259 
Q 844 1131 1108 757 
Q 1372 384 1759 384 
Q 2147 384 2411 759 
Q 2675 1134 2675 2259 
Q 2675 3391 2411 3762 
Q 2147 4134 1753 4134 
Q 1366 4134 1134 3806 
Q 844 3388 844 2259 
z
" transform="scale(0.015625)"/>
       </defs>
       <use xlink:href="#ArialMT-30"/>
      </g>
     </g>
    </g>
    <g id="xtick_2">
     <g id="line2d_3">
      <path d="M 143.043558 352.44 
L 143.043558 47.52 
" clip-path="url(#pf0526de32b)" style="fill: none; stroke: #ffffff; stroke-linecap: round"/>
     </g>
     <g id="line2d_4"/>
     <g id="text_2">
      <!-- 250 -->
      <g style="fill: #262626" transform="translate(134.702152 366.597813) scale(0.1 -0.1)">
       <defs>
        <path id="ArialMT-32" d="M 3222 541 
L 3222 0 
L 194 0 
Q 188 203 259 391 
Q 375 700 629 1000 
Q 884 1300 1366 1694 
Q 2113 2306 2375 2664 
Q 2638 3022 2638 3341 
Q 2638 3675 2398 3904 
Q 2159 4134 1775 4134 
Q 1369 4134 1125 3890 
Q 881 3647 878 3216 
L 300 3275 
Q 359 3922 746 4261 
Q 1134 4600 1788 4600 
Q 2447 4600 2831 4234 
Q 3216 3869 3216 3328 
Q 3216 3053 3103 2787 
Q 2991 2522 2730 2228 
Q 2469 1934 1863 1422 
Q 1356 997 1212 845 
Q 1069 694 975 541 
L 3222 541 
z
" transform="scale(0.015625)"/>
        <path id="ArialMT-35" d="M 266 1200 
L 856 1250 
Q 922 819 1161 601 
Q 1400 384 1738 384 
Q 2144 384 2425 690 
Q 2706 997 2706 1503 
Q 2706 1984 2436 2262 
Q 2166 2541 1728 2541 
Q 1456 2541 1237 2417 
Q 1019 2294 894 2097 
L 366 2166 
L 809 4519 
L 3088 4519 
L 3088 3981 
L 1259 3981 
L 1013 2750 
Q 1425 3038 1878 3038 
Q 2478 3038 2890 2622 
Q 3303 2206 3303 1553 
Q 3303 931 2941 478 
Q 2500 -78 1738 -78 
Q 1113 -78 717 272 
Q 322 622 266 1200 
z
" transform="scale(0.015625)"/>
       </defs>
       <use xlink:href="#ArialMT-32"/>
       <use xlink:href="#ArialMT-35" x="55.615234"/>
       <use xlink:href="#ArialMT-30" x="111.230469"/>
      </g>
     </g>
    </g>
    <g id="xtick_3">
     <g id="line2d_5">
      <path d="M 193.796207 352.44 
L 193.796207 47.52 
" clip-path="url(#pf0526de32b)" style="fill: none; stroke: #ffffff; stroke-linecap: round"/>
     </g>
     <g id="line2d_6"/>
     <g id="text_3">
      <!-- 500 -->
      <g style="fill: #262626" transform="translate(185.454801 366.597813) scale(0.1 -0.1)">
       <use xlink:href="#ArialMT-35"/>
       <use xlink:href="#ArialMT-30" x="55.615234"/>
       <use xlink:href="#ArialMT-30" x="111.230469"/>
      </g>
     </g>
    </g>
    <g id="xtick_4">
     <g id="line2d_7">
      <path d="M 244.548856 352.44 
L 244.548856 47.52 
" clip-path="url(#pf0526de32b)" style="fill: none; stroke: #ffffff; stroke-linecap: round"/>
     </g>
     <g id="line2d_8"/>
     <g id="text_4">
      <!-- 750 -->
      <g style="fill: #262626" transform="translate(236.20745 366.597813) scale(0.1 -0.1)">
       <defs>
        <path id="ArialMT-37" d="M 303 3981 
L 303 4522 
L 3269 4522 
L 3269 4084 
Q 2831 3619 2401 2847 
Q 1972 2075 1738 1259 
Q 1569 684 1522 0 
L 944 0 
Q 953 541 1156 1306 
Q 1359 2072 1739 2783 
Q 2119 3494 2547 3981 
L 303 3981 
z
" transform="scale(0.015625)"/>
       </defs>
       <use xlink:href="#ArialMT-37"/>
       <use xlink:href="#ArialMT-35" x="55.615234"/>
       <use xlink:href="#ArialMT-30" x="111.230469"/>
      </g>
     </g>
    </g>
    <g id="xtick_5">
     <g id="line2d_9">
      <path d="M 295.301505 352.44 
L 295.301505 47.52 
" clip-path="url(#pf0526de32b)" style="fill: none; stroke: #ffffff; stroke-linecap: round"/>
     </g>
     <g id="line2d_10"/>
     <g id="text_5">
      <!-- 1000 -->
      <g style="fill: #262626" transform="translate(284.17963 366.597813) scale(0.1 -0.1)">
       <defs>
        <path id="ArialMT-31" d="M 2384 0 
L 1822 0 
L 1822 3584 
Q 1619 3391 1289 3197 
Q 959 3003 697 2906 
L 697 3450 
Q 1169 3672 1522 3987 
Q 1875 4303 2022 4600 
L 2384 4600 
L 2384 0 
z
" transform="scale(0.015625)"/>
       </defs>
       <use xlink:href="#ArialMT-31"/>
       <use xlink:href="#ArialMT-30" x="55.615234"/>
       <use xlink:href="#ArialMT-30" x="111.230469"/>
       <use xlink:href="#ArialMT-30" x="166.845703"/>
      </g>
     </g>
    </g>
    <g id="xtick_6">
     <g id="line2d_11">
      <path d="M 346.054154 352.44 
L 346.054154 47.52 
" clip-path="url(#pf0526de32b)" style="fill: none; stroke: #ffffff; stroke-linecap: round"/>
     </g>
     <g id="line2d_12"/>
     <g id="text_6">
      <!-- 1250 -->
      <g style="fill: #262626" transform="translate(334.932279 366.597813) scale(0.1 -0.1)">
       <use xlink:href="#ArialMT-31"/>
       <use xlink:href="#ArialMT-32" x="55.615234"/>
       <use xlink:href="#ArialMT-35" x="111.230469"/>
       <use xlink:href="#ArialMT-30" x="166.845703"/>
      </g>
     </g>
    </g>
    <g id="xtick_7">
     <g id="line2d_13">
      <path d="M 396.806803 352.44 
L 396.806803 47.52 
" clip-path="url(#pf0526de32b)" style="fill: none; stroke: #ffffff; stroke-linecap: round"/>
     </g>
     <g id="line2d_14"/>
     <g id="text_7">
      <!-- 1500 -->
      <g style="fill: #262626" transform="translate(385.684928 366.597813) scale(0.1 -0.1)">
       <use xlink:href="#ArialMT-31"/>
       <use xlink:href="#ArialMT-35" x="55.615234"/>
       <use xlink:href="#ArialMT-30" x="111.230469"/>
       <use xlink:href="#ArialMT-30" x="166.845703"/>
      </g>
     </g>
    </g>
    <g id="xtick_8">
     <g id="line2d_15">
      <path d="M 447.559452 352.44 
L 447.559452 47.52 
" clip-path="url(#pf0526de32b)" style="fill: none; stroke: #ffffff; stroke-linecap: round"/>
     </g>
     <g id="line2d_16"/>
     <g id="text_8">
      <!-- 1750 -->
      <g style="fill: #262626" transform="translate(436.437577 366.597813) scale(0.1 -0.1)">
       <use xlink:href="#ArialMT-31"/>
       <use xlink:href="#ArialMT-37" x="55.615234"/>
       <use xlink:href="#ArialMT-35" x="111.230469"/>
       <use xlink:href="#ArialMT-30" x="166.845703"/>
      </g>
     </g>
    </g>
    <g id="xtick_9">
     <g id="line2d_17">
      <path d="M 498.312102 352.44 
L 498.312102 47.52 
" clip-path="url(#pf0526de32b)" style="fill: none; stroke: #ffffff; stroke-linecap: round"/>
     </g>
     <g id="line2d_18"/>
     <g id="text_9">
      <!-- 2000 -->
      <g style="fill: #262626" transform="translate(487.190227 366.597813) scale(0.1 -0.1)">
       <use xlink:href="#ArialMT-32"/>
       <use xlink:href="#ArialMT-30" x="55.615234"/>
       <use xlink:href="#ArialMT-30" x="111.230469"/>
       <use xlink:href="#ArialMT-30" x="166.845703"/>
      </g>
     </g>
    </g>
    <g id="text_10">
     <!-- Iteration -->
     <g style="fill: #262626" transform="translate(275.328672 380.458906) scale(0.11 -0.11)">
      <defs>
       <path id="ArialMT-49" d="M 597 0 
L 597 4581 
L 1203 4581 
L 1203 0 
L 597 0 
z
" transform="scale(0.015625)"/>
       <path id="ArialMT-74" d="M 1650 503 
L 1731 6 
Q 1494 -44 1306 -44 
Q 1000 -44 831 53 
Q 663 150 594 308 
Q 525 466 525 972 
L 525 2881 
L 113 2881 
L 113 3319 
L 525 3319 
L 525 4141 
L 1084 4478 
L 1084 3319 
L 1650 3319 
L 1650 2881 
L 1084 2881 
L 1084 941 
Q 1084 700 1114 631 
Q 1144 563 1211 522 
Q 1278 481 1403 481 
Q 1497 481 1650 503 
z
" transform="scale(0.015625)"/>
       <path id="ArialMT-65" d="M 2694 1069 
L 3275 997 
Q 3138 488 2766 206 
Q 2394 -75 1816 -75 
Q 1088 -75 661 373 
Q 234 822 234 1631 
Q 234 2469 665 2931 
Q 1097 3394 1784 3394 
Q 2450 3394 2872 2941 
Q 3294 2488 3294 1666 
Q 3294 1616 3291 1516 
L 816 1516 
Q 847 969 1125 678 
Q 1403 388 1819 388 
Q 2128 388 2347 550 
Q 2566 713 2694 1069 
z
M 847 1978 
L 2700 1978 
Q 2663 2397 2488 2606 
Q 2219 2931 1791 2931 
Q 1403 2931 1139 2672 
Q 875 2413 847 1978 
z
" transform="scale(0.015625)"/>
       <path id="ArialMT-72" d="M 416 0 
L 416 3319 
L 922 3319 
L 922 2816 
Q 1116 3169 1280 3281 
Q 1444 3394 1641 3394 
Q 1925 3394 2219 3213 
L 2025 2691 
Q 1819 2813 1613 2813 
Q 1428 2813 1281 2702 
Q 1134 2591 1072 2394 
Q 978 2094 978 1738 
L 978 0 
L 416 0 
z
" transform="scale(0.015625)"/>
       <path id="ArialMT-61" d="M 2588 409 
Q 2275 144 1986 34 
Q 1697 -75 1366 -75 
Q 819 -75 525 192 
Q 231 459 231 875 
Q 231 1119 342 1320 
Q 453 1522 633 1644 
Q 813 1766 1038 1828 
Q 1203 1872 1538 1913 
Q 2219 1994 2541 2106 
Q 2544 2222 2544 2253 
Q 2544 2597 2384 2738 
Q 2169 2928 1744 2928 
Q 1347 2928 1158 2789 
Q 969 2650 878 2297 
L 328 2372 
Q 403 2725 575 2942 
Q 747 3159 1072 3276 
Q 1397 3394 1825 3394 
Q 2250 3394 2515 3294 
Q 2781 3194 2906 3042 
Q 3031 2891 3081 2659 
Q 3109 2516 3109 2141 
L 3109 1391 
Q 3109 606 3145 398 
Q 3181 191 3288 0 
L 2700 0 
Q 2613 175 2588 409 
z
M 2541 1666 
Q 2234 1541 1622 1453 
Q 1275 1403 1131 1340 
Q 988 1278 909 1158 
Q 831 1038 831 891 
Q 831 666 1001 516 
Q 1172 366 1500 366 
Q 1825 366 2078 508 
Q 2331 650 2450 897 
Q 2541 1088 2541 1459 
L 2541 1666 
z
" transform="scale(0.015625)"/>
       <path id="ArialMT-69" d="M 425 3934 
L 425 4581 
L 988 4581 
L 988 3934 
L 425 3934 
z
M 425 0 
L 425 3319 
L 988 3319 
L 988 0 
L 425 0 
z
" transform="scale(0.015625)"/>
       <path id="ArialMT-6f" d="M 213 1659 
Q 213 2581 725 3025 
Q 1153 3394 1769 3394 
Q 2453 3394 2887 2945 
Q 3322 2497 3322 1706 
Q 3322 1066 3130 698 
Q 2938 331 2570 128 
Q 2203 -75 1769 -75 
Q 1072 -75 642 372 
Q 213 819 213 1659 
z
M 791 1659 
Q 791 1022 1069 705 
Q 1347 388 1769 388 
Q 2188 388 2466 706 
Q 2744 1025 2744 1678 
Q 2744 2294 2464 2611 
Q 2184 2928 1769 2928 
Q 1347 2928 1069 2612 
Q 791 2297 791 1659 
z
" transform="scale(0.015625)"/>
       <path id="ArialMT-6e" d="M 422 0 
L 422 3319 
L 928 3319 
L 928 2847 
Q 1294 3394 1984 3394 
Q 2284 3394 2536 3286 
Q 2788 3178 2913 3003 
Q 3038 2828 3088 2588 
Q 3119 2431 3119 2041 
L 3119 0 
L 2556 0 
L 2556 2019 
Q 2556 2363 2490 2533 
Q 2425 2703 2258 2804 
Q 2091 2906 1866 2906 
Q 1506 2906 1245 2678 
Q 984 2450 984 1813 
L 984 0 
L 422 0 
z
" transform="scale(0.015625)"/>
      </defs>
      <use xlink:href="#ArialMT-49"/>
      <use xlink:href="#ArialMT-74" x="27.783203"/>
      <use xlink:href="#ArialMT-65" x="55.566406"/>
      <use xlink:href="#ArialMT-72" x="111.181641"/>
      <use xlink:href="#ArialMT-61" x="144.482422"/>
      <use xlink:href="#ArialMT-74" x="200.097656"/>
      <use xlink:href="#ArialMT-69" x="227.880859"/>
      <use xlink:href="#ArialMT-6f" x="250.097656"/>
      <use xlink:href="#ArialMT-6e" x="305.712891"/>
     </g>
    </g>
   </g>
   <g id="matplotlib.axis_2">
    <g id="ytick_1">
     <g id="line2d_19">
      <path d="M 72 338.58 
L 518.4 338.58 
" clip-path="url(#pf0526de32b)" style="fill: none; stroke: #ffffff; stroke-linecap: round"/>
     </g>
     <g id="line2d_20"/>
     <g id="text_11">
      <!-- 0 -->
      <g style="fill: #262626" transform="translate(59.439062 342.158906) scale(0.1 -0.1)">
       <use xlink:href="#ArialMT-30"/>
      </g>
     </g>
    </g>
    <g id="ytick_2">
     <g id="line2d_21">
      <path d="M 72 283.401173 
L 518.4 283.401173 
" clip-path="url(#pf0526de32b)" style="fill: none; stroke: #ffffff; stroke-linecap: round"/>
     </g>
     <g id="line2d_22"/>
     <g id="text_12">
      <!-- 1 -->
      <g style="fill: #262626" transform="translate(59.439062 286.980079) scale(0.1 -0.1)">
       <use xlink:href="#ArialMT-31"/>
      </g>
     </g>
    </g>
    <g id="ytick_3">
     <g id="line2d_23">
      <path d="M 72 228.222345 
L 518.4 228.222345 
" clip-path="url(#pf0526de32b)" style="fill: none; stroke: #ffffff; stroke-linecap: round"/>
     </g>
     <g id="line2d_24"/>
     <g id="text_13">
      <!-- 2 -->
      <g style="fill: #262626" transform="translate(59.439062 231.801252) scale(0.1 -0.1)">
       <use xlink:href="#ArialMT-32"/>
      </g>
     </g>
    </g>
    <g id="ytick_4">
     <g id="line2d_25">
      <path d="M 72 173.043518 
L 518.4 173.043518 
" clip-path="url(#pf0526de32b)" style="fill: none; stroke: #ffffff; stroke-linecap: round"/>
     </g>
     <g id="line2d_26"/>
     <g id="text_14">
      <!-- 3 -->
      <g style="fill: #262626" transform="translate(59.439062 176.622424) scale(0.1 -0.1)">
       <defs>
        <path id="ArialMT-33" d="M 269 1209 
L 831 1284 
Q 928 806 1161 595 
Q 1394 384 1728 384 
Q 2125 384 2398 659 
Q 2672 934 2672 1341 
Q 2672 1728 2419 1979 
Q 2166 2231 1775 2231 
Q 1616 2231 1378 2169 
L 1441 2663 
Q 1497 2656 1531 2656 
Q 1891 2656 2178 2843 
Q 2466 3031 2466 3422 
Q 2466 3731 2256 3934 
Q 2047 4138 1716 4138 
Q 1388 4138 1169 3931 
Q 950 3725 888 3313 
L 325 3413 
Q 428 3978 793 4289 
Q 1159 4600 1703 4600 
Q 2078 4600 2393 4439 
Q 2709 4278 2876 4000 
Q 3044 3722 3044 3409 
Q 3044 3113 2884 2869 
Q 2725 2625 2413 2481 
Q 2819 2388 3044 2092 
Q 3269 1797 3269 1353 
Q 3269 753 2831 336 
Q 2394 -81 1725 -81 
Q 1122 -81 723 278 
Q 325 638 269 1209 
z
" transform="scale(0.015625)"/>
       </defs>
       <use xlink:href="#ArialMT-33"/>
      </g>
     </g>
    </g>
    <g id="ytick_5">
     <g id="line2d_27">
      <path d="M 72 117.864691 
L 518.4 117.864691 
" clip-path="url(#pf0526de32b)" style="fill: none; stroke: #ffffff; stroke-linecap: round"/>
     </g>
     <g id="line2d_28"/>
     <g id="text_15">
      <!-- 4 -->
      <g style="fill: #262626" transform="translate(59.439062 121.443597) scale(0.1 -0.1)">
       <defs>
        <path id="ArialMT-34" d="M 2069 0 
L 2069 1097 
L 81 1097 
L 81 1613 
L 2172 4581 
L 2631 4581 
L 2631 1613 
L 3250 1613 
L 3250 1097 
L 2631 1097 
L 2631 0 
L 2069 0 
z
M 2069 1613 
L 2069 3678 
L 634 1613 
L 2069 1613 
z
" transform="scale(0.015625)"/>
       </defs>
       <use xlink:href="#ArialMT-34"/>
      </g>
     </g>
    </g>
    <g id="ytick_6">
     <g id="line2d_29">
      <path d="M 72 62.685864 
L 518.4 62.685864 
" clip-path="url(#pf0526de32b)" style="fill: none; stroke: #ffffff; stroke-linecap: round"/>
     </g>
     <g id="line2d_30"/>
     <g id="text_16">
      <!-- 5 -->
      <g style="fill: #262626" transform="translate(59.439062 66.26477) scale(0.1 -0.1)">
       <use xlink:href="#ArialMT-35"/>
      </g>
     </g>
    </g>
    <g id="text_17">
     <!-- U2 Rate -->
     <g style="fill: #262626" transform="translate(53.252812 220.155547) rotate(-90) scale(0.11 -0.11)">
      <defs>
       <path id="ArialMT-55" d="M 3500 4581 
L 4106 4581 
L 4106 1934 
Q 4106 1244 3950 837 
Q 3794 431 3386 176 
Q 2978 -78 2316 -78 
Q 1672 -78 1262 144 
Q 853 366 678 786 
Q 503 1206 503 1934 
L 503 4581 
L 1109 4581 
L 1109 1938 
Q 1109 1341 1220 1058 
Q 1331 775 1601 622 
Q 1872 469 2263 469 
Q 2931 469 3215 772 
Q 3500 1075 3500 1938 
L 3500 4581 
z
" transform="scale(0.015625)"/>
       <path id="ArialMT-20" transform="scale(0.015625)"/>
       <path id="ArialMT-52" d="M 503 0 
L 503 4581 
L 2534 4581 
Q 3147 4581 3465 4457 
Q 3784 4334 3975 4021 
Q 4166 3709 4166 3331 
Q 4166 2844 3850 2509 
Q 3534 2175 2875 2084 
Q 3116 1969 3241 1856 
Q 3506 1613 3744 1247 
L 4541 0 
L 3778 0 
L 3172 953 
Q 2906 1366 2734 1584 
Q 2563 1803 2427 1890 
Q 2291 1978 2150 2013 
Q 2047 2034 1813 2034 
L 1109 2034 
L 1109 0 
L 503 0 
z
M 1109 2559 
L 2413 2559 
Q 2828 2559 3062 2645 
Q 3297 2731 3419 2920 
Q 3541 3109 3541 3331 
Q 3541 3656 3305 3865 
Q 3069 4075 2559 4075 
L 1109 4075 
L 1109 2559 
z
" transform="scale(0.015625)"/>
      </defs>
      <use xlink:href="#ArialMT-55"/>
      <use xlink:href="#ArialMT-32" x="72.216797"/>
      <use xlink:href="#ArialMT-20" x="127.832031"/>
      <use xlink:href="#ArialMT-52" x="155.615234"/>
      <use xlink:href="#ArialMT-61" x="227.832031"/>
      <use xlink:href="#ArialMT-74" x="283.447266"/>
      <use xlink:href="#ArialMT-65" x="311.230469"/>
     </g>
    </g>
   </g>
   <g id="line2d_31">
    <path d="M 92.290909 338.58 
L 92.49392 317.903157 
L 92.69693 326.093379 
L 92.899941 324.223995 
L 93.102951 330.473124 
L 93.305962 332.538166 
L 93.508973 319.634398 
L 93.711983 324.162111 
L 94.118004 268.365283 
L 94.321015 326.268728 
L 94.524026 315.621652 
L 94.727036 257.905331 
L 94.930047 321.363732 
L 95.133057 275.25844 
L 95.336068 289.531929 
L 95.539079 329.712503 
L 95.742089 217.264504 
L 95.9451 292.460367 
L 96.14811 276.847396 
L 96.351121 225.889698 
L 96.554132 336.363822 
L 96.960153 199.657011 
L 97.163163 329.700618 
L 97.366174 331.182249 
L 97.772195 210.788659 
L 97.975206 311.003151 
L 98.381227 229.42941 
L 98.584238 140.704541 
L 98.787248 279.405523 
L 98.990259 323.993687 
L 99.193269 337.947306 
L 99.39628 334.321041 
L 99.802301 313.468291 
L 100.005312 321.216331 
L 100.208322 275.665386 
L 100.411333 305.820953 
L 100.614344 207.125773 
L 100.817354 300.763603 
L 101.020365 333.548964 
L 101.426386 312.343942 
L 101.629397 335.564634 
L 102.035418 303.323724 
L 102.238428 274.573151 
L 102.441439 279.31685 
L 102.644449 331.254284 
L 102.84746 315.080307 
L 103.050471 152.799826 
L 103.253481 315.166867 
L 103.456492 313.577395 
L 103.659502 293.985245 
L 103.862513 334.643388 
L 104.065524 336.597415 
L 104.268534 249.144413 
L 104.471545 277.590465 
L 104.674555 287.934582 
L 104.877566 284.066843 
L 105.486598 337.010332 
L 105.689608 265.099164 
L 105.892619 333.968891 
L 106.09563 245.531027 
L 106.29864 277.689006 
L 106.501651 327.806188 
L 106.704661 308.880428 
L 106.907672 330.855299 
L 107.110683 335.641985 
L 107.313693 336.435307 
L 107.516704 331.296742 
L 107.719714 306.921027 
L 107.922725 302.392046 
L 108.125736 274.726375 
L 108.328746 207.27975 
L 108.531757 280.158704 
L 108.734767 210.186004 
L 108.937778 234.598227 
L 109.140789 115.897358 
L 109.343799 302.09645 
L 109.54681 249.664887 
L 109.74982 321.262705 
L 110.155842 260.600082 
L 110.358852 153.977542 
L 110.561863 319.138658 
L 110.764873 336.993631 
L 110.967884 267.97168 
L 111.170895 300.412978 
L 111.373905 281.774863 
L 111.576916 220.082787 
L 111.982937 331.640168 
L 112.388958 233.525817 
L 112.591969 338.58 
L 112.794979 323.501824 
L 113.201001 239.025684 
L 113.607022 267.338206 
L 113.810032 335.469 
L 114.013043 324.182652 
L 114.216053 225.677778 
L 114.622075 303.169279 
L 114.825085 292.616564 
L 115.028096 326.017445 
L 115.434117 230.785303 
L 115.637128 303.446761 
L 115.840138 262.961733 
L 116.043149 320.853885 
L 116.246159 266.527887 
L 116.44917 328.864904 
L 116.652181 234.973446 
L 116.855191 247.059784 
L 117.058202 313.738727 
L 117.464223 332.375072 
L 117.870244 219.002037 
L 118.073255 325.065651 
L 118.276265 199.796859 
L 118.885297 330.075002 
L 119.088308 338.58 
L 119.291318 333.699097 
L 119.494329 230.804783 
L 119.69734 186.031916 
L 119.90035 322.212038 
L 120.103361 273.243988 
L 120.509382 334.923892 
L 120.712393 280.821556 
L 120.915403 266.484153 
L 121.118414 208.818178 
L 121.524435 330.474003 
L 121.930456 215.470998 
L 122.133467 335.72348 
L 122.336477 306.624437 
L 122.539488 255.849961 
L 122.742499 263.471058 
L 122.945509 337.905396 
L 123.14852 243.474807 
L 123.35153 277.332295 
L 123.554541 274.13184 
L 123.757552 257.410409 
L 123.960562 299.417755 
L 124.163573 243.949757 
L 124.366583 337.780771 
L 124.569594 257.452744 
L 124.772604 281.929694 
L 124.975615 280.13635 
L 125.178626 334.414936 
L 125.381636 327.7525 
L 125.584647 337.622522 
L 125.787657 322.610244 
L 126.396689 225.781099 
L 126.5997 295.379266 
L 126.80271 243.176251 
L 127.005721 334.04963 
L 127.208732 273.213333 
L 127.411742 301.311657 
L 127.614753 288.248646 
L 127.817763 173.086759 
L 128.020774 326.367381 
L 128.223785 316.084741 
L 128.426795 228.530164 
L 128.629806 303.933837 
L 128.832816 222.978689 
L 129.238838 328.623264 
L 129.441848 248.200856 
L 129.644859 322.674122 
L 129.847869 303.646097 
L 130.05088 242.311965 
L 130.253891 219.224885 
L 130.456901 286.096208 
L 130.659912 250.445606 
L 130.862922 328.536983 
L 131.065933 337.293723 
L 131.268944 336.279778 
L 131.471954 210.375268 
L 131.674965 332.041684 
L 131.877975 185.826228 
L 132.283997 302.042727 
L 132.487007 310.623974 
L 132.690018 264.438524 
L 132.893028 291.035362 
L 133.096039 302.572893 
L 133.29905 265.169364 
L 133.50206 261.051604 
L 133.705071 335.34318 
L 133.908081 291.319338 
L 134.111092 273.535306 
L 134.314103 325.290729 
L 134.517113 331.134795 
L 134.923134 250.782593 
L 135.126145 335.377353 
L 135.329155 276.356752 
L 135.532166 318.915769 
L 135.735177 292.937689 
L 135.938187 325.800398 
L 136.141198 283.38426 
L 136.344208 338.092977 
L 136.547219 250.913822 
L 136.95324 319.737629 
L 137.156251 284.66512 
L 137.359261 300.351271 
L 137.562272 337.331404 
L 137.765283 332.597087 
L 137.968293 260.009925 
L 138.171304 308.181817 
L 138.374314 246.141323 
L 138.577325 331.344056 
L 138.780336 212.481837 
L 138.983346 300.602308 
L 139.186357 315.537389 
L 139.389367 198.653473 
L 139.592378 329.452241 
L 139.795389 330.734127 
L 139.998399 316.378422 
L 140.20141 257.702942 
L 140.40442 336.883104 
L 140.607431 300.770343 
L 140.810442 299.213569 
L 141.013452 223.234924 
L 141.216463 294.655645 
L 141.419473 326.689987 
L 141.622484 257.382126 
L 141.825495 298.457422 
L 142.028505 297.313901 
L 142.231516 283.036589 
L 142.434526 321.18485 
L 142.637537 309.978871 
L 142.840548 320.776314 
L 143.043558 311.874006 
L 143.246569 261.26194 
L 143.449579 310.871719 
L 143.65259 281.38194 
L 143.855601 331.112646 
L 144.058611 276.036996 
L 144.261622 338.174203 
L 144.464632 316.819928 
L 144.667643 246.091233 
L 144.870654 324.540181 
L 145.073664 208.429881 
L 145.276675 235.933851 
L 145.479685 337.213748 
L 145.682696 338.132767 
L 145.885706 306.566576 
L 146.088717 183.554521 
L 146.291728 307.277723 
L 146.494738 318.791256 
L 146.697749 276.95203 
L 146.900759 302.43026 
L 147.10377 298.433854 
L 147.306781 328.287967 
L 147.509791 329.171624 
L 147.712802 319.120609 
L 147.915812 222.043692 
L 148.118823 316.834958 
L 148.321834 284.325984 
L 148.727855 329.875379 
L 148.930865 267.676564 
L 149.133876 292.169582 
L 149.336887 230.544832 
L 149.539897 244.830649 
L 149.742908 301.062279 
L 149.945918 225.590039 
L 150.148929 272.219216 
L 150.35194 235.726263 
L 150.757961 328.439804 
L 150.960971 263.976673 
L 151.163982 325.897193 
L 151.366993 327.257539 
L 151.570003 320.073033 
L 151.773014 304.155077 
L 151.976024 320.310672 
L 152.179035 324.212514 
L 152.585056 298.691308 
L 152.788067 264.380083 
L 152.991077 328.584401 
L 153.194088 322.904272 
L 153.397099 311.805963 
L 153.600109 267.807587 
L 153.80312 284.275723 
L 154.00613 319.669844 
L 154.209141 258.034828 
L 154.412152 276.786569 
L 154.615162 327.619004 
L 154.818173 325.011404 
L 155.021183 297.184314 
L 155.224194 333.587394 
L 155.427205 298.349374 
L 155.630215 207.289558 
L 155.833226 295.178595 
L 156.239247 332.480323 
L 156.442257 314.936351 
L 156.645268 338.58 
L 156.848279 334.127895 
L 157.051289 291.421318 
L 157.2543 294.967886 
L 157.45731 333.86748 
L 157.660321 302.2891 
L 157.863332 310.830059 
L 158.066342 232.605822 
L 158.269353 319.410979 
L 158.472363 249.240057 
L 158.675374 320.821543 
L 158.878385 306.163348 
L 159.081395 330.786628 
L 159.284406 329.71102 
L 159.487416 296.110693 
L 159.690427 324.948855 
L 159.893438 326.253133 
L 160.096448 317.991379 
L 160.299459 272.950793 
L 160.502469 335.491589 
L 160.70548 328.223977 
L 160.908491 336.010613 
L 161.111501 326.386456 
L 161.720533 220.654113 
L 161.923544 319.3611 
L 162.126554 330.682438 
L 162.329565 294.261232 
L 162.532575 317.788005 
L 162.735586 328.436079 
L 162.938597 333.092076 
L 163.141607 314.05928 
L 163.344618 336.349961 
L 163.547628 334.735873 
L 163.750639 324.042757 
L 163.95365 329.978429 
L 164.15666 272.608856 
L 164.359671 250.218835 
L 164.765692 336.1052 
L 164.968703 298.594392 
L 165.374724 320.233027 
L 165.577734 303.085534 
L 165.780745 329.368717 
L 165.983756 309.5633 
L 166.186766 326.237527 
L 166.389777 315.105886 
L 166.592787 260.42958 
L 166.795798 331.471254 
L 166.998808 332.907498 
L 167.201819 288.643462 
L 167.40483 336.77367 
L 167.60784 273.924791 
L 167.810851 318.557292 
L 168.013861 282.271144 
L 168.216872 197.194546 
L 168.419883 334.944975 
L 168.622893 204.184935 
L 168.825904 274.120702 
L 169.028914 228.422976 
L 169.231925 313.88277 
L 169.434936 249.869669 
L 169.637946 284.012956 
L 169.840957 246.191908 
L 170.246978 331.710328 
L 170.652999 226.461736 
L 170.85601 278.81954 
L 171.05902 219.676685 
L 171.465042 256.771153 
L 171.668052 321.180289 
L 171.871063 271.111763 
L 172.074073 325.617764 
L 172.277084 326.791307 
L 172.480095 330.248893 
L 172.683105 211.923385 
L 172.886116 234.556 
L 173.089126 336.371485 
L 173.292137 247.745046 
L 173.495148 252.226538 
L 173.698158 331.692434 
L 173.901169 213.39469 
L 174.104179 270.141653 
L 174.30719 260.831521 
L 174.510201 155.723201 
L 174.713211 240.157757 
L 175.119232 316.203911 
L 175.322243 214.888618 
L 175.525254 257.664806 
L 175.728264 173.969258 
L 175.931275 254.92806 
L 176.134285 257.127247 
L 176.337296 333.360797 
L 176.743317 162.707345 
L 176.946328 243.348372 
L 177.149338 165.903038 
L 177.352349 290.980375 
L 177.75837 171.507468 
L 177.961381 269.374958 
L 178.164391 278.623407 
L 178.367402 179.69498 
L 178.570412 184.531078 
L 178.773423 278.347676 
L 178.976434 231.697551 
L 179.179444 305.919366 
L 179.382455 227.987807 
L 179.585465 292.194706 
L 179.788476 287.921759 
L 179.991487 253.160614 
L 180.194497 269.538008 
L 180.397508 272.930308 
L 180.600518 314.721274 
L 180.803529 213.42778 
L 181.00654 255.583196 
L 181.20955 256.65834 
L 181.412561 223.401695 
L 181.615571 223.813155 
L 181.818582 279.165224 
L 182.021593 287.150906 
L 182.224603 314.413504 
L 182.427614 308.300039 
L 182.630624 330.831248 
L 182.833635 246.982222 
L 183.036646 273.101308 
L 183.239656 258.904676 
L 183.442667 206.552031 
L 183.645677 328.600789 
L 183.848688 202.654789 
L 184.051699 285.160785 
L 184.254709 254.718836 
L 184.45772 162.413744 
L 184.66073 208.746644 
L 184.863741 329.102453 
L 185.066752 209.54756 
L 185.269762 201.321226 
L 185.472773 226.236948 
L 185.675783 188.742163 
L 185.878794 211.242695 
L 186.081805 275.077209 
L 186.284815 118.191472 
L 186.487826 308.408403 
L 186.690836 287.71531 
L 186.893847 144.899662 
L 187.096858 308.811511 
L 187.299868 155.131246 
L 187.705889 316.917981 
L 188.111911 333.797483 
L 188.314921 306.195519 
L 188.517932 223.127434 
L 188.720942 322.773893 
L 188.923953 296.796013 
L 189.126963 294.839889 
L 189.329974 329.878022 
L 189.532985 325.646168 
L 189.735995 318.156883 
L 190.142016 252.260285 
L 190.548038 278.743804 
L 190.751048 192.087326 
L 190.954059 304.34389 
L 191.157069 183.364027 
L 191.36008 149.329481 
L 191.563091 257.213491 
L 191.766101 264.178941 
L 191.969112 205.004124 
L 192.172122 185.773875 
L 192.375133 154.20854 
L 192.578144 270.076022 
L 192.781154 181.005638 
L 192.984165 206.226189 
L 193.187175 100.062776 
L 193.390186 214.112951 
L 193.593197 139.69677 
L 193.796207 311.172304 
L 193.999218 152.239362 
L 194.202228 280.346048 
L 194.405239 280.364815 
L 194.81126 180.258801 
L 195.014271 275.16364 
L 195.217281 199.26836 
L 195.420292 182.435781 
L 195.623303 110.885012 
L 195.826313 297.161028 
L 196.029324 316.178587 
L 196.232334 236.413764 
L 196.435345 251.871308 
L 196.638356 202.553904 
L 196.841366 96.653378 
L 197.247387 248.978924 
L 197.450398 240.460748 
L 197.653409 221.952436 
L 197.856419 230.125526 
L 198.05943 300.200855 
L 198.26244 299.502448 
L 198.465451 310.809462 
L 198.668462 315.708889 
L 198.871472 286.493811 
L 199.074483 283.544361 
L 199.277493 298.388826 
L 199.480504 293.26751 
L 199.683514 233.857566 
L 199.886525 139.141039 
L 200.089536 104.938607 
L 200.292546 323.323862 
L 200.495557 266.491894 
L 200.698567 305.336826 
L 200.901578 313.924755 
L 201.104589 190.999437 
L 201.51061 125.598775 
L 201.71362 246.287421 
L 201.916631 228.754489 
L 202.119642 182.488303 
L 202.322652 179.271884 
L 202.525663 98.792411 
L 202.728673 231.677578 
L 202.931684 113.938141 
L 203.134695 206.829979 
L 203.337705 86.966828 
L 203.540716 286.801142 
L 203.946737 156.671003 
L 204.149748 138.514436 
L 204.352758 263.991547 
L 204.555769 169.358507 
L 204.758779 166.902179 
L 204.96179 97.19745 
L 205.164801 184.29848 
L 205.367811 127.320362 
L 205.570822 270.623928 
L 205.773832 191.510157 
L 205.976843 162.393484 
L 206.382864 177.768179 
L 206.585875 254.729913 
L 206.788885 255.179589 
L 206.991896 324.034021 
L 207.600928 156.445504 
L 207.803938 203.963395 
L 208.006949 167.196386 
L 208.20996 169.297115 
L 208.41297 122.694933 
L 208.615981 190.06812 
L 208.818991 115.035499 
L 209.022002 263.202188 
L 209.225013 298.382837 
L 210.037055 121.537273 
L 210.240065 149.467498 
L 210.646087 267.738385 
L 210.849097 227.570292 
L 211.255118 333.97481 
L 211.458129 267.91257 
L 211.66114 279.470472 
L 211.86415 188.41358 
L 212.067161 330.356851 
L 212.270171 323.825543 
L 212.473182 227.117806 
L 212.676193 214.72005 
L 212.879203 218.050373 
L 213.082214 271.07925 
L 213.285224 151.123623 
L 213.488235 119.067627 
L 213.691246 131.417774 
L 213.894256 179.023104 
L 214.097267 183.876956 
L 214.300277 131.423311 
L 214.909309 221.032196 
L 215.11232 238.599957 
L 215.31533 127.616847 
L 215.518341 171.637804 
L 215.721352 120.077414 
L 215.924362 222.381512 
L 216.127373 193.954359 
L 216.533394 272.385893 
L 216.736405 205.664093 
L 216.939415 178.910956 
L 217.142426 167.756427 
L 217.345436 323.407214 
L 217.548447 270.977844 
L 217.751458 266.677454 
L 217.954468 216.540563 
L 218.157479 257.338936 
L 218.360489 199.375262 
L 218.5635 220.758551 
L 218.766511 307.626307 
L 218.969521 273.116047 
L 219.172532 183.491856 
L 219.375542 208.818683 
L 219.578553 154.95533 
L 219.781564 210.155674 
L 219.984574 222.792815 
L 220.187585 335.383765 
L 220.796616 110.090719 
L 220.999627 311.407819 
L 221.405648 204.032214 
L 221.608659 250.047393 
L 221.811669 237.99026 
L 222.01468 273.638639 
L 222.217691 231.049244 
L 222.420701 131.834171 
L 222.826722 274.481975 
L 223.029733 170.94313 
L 223.232744 293.613585 
L 223.435754 180.971024 
L 223.638765 164.140293 
L 224.044786 202.075184 
L 224.247797 182.983488 
L 224.450807 132.946469 
L 224.653818 186.719417 
L 224.856828 150.633539 
L 225.059839 233.741123 
L 225.26285 271.065184 
L 225.46586 285.383259 
L 225.668871 149.846096 
L 225.871881 255.087601 
L 226.074892 181.989669 
L 226.277903 182.798943 
L 226.480913 220.601449 
L 226.683924 281.265127 
L 226.886934 184.133403 
L 227.089945 170.698615 
L 227.292956 220.12298 
L 227.495966 227.318368 
L 227.698977 307.155241 
L 227.901987 228.096164 
L 228.104998 217.048704 
L 228.308009 161.990782 
L 228.511019 190.036615 
L 228.71403 255.116416 
L 228.91704 139.389579 
L 229.120051 287.352846 
L 229.323062 232.915252 
L 229.526072 302.113214 
L 229.729083 189.367133 
L 229.932093 332.973286 
L 230.135104 224.574932 
L 230.338115 214.708104 
L 230.541125 61.38 
L 230.947146 300.875256 
L 231.150157 219.125552 
L 231.353167 273.344287 
L 231.556178 260.657342 
L 231.759189 201.282667 
L 231.962199 265.417963 
L 232.16521 215.091229 
L 232.36822 210.452703 
L 232.571231 257.687809 
L 232.774242 277.636142 
L 232.977252 212.849458 
L 233.383273 316.104882 
L 233.586284 167.891692 
L 233.789295 283.037622 
L 233.992305 143.16066 
L 234.195316 135.126478 
L 234.398326 174.665361 
L 234.601337 192.028892 
L 234.804348 193.239987 
L 235.007358 154.418023 
L 235.210369 185.170968 
L 235.413379 189.54135 
L 235.61639 131.796948 
L 235.819401 258.648498 
L 236.022411 122.911482 
L 236.225422 274.808808 
L 236.428432 173.84006 
L 236.631443 252.179695 
L 237.037464 179.447174 
L 237.240475 259.077094 
L 237.443485 219.700284 
L 237.646496 272.131126 
L 237.849507 273.631757 
L 238.458538 172.212618 
L 238.661549 237.245735 
L 238.86456 249.190485 
L 239.270581 141.261141 
L 239.473591 237.088615 
L 239.676602 236.800895 
L 240.082623 132.173626 
L 240.488644 269.097102 
L 240.691655 182.047043 
L 240.894666 201.989418 
L 241.300687 213.334939 
L 241.503697 287.114676 
L 241.706708 221.068314 
L 241.909718 266.987307 
L 242.112729 267.505942 
L 242.31574 266.612368 
L 242.924771 135.79954 
L 243.127782 189.27785 
L 243.533803 327.332905 
L 243.736814 327.993219 
L 243.939824 235.025968 
L 244.142835 260.588063 
L 244.345846 300.804378 
L 244.548856 228.655098 
L 244.751867 307.542242 
L 245.157888 210.486459 
L 245.360899 275.239736 
L 245.563909 234.554529 
L 245.76692 318.838891 
L 246.172941 167.867208 
L 246.578962 295.166021 
L 246.781973 284.119025 
L 246.984983 241.996075 
L 247.187994 272.061763 
L 247.594015 195.688525 
L 247.797026 243.287712 
L 248.000036 316.966974 
L 248.203047 319.742728 
L 248.406058 298.462479 
L 248.609068 200.060615 
L 248.812079 176.912963 
L 249.015089 176.697812 
L 249.2181 213.571814 
L 249.421111 298.514998 
L 249.624121 275.143297 
L 249.827132 292.829865 
L 250.030142 180.225126 
L 250.233153 321.24717 
L 250.436164 225.321867 
L 250.639174 310.298365 
L 250.842185 165.648723 
L 251.045195 230.402308 
L 251.248206 174.985243 
L 251.654227 230.427806 
L 251.857238 209.607828 
L 252.060248 239.051593 
L 252.263259 248.483345 
L 252.466269 169.067306 
L 252.872291 329.893351 
L 253.075301 202.517357 
L 253.278312 292.610119 
L 253.481322 254.000968 
L 253.684333 120.308762 
L 253.887344 332.874445 
L 254.090354 217.576756 
L 254.293365 218.698497 
L 254.496375 156.210204 
L 254.699386 281.869555 
L 254.902397 270.026553 
L 255.105407 217.15342 
L 255.308418 292.917329 
L 255.511428 186.451965 
L 255.714439 258.246909 
L 255.91745 256.547101 
L 256.12046 268.786086 
L 256.323471 299.185829 
L 256.526481 221.922929 
L 256.729492 214.357309 
L 256.932503 147.239702 
L 257.135513 312.807851 
L 257.338524 291.595692 
L 257.541534 179.517143 
L 257.744545 337.305258 
L 257.947556 165.162132 
L 258.150566 314.310659 
L 258.353577 238.947284 
L 258.556587 263.674656 
L 258.759598 251.733379 
L 258.962609 250.845682 
L 259.165619 319.273043 
L 259.36863 182.227344 
L 259.57164 249.873034 
L 259.774651 250.268039 
L 259.977662 321.866183 
L 260.383683 213.068233 
L 260.586693 207.153968 
L 260.789704 229.624594 
L 260.992715 221.608288 
L 261.195725 245.564562 
L 261.398736 208.411526 
L 261.601746 232.183917 
L 261.804757 316.557578 
L 262.007768 210.576734 
L 262.210778 305.642943 
L 262.413789 201.758958 
L 262.616799 206.107002 
L 262.81981 279.782215 
L 263.022821 273.075533 
L 263.225831 196.60186 
L 263.428842 214.95908 
L 263.631852 267.92394 
L 263.834863 255.126478 
L 264.240884 186.536925 
L 264.443895 289.37965 
L 264.646905 182.085962 
L 264.849916 194.499817 
L 265.052926 187.930181 
L 265.255937 239.749309 
L 265.458948 253.33439 
L 265.661958 251.631133 
L 265.864969 177.890861 
L 266.067979 239.166008 
L 266.474001 134.318839 
L 266.677011 186.138199 
L 266.880022 168.203286 
L 267.083032 284.206726 
L 267.286043 159.774971 
L 267.489054 159.580603 
L 267.895075 245.029479 
L 268.098085 170.049958 
L 268.301096 194.715517 
L 268.504107 162.640576 
L 268.707117 261.295375 
L 268.910128 272.741627 
L 269.113138 156.355166 
L 269.316149 310.6723 
L 269.51916 202.746786 
L 269.925181 183.874983 
L 270.128191 225.088791 
L 270.331202 203.126862 
L 270.534213 213.550925 
L 270.737223 146.947016 
L 270.940234 130.671265 
L 271.346255 202.919462 
L 271.549266 163.999541 
L 271.752276 147.528018 
L 272.158297 210.215071 
L 272.361308 234.598016 
L 272.767329 127.311843 
L 272.97034 222.869237 
L 273.17335 171.885357 
L 273.376361 163.138876 
L 273.579372 176.279978 
L 273.782382 201.839038 
L 273.985393 179.313288 
L 274.391414 210.812427 
L 274.594424 139.432189 
L 274.797435 335.749284 
L 275.000446 206.503224 
L 275.406467 243.788252 
L 275.609477 200.050997 
L 275.812488 125.956844 
L 276.015499 292.78631 
L 276.218509 207.480065 
L 276.42152 226.807755 
L 276.827541 154.599661 
L 277.030552 221.708078 
L 277.233562 194.819161 
L 277.436573 192.150172 
L 277.639583 222.312418 
L 277.842594 191.677051 
L 278.045605 184.640594 
L 278.248615 185.997129 
L 278.451626 115.741225 
L 278.654636 159.496831 
L 278.857647 175.880762 
L 279.263668 285.371723 
L 279.466679 135.56043 
L 279.669689 159.452729 
L 279.8727 233.635288 
L 280.481732 134.609806 
L 280.684742 174.313005 
L 281.090764 161.82907 
L 281.293774 125.644987 
L 281.699795 287.004502 
L 282.105817 145.200945 
L 282.308827 146.001724 
L 282.511838 190.58109 
L 282.714848 172.578514 
L 282.917859 224.276537 
L 283.12087 211.473658 
L 283.32388 259.087364 
L 283.526891 184.448198 
L 283.729901 282.015697 
L 283.932912 164.284879 
L 284.135923 198.283793 
L 284.338933 127.08957 
L 284.541944 235.71911 
L 284.744954 140.48952 
L 284.947965 262.750987 
L 285.150975 177.056447 
L 285.353986 167.947488 
L 285.556997 192.221859 
L 285.760007 156.860296 
L 285.963018 238.621716 
L 286.166028 152.798506 
L 286.369039 170.032068 
L 286.57205 215.636611 
L 286.77506 203.798387 
L 286.978071 221.931799 
L 287.181081 286.053371 
L 287.587103 152.935671 
L 287.790113 212.165291 
L 287.993124 213.266897 
L 288.196134 161.915934 
L 288.399145 144.462552 
L 288.602156 94.732298 
L 288.805166 213.240887 
L 289.211187 140.418831 
L 289.414198 167.389687 
L 289.617209 118.213474 
L 289.820219 148.34787 
L 290.02323 206.841501 
L 290.22624 181.13835 
L 290.429251 203.189869 
L 290.632262 197.649195 
L 290.835272 151.928633 
L 291.038283 198.842256 
L 291.241293 134.950952 
L 291.444304 225.333443 
L 291.647315 186.351389 
L 291.850325 245.122623 
L 292.053336 182.269778 
L 292.256346 235.034251 
L 292.865378 170.273198 
L 293.068389 171.707814 
L 293.271399 222.3547 
L 293.47441 175.166991 
L 293.677421 247.242864 
L 293.880431 157.532476 
L 294.286452 264.124109 
L 294.489463 291.320921 
L 294.692474 182.48308 
L 295.098495 258.376443 
L 295.301505 144.905232 
L 295.504516 220.294405 
L 295.707526 202.530304 
L 295.910537 159.782295 
L 296.113548 216.509952 
L 296.316558 150.035687 
L 296.519569 204.107577 
L 296.722579 200.433008 
L 296.92559 152.189227 
L 297.331611 207.261108 
L 297.534622 126.632068 
L 297.737632 207.386019 
L 297.940643 201.977155 
L 298.143654 182.758773 
L 298.346664 127.985924 
L 298.549675 211.497827 
L 298.752685 170.155933 
L 298.955696 203.877377 
L 299.158707 154.11766 
L 299.564728 232.423794 
L 299.767738 142.102847 
L 299.970749 216.786021 
L 300.17376 151.625712 
L 300.37677 159.608108 
L 300.579781 271.202972 
L 300.782791 176.002031 
L 300.985802 172.073055 
L 301.188813 180.670565 
L 301.391823 142.345627 
L 301.594834 143.526277 
L 301.797844 146.838742 
L 302.203866 183.057495 
L 302.406876 154.968701 
L 302.609887 171.168788 
L 302.812897 231.032284 
L 303.015908 218.952618 
L 303.218919 162.713423 
L 303.421929 149.632296 
L 303.62494 128.161926 
L 303.82795 125.751488 
L 304.030961 146.87993 
L 304.436982 101.001349 
L 304.639993 109.14722 
L 304.843003 144.294256 
L 305.046014 121.331465 
L 305.249025 141.184418 
L 305.452035 127.820758 
L 305.655046 167.225017 
L 305.858056 177.673863 
L 306.061067 132.994997 
L 306.264077 147.597279 
L 306.467088 186.361986 
L 306.873109 136.338237 
L 307.27913 188.959848 
L 307.482141 133.03568 
L 307.685152 159.864701 
L 307.888162 165.312522 
L 308.294183 127.280707 
L 308.497194 135.690712 
L 308.700205 119.508011 
L 308.903215 93.033034 
L 309.309236 156.509867 
L 309.512247 128.76173 
L 309.918268 190.022725 
L 310.121279 138.01934 
L 310.324289 127.18409 
L 310.5273 104.330047 
L 310.730311 97.918146 
L 310.933321 128.874647 
L 311.136332 106.767985 
L 311.339342 129.2322 
L 311.542353 132.037373 
L 311.745364 125.442169 
L 311.948374 139.220201 
L 312.151385 164.655433 
L 312.354395 110.746174 
L 312.557406 100.233034 
L 312.963427 120.479928 
L 313.166438 105.433481 
L 313.369448 123.010302 
L 313.572459 161.532656 
L 313.77547 116.662758 
L 313.97848 176.26798 
L 314.181491 93.937098 
L 314.384501 146.517351 
L 314.587512 96.728121 
L 314.790523 259.803481 
L 314.993533 151.718858 
L 315.196544 160.132544 
L 315.399554 131.85909 
L 315.602565 180.504307 
L 315.805576 136.420737 
L 316.008586 217.336441 
L 316.414607 113.412501 
L 316.617618 194.128074 
L 316.820628 143.497976 
L 317.023639 134.61604 
L 317.22665 165.735014 
L 317.42966 132.940594 
L 317.632671 193.316179 
L 317.835681 118.943147 
L 318.038692 189.558149 
L 318.241703 150.834602 
L 318.444713 228.983486 
L 318.850734 100.866357 
L 319.053745 215.735079 
L 319.459766 135.751627 
L 319.662777 118.842264 
L 319.865787 141.140879 
L 320.068798 132.471732 
L 320.271809 172.055046 
L 320.474819 106.457193 
L 320.88084 210.837511 
L 321.083851 246.671507 
L 321.286862 126.48706 
L 321.489872 134.09958 
L 321.692883 129.56538 
L 321.895893 197.848442 
L 322.098904 102.22389 
L 322.301915 119.957043 
L 322.504925 110.224194 
L 322.707936 176.852306 
L 322.910946 125.84093 
L 323.113957 133.828032 
L 323.316968 115.899055 
L 323.519978 135.502534 
L 323.722989 96.653932 
L 324.332021 141.26556 
L 324.738042 149.329512 
L 324.941052 138.923746 
L 325.347074 109.967705 
L 325.550084 153.054469 
L 325.753095 143.828777 
L 325.956105 127.741776 
L 326.159116 137.919596 
L 326.362127 100.26926 
L 326.565137 107.308129 
L 326.971158 174.264514 
L 327.783201 101.198161 
L 327.986211 112.969442 
L 328.189222 149.230684 
L 328.392232 112.349828 
L 328.595243 125.956516 
L 328.798254 110.14938 
L 329.001264 124.408411 
L 329.204275 169.535562 
L 329.610296 129.752485 
L 329.813307 129.506901 
L 330.016317 113.962421 
L 330.219328 114.554519 
L 330.625349 141.511995 
L 330.82836 124.613949 
L 331.03137 156.267662 
L 331.234381 127.59997 
L 331.437391 182.381102 
L 331.640402 129.423979 
L 331.843413 133.165907 
L 332.046423 168.904823 
L 332.249434 112.237249 
L 332.452444 146.085684 
L 332.655455 151.607437 
L 332.858466 122.51825 
L 333.061476 144.355943 
L 333.264487 146.675241 
L 333.467497 168.688041 
L 333.670508 132.953841 
L 333.873519 178.608899 
L 334.27954 122.986839 
L 334.48255 171.562758 
L 334.685561 114.431013 
L 335.091582 188.861715 
L 335.294593 142.409479 
L 335.497603 131.597883 
L 335.700614 168.190459 
L 335.903625 166.097043 
L 336.106635 136.325558 
L 336.309646 134.120107 
L 336.512656 120.969093 
L 336.918678 152.489381 
L 337.121688 114.343943 
L 337.527709 162.419008 
L 337.73072 167.710851 
L 337.933731 128.104961 
L 338.136741 157.219305 
L 338.339752 134.100685 
L 338.542762 130.859663 
L 338.745773 103.042785 
L 338.948783 150.105656 
L 339.354805 127.714099 
L 339.557815 133.654488 
L 339.760826 130.943434 
L 339.963836 126.051737 
L 340.166847 127.093089 
L 340.369858 126.027298 
L 340.572868 136.529011 
L 340.775879 134.387746 
L 340.978889 175.062738 
L 341.1819 140.872083 
L 341.384911 149.787442 
L 341.587921 117.583526 
L 341.790932 160.126289 
L 341.993942 157.845082 
L 342.196953 154.287412 
L 342.399964 142.18334 
L 342.602974 153.274963 
L 342.805985 201.86402 
L 343.008995 145.225912 
L 343.212006 147.167336 
L 343.415017 119.173098 
L 343.618027 206.76391 
L 343.821038 120.159362 
L 344.024048 138.769339 
L 344.43007 108.050704 
L 344.63308 129.764947 
L 344.836091 202.552912 
L 345.039101 127.015661 
L 345.242112 177.739239 
L 345.445123 156.337882 
L 345.648133 96.814005 
L 345.851144 192.102679 
L 346.054154 129.831134 
L 346.257165 129.435573 
L 346.460176 176.762144 
L 346.663186 107.444102 
L 347.069207 162.826791 
L 347.272218 150.983504 
L 347.475229 121.976981 
L 347.678239 153.968953 
L 347.88125 122.455993 
L 348.08426 198.886633 
L 348.287271 138.679104 
L 348.490282 202.820517 
L 348.693292 118.961503 
L 348.896303 161.533845 
L 349.302324 144.273911 
L 349.505334 158.696369 
L 349.708345 164.164374 
L 350.114366 120.244062 
L 350.317377 133.984188 
L 350.520387 135.540165 
L 350.723398 185.162773 
L 350.926409 156.739343 
L 351.129419 150.098705 
L 351.33243 104.530183 
L 351.53544 115.780018 
L 351.738451 160.544829 
L 351.941462 114.910407 
L 352.144472 157.29548 
L 352.550493 103.776286 
L 352.753504 144.206311 
L 352.956515 140.451217 
L 353.159525 114.860319 
L 353.362536 146.011454 
L 353.565546 154.432985 
L 353.768557 101.583191 
L 353.971568 94.567481 
L 354.174578 117.603357 
L 354.377589 115.487217 
L 354.580599 110.070826 
L 354.78361 114.262065 
L 354.986621 183.564355 
L 355.189631 119.94549 
L 355.392642 153.665958 
L 355.595652 148.470186 
L 356.001674 122.588286 
L 356.204684 136.575048 
L 356.407695 104.825918 
L 356.610705 137.950402 
L 356.813716 108.008183 
L 357.016727 105.588362 
L 357.219737 133.638463 
L 357.422748 138.870594 
L 357.828769 110.248588 
L 358.03178 98.449231 
L 358.23479 140.524843 
L 358.640811 105.923484 
L 358.843822 110.999786 
L 359.046833 153.736979 
L 359.249843 111.1959 
L 359.452854 120.263062 
L 359.655864 162.451666 
L 359.858875 113.195281 
L 360.061885 117.496905 
L 360.264896 130.051689 
L 360.873928 92.149556 
L 361.279949 124.093051 
L 361.48296 118.29515 
L 361.68597 98.034392 
L 361.888981 113.539032 
L 362.091991 103.228932 
L 362.295002 113.376776 
L 362.498013 129.181751 
L 362.701023 115.484163 
L 362.904034 136.721683 
L 363.107044 107.896825 
L 363.310055 147.616354 
L 363.513066 109.665859 
L 363.716076 110.901436 
L 363.919087 134.162277 
L 364.122097 137.119671 
L 364.325108 123.072729 
L 364.528119 158.246088 
L 364.731129 100.087338 
L 364.93414 127.336125 
L 365.13715 116.138951 
L 365.340161 113.898998 
L 365.543172 97.862281 
L 365.746182 109.836668 
L 365.949193 94.697275 
L 366.152203 99.378494 
L 366.355214 110.349906 
L 366.964246 88.981239 
L 367.370267 99.727983 
L 367.573278 100.55511 
L 367.979299 121.665977 
L 368.182309 112.467316 
L 368.38532 111.150768 
L 368.588331 86.64738 
L 368.791341 121.569343 
L 368.994352 130.598616 
L 369.197362 101.546788 
L 369.400373 112.850729 
L 369.603384 112.869711 
L 369.806394 138.114066 
L 370.009405 103.958312 
L 370.212415 98.451347 
L 370.415426 115.653488 
L 370.618436 95.938342 
L 370.821447 97.004792 
L 371.227468 123.754804 
L 371.430479 120.335753 
L 371.633489 85.743185 
L 372.039511 124.061605 
L 372.445532 102.896138 
L 372.648542 122.288041 
L 372.851553 93.282225 
L 373.054564 96.764878 
L 373.257574 131.509649 
L 373.460585 124.491302 
L 373.663595 105.305437 
L 373.866606 116.706932 
L 374.069617 110.580632 
L 374.272627 126.761983 
L 374.475638 105.565779 
L 374.678648 111.664737 
L 374.881659 110.954651 
L 375.08467 107.058014 
L 375.28768 120.926355 
L 375.490691 120.236878 
L 375.693701 123.711793 
L 375.896712 115.382838 
L 376.099723 120.14112 
L 376.302733 119.476123 
L 376.505744 100.7555 
L 376.911765 119.393642 
L 377.317786 113.320088 
L 377.520797 112.623728 
L 377.723807 124.895456 
L 377.926818 125.923234 
L 378.129829 99.146589 
L 378.332839 146.362463 
L 378.53585 106.104961 
L 378.73886 104.116527 
L 378.941871 147.181984 
L 379.144882 95.578133 
L 379.347892 121.64133 
L 379.550903 102.97438 
L 379.753913 97.865136 
L 379.956924 120.342176 
L 380.159935 128.332881 
L 380.362945 108.69405 
L 380.565956 103.530601 
L 380.768966 114.936645 
L 380.971977 108.19507 
L 381.174987 112.318866 
L 381.377998 119.918546 
L 381.581009 104.521198 
L 381.784019 122.638055 
L 381.98703 106.252164 
L 382.19004 108.428934 
L 382.393051 90.553514 
L 382.596062 117.797556 
L 382.799072 118.272442 
L 383.002083 113.936513 
L 383.205093 102.738249 
L 383.408104 118.942827 
L 383.611115 114.115305 
L 383.814125 125.429799 
L 384.017136 129.364615 
L 384.220146 147.432517 
L 384.423157 115.708179 
L 384.626168 120.9109 
L 384.829178 152.029406 
L 385.032189 121.00349 
L 385.235199 131.699124 
L 385.43821 120.212603 
L 385.641221 126.22972 
L 385.844231 145.042407 
L 386.047242 117.130041 
L 386.250252 131.069872 
L 386.453263 113.8219 
L 386.656274 117.000728 
L 386.859284 126.832173 
L 387.062295 108.194145 
L 387.265305 106.058912 
L 387.671327 126.091159 
L 387.874337 122.845774 
L 388.077348 107.359398 
L 388.280358 113.329965 
L 388.483369 109.61602 
L 388.68638 125.164649 
L 388.88939 105.857319 
L 389.092401 144.868287 
L 389.295411 113.663908 
L 389.498422 120.420536 
L 389.701433 145.046459 
L 389.904443 129.936103 
L 390.310464 121.989493 
L 390.513475 125.352915 
L 390.716486 126.128465 
L 390.919496 113.761775 
L 391.122507 111.585248 
L 391.325517 118.684914 
L 391.528528 98.477242 
L 391.731538 137.861271 
L 391.934549 107.211393 
L 392.13756 102.545861 
L 392.34057 106.61566 
L 392.543581 119.291617 
L 392.746591 117.843338 
L 392.949602 117.252709 
L 393.355623 105.351052 
L 393.558634 150.176477 
L 393.761644 112.262521 
L 394.167666 136.122025 
L 394.370676 115.958537 
L 394.573687 129.420635 
L 394.776697 117.188825 
L 394.979708 116.614514 
L 395.182719 134.247016 
L 395.385729 129.379479 
L 395.58874 132.326405 
L 395.79175 115.153153 
L 395.994761 115.148098 
L 396.197772 112.853823 
L 396.400782 127.638418 
L 396.603793 112.031197 
L 396.806803 130.575203 
L 397.009814 117.178785 
L 397.212825 125.067112 
L 397.415835 118.733861 
L 397.618846 117.296267 
L 397.821856 102.217425 
L 398.024867 104.886129 
L 398.227878 101.457668 
L 398.430888 119.765788 
L 398.633899 111.748743 
L 398.836909 116.804269 
L 399.03992 129.530816 
L 399.242931 103.847368 
L 399.445941 108.203598 
L 399.648952 108.391417 
L 399.851962 135.297663 
L 400.460994 113.521808 
L 400.664005 128.803308 
L 400.867015 114.39514 
L 401.070026 121.885541 
L 401.273037 103.711885 
L 401.476047 128.058595 
L 401.679058 118.912472 
L 401.882068 134.414024 
L 402.085079 107.308264 
L 402.288089 118.989057 
L 402.4911 109.60921 
L 402.694111 107.694577 
L 402.897121 103.920898 
L 403.100132 117.884016 
L 403.303142 105.263819 
L 403.506153 111.356354 
L 403.709164 98.00052 
L 403.912174 113.601076 
L 404.115185 114.945081 
L 404.521206 121.424896 
L 404.724217 109.781028 
L 404.927227 122.509578 
L 405.130238 114.352775 
L 405.333248 121.282188 
L 405.536259 108.349973 
L 405.73927 111.872879 
L 405.94228 98.706288 
L 406.145291 121.798877 
L 406.348301 108.004437 
L 406.551312 110.253731 
L 406.754323 126.275024 
L 406.957333 128.229429 
L 407.363354 105.934945 
L 407.566365 109.223008 
L 407.769376 102.036775 
L 407.972386 115.85179 
L 408.378407 111.459393 
L 408.581418 120.452534 
L 408.784429 112.299889 
L 409.19045 118.403951 
L 409.39346 148.81803 
L 409.799482 137.891267 
L 410.205503 120.223318 
L 410.408513 142.426074 
L 410.611524 135.782691 
L 410.814535 116.873309 
L 411.017545 152.696716 
L 411.220556 127.056204 
L 411.423566 148.597319 
L 411.829588 122.752468 
L 412.032598 124.949244 
L 412.235609 134.1068 
L 412.64163 111.403865 
L 412.844641 127.520599 
L 413.047651 109.117048 
L 413.250662 110.675539 
L 413.453672 121.533804 
L 413.656683 109.534427 
L 413.859693 104.51391 
L 414.062704 107.503403 
L 414.265715 108.094992 
L 414.468725 104.699556 
L 414.671736 108.83593 
L 414.874746 106.736911 
L 415.077757 115.063101 
L 415.280768 108.198489 
L 415.686789 109.11844 
L 415.889799 115.169315 
L 416.295821 100.756084 
L 416.498831 103.465656 
L 416.701842 104.433375 
L 416.904852 115.195275 
L 417.310874 99.305224 
L 417.716895 98.429547 
L 417.919905 90.241552 
L 418.325927 93.604008 
L 418.528937 91.405603 
L 418.731948 96.301622 
L 418.934958 104.381874 
L 419.34098 98.156084 
L 419.54399 108.373359 
L 419.747001 101.594422 
L 419.950011 100.795172 
L 420.153022 103.685215 
L 420.356033 102.717392 
L 420.559043 103.022803 
L 420.762054 111.321961 
L 420.965064 114.042129 
L 421.168075 103.559332 
L 421.371086 110.826379 
L 421.574096 126.128449 
L 421.777107 104.409977 
L 421.980117 115.507898 
L 422.386139 104.948572 
L 422.589149 114.360187 
L 422.79216 102.655523 
L 422.99517 108.436927 
L 423.198181 94.244778 
L 423.401192 96.894352 
L 423.604202 104.06756 
L 423.807213 106.994801 
L 424.213234 94.819795 
L 424.416244 101.578603 
L 424.619255 102.698657 
L 424.822266 102.83859 
L 425.025276 106.190633 
L 425.431297 102.186165 
L 425.634308 94.807823 
L 425.837319 103.468491 
L 426.040329 99.881289 
L 426.24334 98.845415 
L 426.649361 104.330883 
L 426.852372 95.412978 
L 427.055382 96.594189 
L 427.258393 96.993176 
L 427.461403 89.205672 
L 427.664414 95.620779 
L 427.867425 93.078969 
L 428.070435 105.052441 
L 428.273446 95.637401 
L 428.476456 96.548026 
L 428.679467 96.829808 
L 428.882478 94.654633 
L 429.085488 104.351149 
L 429.288499 90.190212 
L 429.491509 89.032841 
L 429.69452 105.769847 
L 429.897531 94.875268 
L 430.100541 106.770656 
L 430.303552 89.4941 
L 430.506562 104.302426 
L 430.709573 99.666881 
L 430.912584 98.477989 
L 431.115594 108.561935 
L 431.318605 96.950231 
L 431.521615 96.746196 
L 431.724626 93.971421 
L 431.927637 95.442673 
L 432.130647 101.822252 
L 432.536668 92.224713 
L 432.739679 91.724197 
L 432.94269 109.606247 
L 433.1457 99.018687 
L 433.348711 97.7571 
L 433.754732 90.486918 
L 434.160753 107.456177 
L 434.363764 90.136231 
L 434.566774 96.355912 
L 434.769785 89.942581 
L 434.972795 92.945691 
L 435.175806 86.471378 
L 435.378817 91.926844 
L 435.581827 93.820773 
L 435.784838 98.220989 
L 435.987848 92.648276 
L 436.39387 99.71733 
L 436.59688 99.907967 
L 436.799891 96.400735 
L 437.002901 96.840932 
L 437.205912 99.125299 
L 437.408923 99.818291 
L 437.611933 94.397249 
L 438.017954 103.968539 
L 438.220965 95.211172 
L 438.423976 104.322278 
L 438.626986 96.555869 
L 439.033007 91.90791 
L 439.236018 91.971178 
L 439.642039 101.366653 
L 440.04806 97.794803 
L 440.251071 91.973038 
L 440.454082 96.124014 
L 440.657092 91.555015 
L 440.860103 90.455384 
L 441.063113 91.032141 
L 441.266124 93.137154 
L 441.469135 93.212986 
L 441.672145 93.157801 
L 441.875156 98.933069 
L 442.281177 91.137065 
L 442.484188 95.030875 
L 442.687198 91.288743 
L 443.093219 89.145918 
L 443.29623 87.896083 
L 443.499241 96.922643 
L 443.702251 98.023979 
L 443.905262 96.353185 
L 444.108272 91.025787 
L 444.311283 95.530909 
L 444.514294 94.363581 
L 444.920315 101.93288 
L 445.326336 91.10311 
L 445.732357 101.217146 
L 445.935368 93.809397 
L 446.138378 97.363049 
L 446.341389 95.172166 
L 446.544399 103.064244 
L 446.74741 94.228682 
L 446.950421 94.921251 
L 447.153431 98.221958 
L 447.356442 96.607206 
L 447.965474 88.746117 
L 448.168484 94.11183 
L 448.371495 87.674691 
L 448.574505 89.029312 
L 448.777516 87.372084 
L 449.386548 103.598084 
L 449.589558 99.559595 
L 449.792569 91.306042 
L 449.99558 96.795488 
L 450.19859 96.240497 
L 450.401601 98.583103 
L 450.604611 92.212484 
L 450.807622 102.973347 
L 451.010633 96.025924 
L 451.213643 97.763315 
L 451.416654 101.84089 
L 451.619664 98.191246 
L 451.822675 98.139167 
L 452.025686 97.357456 
L 452.228696 99.610008 
L 452.431707 94.065075 
L 452.634717 92.681632 
L 452.837728 98.159534 
L 453.243749 93.954898 
L 453.44676 92.272789 
L 453.64977 98.070611 
L 453.852781 97.426034 
L 454.055792 97.410907 
L 454.461813 94.687741 
L 454.664823 90.572681 
L 454.867834 100.446361 
L 455.273855 93.009264 
L 455.679876 90.440867 
L 456.085897 99.369373 
L 456.288908 91.052346 
L 456.694929 100.240545 
L 456.89794 101.645377 
L 457.10095 104.733373 
L 457.303961 95.621419 
L 457.506972 94.227359 
L 457.709982 98.899807 
L 457.912993 111.761857 
L 458.116003 101.105657 
L 458.319014 100.699151 
L 458.522025 94.982227 
L 458.725035 94.550008 
L 458.928046 95.532478 
L 459.131056 95.143845 
L 459.334067 96.516005 
L 459.537078 100.258883 
L 459.740088 92.720403 
L 459.943099 94.337973 
L 460.146109 91.905018 
L 460.552131 95.829883 
L 460.755141 90.472924 
L 460.958152 96.20823 
L 461.161162 96.921969 
L 461.364173 100.28837 
L 461.567184 98.070768 
L 461.770194 101.043194 
L 461.973205 99.693983 
L 462.176215 100.966857 
L 462.379226 107.400562 
L 462.582237 106.275406 
L 462.785247 106.092299 
L 462.988258 108.197197 
L 463.394279 100.228623 
L 463.59729 97.774946 
L 464.003311 100.102073 
L 464.206321 93.772719 
L 464.409332 96.746519 
L 464.612343 89.976262 
L 464.815353 96.957164 
L 465.018364 96.666219 
L 465.221374 98.133679 
L 465.627396 98.648574 
L 465.830406 97.497534 
L 466.033417 100.13003 
L 466.236427 96.378263 
L 466.439438 96.178544 
L 466.642448 91.469621 
L 466.845459 94.458362 
L 467.04847 92.565015 
L 467.25148 97.604323 
L 467.454491 90.047227 
L 467.657501 95.661178 
L 467.860512 92.765652 
L 468.063523 95.282632 
L 468.266533 93.700763 
L 468.469544 86.789725 
L 468.672554 96.037353 
L 468.875565 91.795387 
L 469.078576 94.676987 
L 469.281586 90.971753 
L 469.484597 96.601757 
L 469.687607 96.026299 
L 469.890618 99.210406 
L 470.296639 94.962368 
L 470.49965 99.39631 
L 470.70266 94.653106 
L 470.905671 94.510335 
L 471.108682 93.528776 
L 471.311692 96.207341 
L 471.514703 95.929512 
L 471.717713 94.690029 
L 471.920724 95.191362 
L 472.123735 100.540633 
L 472.326745 99.540302 
L 472.529756 97.481336 
L 472.732766 100.659141 
L 472.935777 95.924424 
L 473.138788 96.296366 
L 473.341798 100.85214 
L 473.544809 97.423527 
L 473.747819 96.836855 
L 473.95083 97.954346 
L 474.153841 100.6992 
L 474.356851 97.959373 
L 474.559862 102.090931 
L 474.762872 97.179857 
L 474.965883 99.021178 
L 475.168894 108.461265 
L 475.371904 97.114806 
L 475.574915 104.078063 
L 475.777925 103.677434 
L 475.980936 100.12312 
L 476.183947 100.344627 
L 476.386957 97.071728 
L 476.589968 101.805465 
L 476.792978 93.893681 
L 476.995989 97.869039 
L 477.40201 91.90592 
L 477.605021 91.612847 
L 477.808031 91.840413 
L 478.011042 90.617361 
L 478.214052 95.628612 
L 478.417063 90.58928 
L 478.620074 92.079442 
L 478.823084 90.624086 
L 479.229105 95.636806 
L 479.432116 91.588615 
L 479.635127 95.263884 
L 479.838137 92.994908 
L 480.041148 98.222049 
L 480.244158 95.447843 
L 480.447169 100.746028 
L 480.65018 95.684191 
L 480.85319 95.225707 
L 481.056201 97.034559 
L 481.259211 90.637994 
L 481.462222 97.07173 
L 481.665233 99.572214 
L 481.868243 94.996688 
L 482.071254 98.155608 
L 482.274264 94.796281 
L 482.477275 100.29808 
L 482.680286 96.321147 
L 483.086307 93.035287 
L 483.289317 96.316564 
L 483.695339 93.062575 
L 483.898349 96.800605 
L 484.10136 93.027553 
L 484.30437 97.687749 
L 484.507381 99.086328 
L 484.710392 98.526748 
L 484.913402 101.072475 
L 485.116413 97.009437 
L 485.319423 99.465965 
L 485.522434 96.242744 
L 485.725445 97.096524 
L 485.928455 96.423743 
L 486.131466 93.564958 
L 486.334476 95.546161 
L 486.537487 101.423191 
L 486.740498 94.448982 
L 486.943508 94.858084 
L 487.146519 98.550469 
L 487.349529 93.38008 
L 487.55254 97.82237 
L 487.755551 99.107053 
L 487.958561 95.049275 
L 488.161572 95.673068 
L 488.364582 90.963521 
L 488.567593 96.657354 
L 488.770603 91.804515 
L 488.973614 93.556605 
L 489.176625 93.692333 
L 489.379635 92.325319 
L 489.582646 98.361841 
L 489.785656 92.793621 
L 489.988667 97.216358 
L 490.191678 96.185997 
L 490.394688 95.955868 
L 490.597699 97.700802 
L 490.800709 97.395646 
L 491.00372 97.51809 
L 491.206731 98.662485 
L 491.409741 97.394155 
L 491.612752 98.160061 
L 491.815762 96.056569 
L 492.018773 96.955073 
L 492.221784 95.578268 
L 492.424794 98.070558 
L 492.627805 97.260791 
L 492.830815 94.723968 
L 493.033826 98.872565 
L 493.236837 94.670354 
L 493.439847 96.513656 
L 493.642858 93.534815 
L 493.845868 93.666316 
L 494.048879 93.427391 
L 494.25189 91.774729 
L 494.4549 92.285294 
L 494.657911 95.513338 
L 494.860921 89.954245 
L 495.063932 91.066762 
L 495.266943 89.694987 
L 495.469953 90.343588 
L 495.672964 90.165022 
L 496.078985 94.483482 
L 496.281996 92.599636 
L 496.485006 96.029902 
L 496.891027 93.142362 
L 497.094038 93.476584 
L 497.297049 94.271244 
L 497.500059 98.409044 
L 497.70307 94.862982 
L 497.90608 95.241419 
L 498.109091 99.021688 
L 498.109091 99.021688 
" clip-path="url(#pf0526de32b)" style="fill: none; stroke: #008080; stroke-width: 1.5; stroke-linecap: round"/>
   </g>
   <g id="line2d_32">
    <path d="M 92.290909 338.58 
L 92.49392 328.241579 
L 92.899941 326.700133 
L 93.305962 328.30197 
L 93.508973 327.063746 
L 93.711983 326.701041 
L 93.914994 323.362676 
L 94.118004 317.862937 
L 94.321015 318.627099 
L 94.524026 318.376645 
L 94.727036 313.725006 
L 94.930047 314.270629 
L 95.336068 310.286199 
L 95.539079 311.428922 
L 95.742089 306.197566 
L 95.9451 305.474555 
L 96.14811 304.043197 
L 96.351121 300.321602 
L 96.554132 301.959885 
L 96.757142 299.531174 
L 96.960153 295.369751 
L 97.366174 298.067572 
L 97.569185 297.063199 
L 97.772195 293.981965 
L 97.975206 294.568903 
L 98.178216 293.815613 
L 98.381227 291.738639 
L 98.584238 287.018823 
L 98.787248 286.788117 
L 100.005312 292.825468 
L 100.208322 292.396466 
L 100.411333 292.723892 
L 100.614344 290.685842 
L 100.817354 290.920208 
L 101.223375 292.61349 
L 101.426386 293.042412 
L 101.832407 294.465604 
L 102.035418 294.646382 
L 102.441439 293.95221 
L 102.84746 295.054666 
L 103.050471 292.420317 
L 103.456492 293.204311 
L 103.659502 293.218011 
L 104.065524 294.655381 
L 104.268534 293.896864 
L 104.674555 293.537692 
L 104.877566 293.387361 
L 105.080577 293.564183 
L 105.486598 294.866072 
L 105.689608 294.42179 
L 105.892619 295.003365 
L 106.09563 294.286375 
L 106.29864 294.04927 
L 107.516704 296.767958 
L 107.922725 296.970229 
L 108.125736 296.688662 
L 108.328746 295.57105 
L 108.531757 295.380774 
L 108.937778 293.622011 
L 109.140789 291.506242 
L 109.343799 291.630832 
L 109.54681 291.142856 
L 109.74982 291.489062 
L 109.952831 291.45401 
L 110.155842 291.107336 
L 110.358852 289.583672 
L 110.764873 290.420247 
L 110.967884 290.178865 
L 111.170895 290.287738 
L 111.373905 290.198129 
L 111.576916 289.467761 
L 111.779926 289.453783 
L 111.982937 289.884256 
L 112.185948 289.811028 
L 112.388958 289.248176 
L 112.591969 289.73661 
L 112.794979 289.587321 
L 112.99799 289.215083 
L 113.607022 287.061557 
L 114.013043 287.135607 
L 114.216053 286.160515 
L 114.419064 285.797877 
L 114.622075 286.142471 
L 114.825085 285.809281 
L 115.231106 285.955276 
L 115.434117 285.05846 
L 115.637128 285.337553 
L 116.043149 284.986772 
L 116.44917 285.83497 
L 116.652181 285.420376 
L 116.855191 285.629981 
L 117.058202 285.40597 
L 117.261212 286.151202 
L 117.464223 287.465242 
L 117.667234 286.80404 
L 117.870244 285.693345 
L 118.073255 286.229149 
L 118.276265 286.120319 
L 118.479276 285.532306 
L 118.682287 285.69825 
L 118.885297 286.694741 
L 119.088308 288.653904 
L 119.291318 289.191464 
L 119.494329 288.268801 
L 119.69734 286.764689 
L 119.90035 286.644798 
L 120.103361 286.129998 
L 120.306371 286.017972 
L 120.712393 286.204742 
L 120.915403 285.815269 
L 121.118414 285.832025 
L 121.321424 285.601466 
L 121.524435 285.57102 
L 121.727446 285.166045 
L 121.930456 284.206907 
L 122.133467 284.208479 
L 122.336477 284.087598 
L 122.539488 283.617561 
L 122.742499 283.50764 
L 122.945509 284.087724 
L 123.14852 283.21862 
L 123.35153 282.844878 
L 123.554541 284.046185 
L 123.757552 283.474339 
L 123.960562 283.334144 
L 124.163573 282.838743 
L 124.366583 282.869807 
L 124.569594 282.086196 
L 124.772604 282.410803 
L 124.975615 282.436009 
L 125.584647 283.654669 
L 125.787657 283.521674 
L 125.990668 283.015139 
L 126.193679 282.890786 
L 126.396689 281.81962 
L 126.5997 282.313167 
L 126.80271 281.971456 
L 127.005721 282.033273 
L 127.614753 280.918381 
L 127.817763 279.301068 
L 128.020774 279.252263 
L 128.223785 279.342993 
L 128.426795 278.611687 
L 128.832816 279.056305 
L 129.035827 279.095543 
L 129.238838 280.268189 
L 129.441848 280.402868 
L 129.644859 282.450163 
L 130.05088 282.392705 
L 130.253891 281.382429 
L 130.659912 281.259036 
L 130.862922 282.987347 
L 131.065933 283.1671 
L 131.268944 283.160032 
L 131.471954 282.589771 
L 131.674965 282.902926 
L 131.877975 281.95294 
L 132.283997 282.353112 
L 132.690018 281.964871 
L 132.893028 282.534272 
L 133.50206 281.409569 
L 133.705071 282.363207 
L 133.908081 282.70379 
L 134.111092 282.765147 
L 134.314103 282.664372 
L 134.517113 282.733205 
L 134.720124 283.32228 
L 134.923134 283.230728 
L 135.126145 283.54962 
L 135.532166 283.318318 
L 135.735177 283.622107 
L 135.938187 284.56285 
L 136.141198 284.364212 
L 136.344208 285.108085 
L 136.547219 284.415609 
L 136.75023 284.54959 
L 136.95324 284.459221 
L 137.562272 285.712448 
L 137.765283 285.823627 
L 137.968293 285.10714 
L 138.374314 285.823991 
L 138.780336 286.011747 
L 139.186357 286.762195 
L 139.389367 285.460992 
L 139.795389 285.341262 
L 140.20141 286.89814 
L 140.810442 287.286827 
L 141.013452 286.180995 
L 141.216463 286.317966 
L 141.622484 287.394895 
L 141.825495 287.602621 
L 142.028505 287.274303 
L 142.231516 287.268858 
L 142.434526 288.31553 
L 142.637537 288.060633 
L 142.840548 288.20075 
L 143.043558 288.755444 
L 143.246569 288.733571 
L 143.449579 288.465911 
L 144.464632 290.364511 
L 144.667643 290.385714 
L 144.870654 290.254619 
L 145.276675 289.31384 
L 145.479685 289.878962 
L 145.682696 289.915773 
L 145.885706 289.706011 
L 146.088717 288.180585 
L 146.291728 288.028778 
L 146.697749 288.596634 
L 146.900759 289.355536 
L 147.10377 289.38578 
L 147.306781 290.22847 
L 147.509791 290.180173 
L 147.712802 290.634701 
L 147.915812 289.849869 
L 148.118823 290.132902 
L 148.321834 291.23428 
L 148.524844 291.016616 
L 148.727855 291.153157 
L 148.930865 291.540745 
L 149.133876 291.424267 
L 149.336887 291.49918 
L 149.742908 290.837278 
L 149.945918 290.613408 
L 150.35194 289.441381 
L 150.55495 289.85624 
L 150.757961 290.937576 
L 150.960971 290.718571 
L 151.163982 291.465616 
L 151.366993 291.452948 
L 151.570003 291.282447 
L 151.773014 290.96438 
L 151.976024 292.05285 
L 152.179035 291.975333 
L 152.382046 293.229226 
L 152.585056 293.745285 
L 152.788067 293.372388 
L 152.991077 293.550214 
L 153.194088 294.129082 
L 153.397099 294.334732 
L 153.600109 293.990521 
L 153.80312 294.179693 
L 154.00613 294.760072 
L 154.209141 293.994642 
L 154.412152 293.850753 
L 154.615162 294.386236 
L 154.818173 294.38347 
L 155.021183 294.047327 
L 155.427205 294.997622 
L 155.630215 293.729426 
L 155.833226 293.915781 
L 156.036236 293.870882 
L 156.239247 294.262394 
L 156.442257 294.154829 
L 156.645268 294.701321 
L 156.848279 294.662063 
L 157.051289 295.063127 
L 157.863332 295.628875 
L 158.066342 294.591988 
L 158.472363 294.3548 
L 158.675374 294.479946 
L 158.878385 295.074224 
L 159.081395 295.068705 
L 159.284406 296.22939 
L 159.487416 296.184918 
L 159.690427 296.278101 
L 159.893438 297.541464 
L 160.096448 297.42799 
L 160.299459 296.855878 
L 160.502469 297.045117 
L 160.70548 297.743345 
L 160.908491 297.734707 
L 161.111501 297.988332 
L 161.314512 297.865023 
L 161.517522 298.203313 
L 161.720533 297.470625 
L 161.923544 297.398062 
L 162.126554 298.123807 
L 162.329565 298.082261 
L 162.532575 298.284975 
L 162.735586 298.734475 
L 163.547628 299.273318 
L 163.750639 299.89491 
L 163.95365 300.084085 
L 164.15666 299.997223 
L 164.359671 299.196294 
L 164.562681 299.473472 
L 164.765692 299.452987 
L 164.968703 299.272536 
L 165.171713 299.919821 
L 165.374724 299.877176 
L 165.780745 301.739459 
L 166.186766 301.347917 
L 166.389777 301.432465 
L 166.592787 302.193604 
L 166.998808 302.572909 
L 167.201819 302.688665 
L 167.40483 303.028699 
L 168.013861 302.225331 
L 168.216872 301.018142 
L 168.419883 302.135976 
L 168.622893 301.02063 
L 168.825904 300.919587 
L 169.028914 300.167505 
L 169.637946 299.752098 
L 169.840957 299.907019 
L 170.449989 300.976269 
L 170.652999 300.523225 
L 170.85601 300.949891 
L 171.465042 299.374252 
L 171.668052 299.32755 
L 171.871063 298.771651 
L 172.074073 298.82655 
L 172.480095 299.149069 
L 172.886116 297.265876 
L 173.089126 297.638947 
L 173.292137 297.474244 
L 173.495148 296.718225 
L 173.698158 296.805237 
L 173.901169 295.830868 
L 174.104179 295.853977 
L 174.30719 295.621856 
L 174.510201 293.998622 
L 174.916222 293.781192 
L 175.119232 293.668171 
L 175.322243 292.577846 
L 175.525254 292.186564 
L 175.728264 290.606187 
L 175.931275 290.176273 
L 176.337296 291.047757 
L 176.540307 290.554016 
L 176.743317 288.873096 
L 176.946328 288.164304 
L 177.149338 286.454631 
L 177.555359 285.444842 
L 177.961381 283.583922 
L 178.164391 283.349608 
L 178.367402 282.051241 
L 178.773423 281.168686 
L 179.179444 280.847452 
L 179.585465 279.691338 
L 180.194497 278.303713 
L 180.397508 277.775764 
L 180.600518 277.743387 
L 181.20955 275.654307 
L 181.615571 273.52379 
L 181.818582 273.4486 
L 182.021593 273.743141 
L 182.224603 274.671452 
L 182.630624 274.56341 
L 183.239656 272.964429 
L 183.442667 271.711557 
L 183.645677 271.855533 
L 183.848688 270.531818 
L 184.254709 269.3546 
L 184.45772 267.695544 
L 184.66073 267.063245 
L 184.863741 267.844271 
L 185.675783 263.642779 
L 185.878794 262.563666 
L 186.081805 262.286356 
L 186.284815 260.195492 
L 186.487826 260.184058 
L 186.690836 259.80265 
L 186.893847 258.11744 
L 187.096858 258.596469 
L 187.502879 255.846438 
L 187.705889 256.126383 
L 187.9089 255.997342 
L 188.111911 256.590141 
L 188.314921 256.467747 
L 188.517932 255.882166 
L 188.720942 257.125526 
L 188.923953 256.747813 
L 189.532985 259.160045 
L 189.735995 259.202363 
L 189.939006 259.550787 
L 190.142016 259.236404 
L 190.345027 259.43869 
L 190.548038 259.348674 
L 190.751048 257.966268 
L 190.954059 258.405995 
L 191.157069 257.979285 
L 191.36008 256.697206 
L 191.766101 257.297937 
L 191.969112 256.785393 
L 192.375133 254.287277 
L 192.578144 253.737359 
L 193.187175 249.958458 
L 193.390186 249.756052 
L 193.593197 247.808778 
L 193.796207 248.43677 
L 194.202228 246.938418 
L 194.405239 247.601489 
L 194.81126 246.276047 
L 195.014271 247.458626 
L 195.217281 247.05378 
L 195.420292 246.160044 
L 195.623303 244.127183 
L 196.232334 246.139368 
L 196.435345 246.109103 
L 196.638356 245.568773 
L 196.841366 243.225136 
L 197.044377 242.48917 
L 197.247387 243.343344 
L 197.450398 243.314754 
L 197.653409 243.869699 
L 197.856419 243.267175 
L 198.05943 243.936687 
L 198.26244 245.203964 
L 198.668462 245.981389 
L 199.074483 248.019133 
L 199.277493 248.21756 
L 199.480504 248.827164 
L 199.886525 247.23401 
L 200.089536 245.379989 
L 200.901578 246.622827 
L 201.104589 245.397858 
L 201.307599 244.881873 
L 201.51061 243.594898 
L 201.71362 243.492216 
L 201.916631 243.545214 
L 202.119642 243.136057 
L 202.322652 242.147014 
L 202.525663 240.282078 
L 202.728673 239.462911 
L 203.337705 234.726489 
L 203.540716 234.862131 
L 203.946737 234.000406 
L 204.149748 232.118363 
L 204.352758 232.725658 
L 204.758779 230.709629 
L 204.96179 230.063923 
L 205.164801 229.821862 
L 205.367811 227.824019 
L 205.570822 228.428736 
L 205.773832 228.331596 
L 205.976843 227.699483 
L 206.179854 227.527184 
L 206.585875 226.994295 
L 206.788885 228.350613 
L 206.991896 228.505322 
L 207.194907 228.27889 
L 207.397917 228.778513 
L 207.600928 227.269939 
L 207.803938 227.753426 
L 208.006949 227.116812 
L 208.615981 222.241606 
L 208.818991 220.348933 
L 209.022002 220.745712 
L 209.428023 220.128849 
L 209.631034 219.296069 
L 210.443076 213.351436 
L 210.646087 213.504684 
L 210.849097 213.118026 
L 211.052108 213.260958 
L 211.255118 214.665784 
L 211.458129 214.305078 
L 211.66114 215.256627 
L 211.86415 215.643598 
L 212.270171 216.95835 
L 212.676193 217.463894 
L 212.879203 218.095991 
L 213.082214 218.105924 
L 213.285224 217.810062 
L 213.488235 216.947106 
L 213.691246 217.257552 
L 213.894256 216.910128 
L 214.097267 217.347555 
L 214.300277 215.567862 
L 214.503288 215.70604 
L 214.909309 214.259069 
L 215.11232 214.474467 
L 215.31533 213.953259 
L 215.721352 212.144182 
L 215.924362 212.539684 
L 216.127373 213.362153 
L 217.142426 211.06575 
L 217.345436 213.310838 
L 217.548447 214.110809 
L 217.751458 214.286042 
L 217.954468 214.049208 
L 218.157479 214.39957 
L 218.360489 214.095112 
L 218.5635 213.308554 
L 218.766511 213.388988 
L 218.969521 213.015786 
L 219.578553 209.664487 
L 219.984574 208.093123 
L 220.593606 210.686849 
L 220.796616 208.575629 
L 220.999627 209.020342 
L 221.202638 208.393101 
L 221.405648 207.305056 
L 221.811669 208.648868 
L 222.01468 210.114609 
L 222.217691 209.963736 
L 222.420701 209.004129 
L 222.623712 209.059212 
L 223.029733 210.716249 
L 223.435754 211.993169 
L 223.638765 211.570499 
L 223.841775 212.551082 
L 224.247797 211.32837 
L 224.450807 211.093473 
L 224.653818 211.57075 
L 224.856828 210.448394 
L 225.059839 211.085845 
L 225.26285 212.117162 
L 225.46586 213.980388 
L 225.668871 213.639276 
L 225.871881 214.904298 
L 226.074892 214.026731 
L 226.277903 213.940481 
L 226.480913 214.516798 
L 226.683924 215.605166 
L 226.886934 215.668188 
L 227.089945 214.836195 
L 227.292956 214.489099 
L 227.495966 213.531519 
L 228.104998 214.874561 
L 228.308009 214.458991 
L 228.511019 214.685131 
L 228.71403 215.534828 
L 228.91704 215.700121 
L 229.526072 218.21572 
L 229.729083 217.136357 
L 229.932093 217.869916 
L 230.135104 218.007002 
L 230.338115 218.441413 
L 230.541125 217.845796 
L 230.744136 218.240401 
L 230.947146 219.075839 
L 231.150157 218.594523 
L 231.353167 219.047731 
L 231.556178 218.725725 
L 231.759189 217.411942 
L 231.962199 217.387243 
L 232.16521 216.749824 
L 232.36822 216.968034 
L 232.774242 215.791217 
L 232.977252 215.649947 
L 233.180263 216.043869 
L 233.383273 217.014706 
L 233.586284 215.993047 
L 233.789295 217.299126 
L 233.992305 217.537671 
L 234.601337 217.611957 
L 234.804348 218.224003 
L 235.210369 218.024589 
L 235.413379 217.712798 
L 235.61639 216.655343 
L 235.819401 217.952686 
L 236.022411 217.470247 
L 236.225422 219.002241 
L 236.428432 218.521632 
L 236.631443 219.098121 
L 236.834454 218.715643 
L 237.037464 217.795458 
L 237.443485 218.728154 
L 237.646496 219.761567 
L 238.661549 217.582371 
L 238.86456 218.075591 
L 239.06757 217.873979 
L 239.270581 216.226799 
L 239.473591 215.870092 
L 239.676602 216.397904 
L 240.285634 215.881528 
L 240.488644 216.339987 
L 240.691655 214.821801 
L 240.894666 214.391031 
L 241.097676 214.88251 
L 241.300687 215.90473 
L 241.706708 215.457103 
L 241.909718 216.08042 
L 242.31574 216.536665 
L 242.721761 215.414144 
L 243.330793 215.469827 
L 243.533803 217.01824 
L 243.939824 217.89383 
L 244.954877 222.626513 
L 245.157888 222.86183 
L 245.360899 224.095555 
L 245.563909 224.103608 
L 245.76692 224.576615 
L 245.96993 224.275688 
L 246.172941 224.454115 
L 246.375952 224.309909 
L 246.781973 226.433636 
L 246.984983 226.645464 
L 247.187994 226.554342 
L 247.594015 227.315984 
L 247.797026 227.545338 
L 248.000036 228.432948 
L 248.203047 228.557576 
L 248.406058 229.254272 
L 248.609068 229.086074 
L 248.812079 229.233818 
L 249.015089 229.101751 
L 249.2181 228.690418 
L 249.421111 230.265917 
L 249.624121 230.14503 
L 249.827132 230.738244 
L 250.030142 229.531432 
L 250.233153 230.837175 
L 250.436164 229.771319 
L 250.639174 230.620066 
L 250.842185 230.134329 
L 251.045195 231.807818 
L 251.248206 231.665863 
L 251.451217 230.731526 
L 251.654227 230.843429 
L 251.857238 230.212375 
L 252.060248 229.998457 
L 252.263259 230.46579 
L 252.466269 229.511823 
L 252.66928 229.844718 
L 252.872291 231.027298 
L 253.075301 230.481056 
L 253.278312 230.629313 
L 253.481322 231.036754 
L 253.684333 229.708066 
L 253.887344 229.874102 
L 254.090354 230.366033 
L 254.293365 229.729012 
L 254.496375 229.858215 
L 254.902397 232.255287 
L 255.105407 232.504045 
L 255.308418 233.490949 
L 255.511428 233.808117 
L 255.91745 235.195064 
L 256.12046 236.551393 
L 256.323471 236.952752 
L 256.526481 237.933064 
L 256.932503 237.071164 
L 257.338524 238.490269 
L 257.541534 238.490962 
L 257.744545 239.265498 
L 257.947556 238.725516 
L 258.150566 239.143135 
L 258.353577 238.799725 
L 258.556587 239.067272 
L 258.962609 240.406536 
L 259.165619 241.218688 
L 259.36863 240.555686 
L 259.57164 241.045561 
L 259.977662 242.964219 
L 260.383683 243.292465 
L 260.789704 244.368151 
L 260.992715 243.897965 
L 261.195725 244.526851 
L 261.398736 244.590436 
L 261.601746 244.823327 
L 261.804757 245.845333 
L 262.007768 245.087532 
L 262.210778 245.924904 
L 262.616799 244.671169 
L 262.81981 244.801563 
L 263.022821 245.385379 
L 263.225831 245.577446 
L 263.631852 247.139878 
L 263.834863 246.943958 
L 264.240884 244.487727 
L 264.443895 245.025882 
L 265.255937 242.121679 
L 265.458948 242.168927 
L 265.661958 242.5763 
L 265.864969 241.61245 
L 266.067979 241.658108 
L 266.474001 239.1105 
L 266.677011 239.291401 
L 266.880022 238.575367 
L 267.083032 238.466859 
L 267.489054 236.419735 
L 267.692064 235.70889 
L 267.895075 235.797604 
L 268.098085 235.543756 
L 268.301096 235.062844 
L 268.504107 233.534859 
L 268.910128 232.701511 
L 269.113138 232.268784 
L 269.316149 233.593133 
L 269.51916 233.851044 
L 269.72217 233.635593 
L 269.925181 232.500543 
L 270.128191 232.004954 
L 270.331202 231.116805 
L 270.534213 231.446764 
L 270.940234 228.783885 
L 271.143244 227.442827 
L 271.346255 227.811845 
L 271.549266 227.154391 
L 272.158297 226.458776 
L 272.361308 226.706203 
L 272.767329 224.731718 
L 272.97034 225.264411 
L 273.17335 224.503735 
L 273.376361 222.852701 
L 273.579372 222.592925 
L 273.985393 220.954719 
L 274.188403 221.674937 
L 274.594424 219.692694 
L 274.797435 220.851613 
L 275.000446 221.349563 
L 275.406467 220.495176 
L 275.609477 220.325845 
L 275.812488 218.672771 
L 276.015499 219.725586 
L 276.62453 218.05671 
L 276.827541 216.625164 
L 277.030552 216.623037 
L 277.233562 216.42959 
L 277.436573 216.874248 
L 277.842594 214.98896 
L 278.045605 215.039687 
L 278.248615 213.541587 
L 278.451626 213.052271 
L 278.654636 211.519461 
L 278.857647 210.89504 
L 279.060658 210.767221 
L 279.263668 211.100274 
L 279.669689 208.376457 
L 279.8727 208.885446 
L 280.075711 208.357941 
L 280.278721 207.492915 
L 280.481732 205.638892 
L 280.887753 204.438806 
L 281.090764 203.990045 
L 281.293774 202.960544 
L 281.496785 202.843146 
L 281.699795 203.253443 
L 281.902806 203.255042 
L 282.105817 202.393825 
L 282.308827 200.705153 
L 282.511838 200.507176 
L 282.714848 199.189707 
L 282.917859 199.412653 
L 283.12087 199.465788 
L 283.32388 199.260889 
L 283.526891 198.38339 
L 283.729901 199.229072 
L 284.135923 198.037841 
L 284.338933 196.770149 
L 284.541944 196.918756 
L 284.947965 196.19919 
L 285.150975 196.149393 
L 285.353986 195.886499 
L 285.556997 195.928991 
L 285.760007 195.108308 
L 285.963018 194.962637 
L 286.166028 193.984097 
L 286.369039 193.906287 
L 286.57205 193.673322 
L 286.77506 193.887155 
L 287.384092 196.287124 
L 287.587103 194.987411 
L 287.993124 196.037674 
L 288.196134 195.657967 
L 288.602156 193.916535 
L 289.008177 194.307259 
L 289.414198 192.067373 
L 289.617209 191.689732 
L 289.820219 190.08256 
L 290.02323 190.123102 
L 290.22624 190.01743 
L 290.429251 190.208666 
L 290.632262 189.936987 
L 290.835272 189.430074 
L 291.241293 189.165671 
L 291.444304 190.10292 
L 291.647315 190.21678 
L 292.459357 191.976661 
L 292.662368 191.819148 
L 292.865378 191.182268 
L 293.068389 191.290265 
L 293.271399 192.231284 
L 293.47441 191.758984 
L 293.677421 192.505098 
L 293.880431 192.449589 
L 294.286452 193.598269 
L 294.489463 194.707256 
L 294.692474 194.602625 
L 294.895484 194.71822 
L 295.098495 195.895886 
L 295.301505 194.006341 
L 295.504516 194.142887 
L 295.707526 193.951952 
L 295.910537 193.12021 
L 296.316558 193.521575 
L 296.519569 192.643567 
L 296.722579 192.573794 
L 296.92559 191.834997 
L 297.128601 191.843257 
L 297.331611 192.364657 
L 297.534622 191.423311 
L 297.940643 191.645032 
L 298.346664 190.622806 
L 298.549675 190.88872 
L 298.752685 190.731876 
L 298.955696 191.604511 
L 299.158707 191.551252 
L 299.361717 191.850658 
L 299.564728 191.669062 
L 299.767738 190.250558 
L 299.970749 191.054772 
L 300.17376 190.977277 
L 300.37677 190.244334 
L 300.579781 190.983027 
L 300.782791 191.112746 
L 300.985802 191.483669 
L 301.188813 191.546616 
L 301.594834 191.110668 
L 301.797844 191.320507 
L 302.000855 190.844647 
L 302.406876 189.284732 
L 302.609887 189.54184 
L 302.812897 190.383726 
L 303.015908 190.664633 
L 303.218919 190.566958 
L 303.62494 189.003038 
L 303.82795 187.682881 
L 304.030961 187.310918 
L 304.233972 185.730461 
L 304.639993 184.221351 
L 304.843003 184.391694 
L 305.046014 183.259144 
L 305.249025 183.266024 
L 305.452035 181.930081 
L 305.655046 181.83274 
L 305.858056 181.929041 
L 306.061067 181.342636 
L 306.264077 181.250923 
L 306.467088 180.7335 
L 306.670099 180.730411 
L 307.27913 179.719754 
L 307.888162 177.018325 
L 308.091173 176.893259 
L 308.497194 175.284737 
L 308.903215 174.355653 
L 309.106226 174.598914 
L 309.512247 173.494483 
L 310.121279 174.111107 
L 310.324289 173.901565 
L 310.933321 171.326843 
L 311.136332 170.427029 
L 311.339342 170.202312 
L 311.542353 169.540878 
L 311.745364 169.446731 
L 311.948374 168.594125 
L 312.151385 168.379314 
L 312.760417 165.015389 
L 313.369448 162.744656 
L 313.572459 162.643912 
L 313.77547 161.597457 
L 313.97848 161.608358 
L 314.181491 160.090479 
L 314.384501 159.981418 
L 314.587512 158.66178 
L 314.790523 158.619002 
L 314.993533 157.236803 
L 315.196544 157.015511 
L 315.602565 155.347188 
L 316.008586 155.233896 
L 316.617618 154.194804 
L 316.820628 154.130074 
L 317.22665 153.098495 
L 317.42966 152.907914 
L 317.632671 153.024213 
L 317.835681 152.149777 
L 318.038692 152.772808 
L 318.241703 152.212893 
L 318.444713 152.480282 
L 318.850734 151.853631 
L 319.256756 151.862552 
L 320.068798 149.205789 
L 320.271809 149.502345 
L 320.474819 148.409981 
L 320.67783 148.546304 
L 320.88084 149.053525 
L 321.083851 148.81064 
L 321.692883 147.438425 
L 321.895893 147.987958 
L 322.504925 146.803313 
L 322.707936 146.741875 
L 323.113957 146.083771 
L 323.519978 144.117599 
L 323.925999 143.116675 
L 324.535031 143.308268 
L 325.144063 144.063356 
L 325.347074 143.723489 
L 325.550084 144.037578 
L 325.956105 144.062978 
L 326.159116 143.772825 
L 326.362127 143.006443 
L 326.565137 142.752118 
L 327.377179 142.56864 
L 327.58019 142.165599 
L 327.783201 141.296672 
L 328.189222 140.992709 
L 328.392232 140.468326 
L 329.001264 140.044948 
L 329.407285 141.03217 
L 329.610296 141.135644 
L 330.219328 140.26924 
L 330.422338 139.63203 
L 330.82836 139.641164 
L 331.437391 140.979044 
L 331.640402 141.203361 
L 331.843413 141.242308 
L 332.046423 141.607332 
L 332.249434 141.476591 
L 332.452444 141.544566 
L 332.655455 141.415378 
L 332.858466 141.531933 
L 333.873519 143.615439 
L 334.076529 143.409285 
L 334.888572 143.613934 
L 335.091582 144.526148 
L 335.294593 143.363831 
L 335.497603 143.164614 
L 335.700614 143.244395 
L 335.903625 143.583385 
L 336.106635 143.145971 
L 336.309646 143.123193 
L 336.512656 142.169061 
L 336.715667 141.934109 
L 336.918678 142.321008 
L 337.121688 141.531067 
L 337.324699 141.483273 
L 337.527709 141.75855 
L 337.933731 141.730235 
L 338.136741 141.37284 
L 338.339752 141.522915 
L 338.948783 139.687587 
L 339.151794 139.627032 
L 339.354805 139.892851 
L 339.760826 138.724961 
L 339.963836 138.628923 
L 340.166847 138.710614 
L 340.369858 138.560975 
L 340.572868 138.601146 
L 340.775879 138.228202 
L 340.978889 138.907465 
L 341.1819 138.664671 
L 341.384911 138.060214 
L 341.587921 136.782116 
L 342.196953 137.595054 
L 342.399964 137.043914 
L 342.602974 137.54937 
L 342.805985 138.360331 
L 343.008995 138.706882 
L 343.212006 138.412972 
L 343.415017 138.346953 
L 343.618027 139.069091 
L 344.024048 139.143617 
L 344.227059 139.427962 
L 344.63308 139.331362 
L 344.836091 139.938167 
L 345.039101 139.751146 
L 345.445123 140.204848 
L 345.648133 139.96985 
L 345.851144 140.783068 
L 346.257165 140.410627 
L 346.460176 140.895977 
L 346.663186 140.594239 
L 347.272218 141.625686 
L 347.475229 141.107988 
L 347.88125 141.01043 
L 348.490282 143.038481 
L 348.693292 142.738787 
L 349.099313 143.483544 
L 349.505334 144.160895 
L 350.317377 144.039688 
L 350.520387 144.253329 
L 350.926409 145.260092 
L 351.129419 145.345109 
L 351.33243 145.14626 
L 351.53544 144.745392 
L 351.738451 145.071579 
L 351.941462 144.403552 
L 352.144472 144.679508 
L 352.347483 144.594994 
L 352.550493 143.950157 
L 352.753504 144.266682 
L 352.956515 144.210895 
L 353.159525 143.847062 
L 353.565546 144.179441 
L 353.768557 143.732985 
L 353.971568 142.999118 
L 354.174578 142.847133 
L 354.580599 141.918797 
L 354.78361 141.832413 
L 355.392642 142.090907 
L 355.595652 141.690991 
L 356.001674 141.545815 
L 356.204684 141.232791 
L 356.407695 140.626147 
L 356.610705 140.642234 
L 357.016727 140.231416 
L 357.828769 139.775938 
L 358.03178 139.142574 
L 358.843822 138.043476 
L 359.249843 138.350708 
L 359.452854 138.055237 
L 359.655864 138.272872 
L 360.264896 137.960316 
L 360.467907 137.868463 
L 361.279949 136.948779 
L 361.68597 135.962588 
L 362.701023 134.330716 
L 362.904034 134.27664 
L 363.716076 132.579098 
L 363.919087 132.727505 
L 364.122097 132.037959 
L 364.325108 132.066804 
L 364.528119 132.259643 
L 364.731129 132.009291 
L 364.93414 132.200236 
L 365.13715 132.065325 
L 365.340161 131.187564 
L 365.543172 130.898917 
L 365.949193 129.616311 
L 366.152203 129.641702 
L 366.355214 128.832268 
L 366.761235 128.241823 
L 366.964246 127.372706 
L 367.167256 127.254061 
L 368.182309 125.414291 
L 368.38532 125.302358 
L 368.588331 124.191078 
L 368.791341 124.021675 
L 368.994352 123.306606 
L 369.197362 123.134183 
L 369.603384 122.264814 
L 369.806394 122.203825 
L 370.415426 120.761519 
L 371.024458 119.905101 
L 371.633489 118.299486 
L 372.039511 118.454403 
L 372.242521 117.985225 
L 372.445532 117.866272 
L 372.851553 117.20929 
L 373.257574 117.01416 
L 373.866606 116.471395 
L 374.069617 116.037213 
L 374.475638 116.395402 
L 375.08467 116.261897 
L 375.28768 116.32788 
L 375.490691 115.700875 
L 375.693701 115.738165 
L 376.099723 115.078639 
L 376.505744 114.691382 
L 376.708754 114.417767 
L 376.911765 114.562002 
L 377.114776 114.339016 
L 377.520797 114.461267 
L 377.926818 114.246511 
L 378.129829 114.046508 
L 378.332839 114.404072 
L 378.53585 114.479871 
L 378.73886 114.119392 
L 378.941871 114.401603 
L 379.144882 114.299173 
L 379.347892 114.404535 
L 379.550903 113.901935 
L 379.753913 113.769947 
L 379.956924 113.770731 
L 380.159935 113.432921 
L 380.565956 113.250074 
L 380.971977 113.015475 
L 381.174987 113.090064 
L 381.377998 113.365004 
L 381.98703 113.175917 
L 382.19004 113.278833 
L 382.393051 113.051254 
L 382.799072 113.243969 
L 383.408104 112.790801 
L 383.611115 112.85237 
L 383.814125 112.632701 
L 384.017136 112.827738 
L 384.220146 113.189432 
L 384.626168 112.846236 
L 384.829178 113.132935 
L 385.032189 112.764197 
L 385.235199 113.077185 
L 385.43821 113.006655 
L 385.641221 113.106563 
L 386.047242 113.605684 
L 386.859284 114.342935 
L 387.265305 114.4877 
L 387.874337 115.284853 
L 388.280358 115.373546 
L 388.483369 115.25424 
L 388.68638 115.379956 
L 388.88939 115.327545 
L 389.092401 115.90399 
L 389.498422 115.724945 
L 389.701433 116.155635 
L 390.107454 116.441551 
L 390.310464 116.281902 
L 390.716486 116.76776 
L 390.919496 116.74903 
L 391.325517 117.118605 
L 391.528528 117.00128 
L 391.731538 117.140948 
L 391.934549 117.011004 
L 392.13756 117.177367 
L 392.746591 117.124257 
L 392.949602 117.266402 
L 393.152613 117.150144 
L 393.355623 117.269637 
L 393.558634 117.798465 
L 393.761644 117.607899 
L 393.964655 117.630452 
L 394.167666 117.935566 
L 394.370676 117.928157 
L 394.573687 118.114691 
L 394.776697 118.019908 
L 395.182719 118.352888 
L 395.58874 118.785494 
L 396.197772 118.570445 
L 396.400782 118.691787 
L 396.603793 118.611491 
L 397.618846 119.055621 
L 398.430888 118.576062 
L 398.633899 118.700835 
L 398.836909 118.40818 
L 399.03992 118.640119 
L 399.242931 118.637454 
L 399.445941 118.25153 
L 400.054973 118.749683 
L 400.257984 118.907646 
L 400.664005 118.844775 
L 400.867015 118.901221 
L 401.070026 119.082953 
L 401.273037 118.971817 
L 401.679058 119.233769 
L 402.085079 119.404883 
L 402.694111 119.394722 
L 403.100132 119.527928 
L 403.506153 119.373584 
L 404.521206 119.127774 
L 404.724217 118.754987 
L 404.927227 118.822327 
L 405.130238 118.757396 
L 405.536259 118.327685 
L 406.551312 117.439787 
L 406.754323 117.392314 
L 406.957333 117.534962 
L 407.160344 117.498038 
L 407.363354 117.291134 
L 407.972386 117.262547 
L 408.378407 117.021476 
L 408.581418 117.151111 
L 409.19045 117.131741 
L 409.39346 117.557095 
L 409.596471 117.552648 
L 410.002492 117.874739 
L 410.205503 117.628965 
L 410.611524 117.862736 
L 410.814535 117.812081 
L 411.017545 118.082811 
L 411.220556 118.091997 
L 411.626577 118.652663 
L 411.829588 118.692936 
L 412.032598 118.955035 
L 412.235609 118.917862 
L 412.844641 119.329176 
L 413.250662 119.157469 
L 413.859693 119.181552 
L 414.062704 118.759047 
L 414.265715 118.717784 
L 415.077757 117.995657 
L 415.483778 117.82792 
L 416.09281 117.170787 
L 416.904852 116.706003 
L 417.107863 116.638131 
L 417.919905 115.6017 
L 418.325927 115.266896 
L 419.747001 114.411434 
L 420.153022 114.291487 
L 420.559043 113.733312 
L 420.965064 113.713737 
L 421.168075 113.463796 
L 421.574096 113.470471 
L 421.777107 113.477383 
L 422.183128 113.25975 
L 422.386139 112.968012 
L 422.589149 113.037833 
L 422.79216 112.876115 
L 422.99517 112.864509 
L 423.604202 112.524976 
L 423.807213 112.542114 
L 425.228287 111.815132 
L 426.040329 111.160174 
L 426.24334 111.03119 
L 426.44635 111.059548 
L 427.258393 110.336767 
L 427.664414 109.775636 
L 428.070435 109.607056 
L 428.273446 109.543696 
L 429.69452 108.259826 
L 430.303552 106.873803 
L 430.912584 105.993343 
L 431.318605 105.526572 
L 431.927637 104.118751 
L 432.94269 102.720752 
L 433.1457 102.598126 
L 433.551721 102.147624 
L 433.957743 101.732413 
L 434.160753 101.711837 
L 436.799891 99.953782 
L 438.220965 99.589272 
L 438.626986 99.772858 
L 439.236018 99.73827 
L 439.642039 99.665571 
L 439.84505 99.678105 
L 441.266124 98.891583 
L 441.672145 98.582368 
L 441.875156 98.464613 
L 442.281177 98.018777 
L 443.29623 97.096568 
L 443.499241 96.982566 
L 443.905262 97.014625 
L 444.514294 96.701359 
L 444.920315 96.735388 
L 447.153431 96.164409 
L 447.559452 96.150894 
L 447.965474 96.077865 
L 448.371495 96.009417 
L 448.777516 95.768937 
L 449.183537 95.736061 
L 449.386548 95.82461 
L 449.792569 95.788217 
L 449.99558 95.865075 
L 450.19859 95.770725 
L 450.401601 95.807436 
L 450.604611 95.663296 
L 450.807622 95.796753 
L 451.213643 95.695961 
L 451.416654 95.729257 
L 451.822675 95.638348 
L 453.243749 95.654999 
L 453.44676 95.483381 
L 454.055792 95.510628 
L 454.461813 95.514883 
L 454.664823 95.34772 
L 455.070845 95.443293 
L 457.10095 95.668262 
L 457.709982 95.632436 
L 458.116003 95.817109 
L 458.522025 95.747659 
L 460.34912 95.578673 
L 461.161162 95.598337 
L 464.003311 96.908968 
L 464.612343 96.86038 
L 466.642448 96.892697 
L 467.454491 96.766842 
L 468.469544 96.732317 
L 470.905671 96.850165 
L 471.514703 96.795253 
L 472.529756 96.737348 
L 473.747819 96.877302 
L 474.559862 97.011198 
L 474.965883 97.065635 
L 475.168894 97.24275 
L 475.371904 97.209764 
L 476.589968 97.615078 
L 477.198999 97.601765 
L 478.011042 97.30225 
L 478.214052 97.269862 
L 478.620074 96.970864 
L 479.026095 96.851789 
L 479.838137 96.789827 
L 480.244158 96.796665 
L 480.85319 96.912017 
L 482.071254 96.908815 
L 483.289317 96.452593 
L 483.695339 96.215505 
L 484.710392 96.155842 
L 485.725445 96.278687 
L 487.349529 96.230242 
L 488.161572 96.346817 
L 488.770603 96.32381 
L 489.176625 96.367591 
L 492.221784 96.542949 
L 492.627805 96.538982 
L 493.439847 96.451609 
L 494.4549 96.207305 
L 495.266943 95.893443 
L 497.094038 95.151468 
L 498.109091 95.265947 
L 498.109091 95.265947 
" clip-path="url(#pf0526de32b)" style="fill: none; stroke: #ff0000; stroke-linecap: round"/>
   </g>
   <g id="patch_3">
    <path d="M 72 352.44 
L 72 47.52 
" style="fill: none"/>
   </g>
   <g id="patch_4">
    <path d="M 518.4 352.44 
L 518.4 47.52 
" style="fill: none"/>
   </g>
   <g id="patch_5">
    <path d="M 72 352.44 
L 518.4 352.44 
" style="fill: none"/>
   </g>
   <g id="patch_6">
    <path d="M 72 47.52 
L 518.4 47.52 
" style="fill: none"/>
   </g>
   <g id="legend_1">
    <g id="line2d_33">
     <path d="M 390.407812 60.177812 
L 400.407812 60.177812 
L 410.407812 60.177812 
" style="fill: none; stroke: #008080; stroke-width: 1.5; stroke-linecap: round"/>
    </g>
    <g id="text_18">
     <!-- Modified RF 2 -->
     <g style="fill: #262626" transform="translate(418.407812 63.677812) scale(0.1 -0.1)">
      <defs>
       <path id="ArialMT-4d" d="M 475 0 
L 475 4581 
L 1388 4581 
L 2472 1338 
Q 2622 884 2691 659 
Q 2769 909 2934 1394 
L 4031 4581 
L 4847 4581 
L 4847 0 
L 4263 0 
L 4263 3834 
L 2931 0 
L 2384 0 
L 1059 3900 
L 1059 0 
L 475 0 
z
" transform="scale(0.015625)"/>
       <path id="ArialMT-64" d="M 2575 0 
L 2575 419 
Q 2259 -75 1647 -75 
Q 1250 -75 917 144 
Q 584 363 401 755 
Q 219 1147 219 1656 
Q 219 2153 384 2558 
Q 550 2963 881 3178 
Q 1213 3394 1622 3394 
Q 1922 3394 2156 3267 
Q 2391 3141 2538 2938 
L 2538 4581 
L 3097 4581 
L 3097 0 
L 2575 0 
z
M 797 1656 
Q 797 1019 1065 703 
Q 1334 388 1700 388 
Q 2069 388 2326 689 
Q 2584 991 2584 1609 
Q 2584 2291 2321 2609 
Q 2059 2928 1675 2928 
Q 1300 2928 1048 2622 
Q 797 2316 797 1656 
z
" transform="scale(0.015625)"/>
       <path id="ArialMT-66" d="M 556 0 
L 556 2881 
L 59 2881 
L 59 3319 
L 556 3319 
L 556 3672 
Q 556 4006 616 4169 
Q 697 4388 901 4523 
Q 1106 4659 1475 4659 
Q 1713 4659 2000 4603 
L 1916 4113 
Q 1741 4144 1584 4144 
Q 1328 4144 1222 4034 
Q 1116 3925 1116 3625 
L 1116 3319 
L 1763 3319 
L 1763 2881 
L 1116 2881 
L 1116 0 
L 556 0 
z
" transform="scale(0.015625)"/>
       <path id="ArialMT-46" d="M 525 0 
L 525 4581 
L 3616 4581 
L 3616 4041 
L 1131 4041 
L 1131 2622 
L 3281 2622 
L 3281 2081 
L 1131 2081 
L 1131 0 
L 525 0 
z
" transform="scale(0.015625)"/>
      </defs>
      <use xlink:href="#ArialMT-4d"/>
      <use xlink:href="#ArialMT-6f" x="83.300781"/>
      <use xlink:href="#ArialMT-64" x="138.916016"/>
      <use xlink:href="#ArialMT-69" x="194.53125"/>
      <use xlink:href="#ArialMT-66" x="216.748047"/>
      <use xlink:href="#ArialMT-69" x="244.53125"/>
      <use xlink:href="#ArialMT-65" x="266.748047"/>
      <use xlink:href="#ArialMT-64" x="322.363281"/>
      <use xlink:href="#ArialMT-20" x="377.978516"/>
      <use xlink:href="#ArialMT-52" x="405.761719"/>
      <use xlink:href="#ArialMT-46" x="477.978516"/>
      <use xlink:href="#ArialMT-20" x="539.0625"/>
      <use xlink:href="#ArialMT-32" x="566.845703"/>
     </g>
    </g>
    <g id="line2d_34">
     <path d="M 390.407812 74.352812 
L 400.407812 74.352812 
L 410.407812 74.352812 
" style="fill: none; stroke: #ff0000; stroke-linecap: round"/>
    </g>
    <g id="text_19">
     <!-- Moving Average 100 -->
     <g style="fill: #262626" transform="translate(418.407812 77.852812) scale(0.1 -0.1)">
      <defs>
       <path id="ArialMT-76" d="M 1344 0 
L 81 3319 
L 675 3319 
L 1388 1331 
Q 1503 1009 1600 663 
Q 1675 925 1809 1294 
L 2547 3319 
L 3125 3319 
L 1869 0 
L 1344 0 
z
" transform="scale(0.015625)"/>
       <path id="ArialMT-67" d="M 319 -275 
L 866 -356 
Q 900 -609 1056 -725 
Q 1266 -881 1628 -881 
Q 2019 -881 2231 -725 
Q 2444 -569 2519 -288 
Q 2563 -116 2559 434 
Q 2191 0 1641 0 
Q 956 0 581 494 
Q 206 988 206 1678 
Q 206 2153 378 2554 
Q 550 2956 876 3175 
Q 1203 3394 1644 3394 
Q 2231 3394 2613 2919 
L 2613 3319 
L 3131 3319 
L 3131 450 
Q 3131 -325 2973 -648 
Q 2816 -972 2473 -1159 
Q 2131 -1347 1631 -1347 
Q 1038 -1347 672 -1080 
Q 306 -813 319 -275 
z
M 784 1719 
Q 784 1066 1043 766 
Q 1303 466 1694 466 
Q 2081 466 2343 764 
Q 2606 1063 2606 1700 
Q 2606 2309 2336 2618 
Q 2066 2928 1684 2928 
Q 1309 2928 1046 2623 
Q 784 2319 784 1719 
z
" transform="scale(0.015625)"/>
       <path id="ArialMT-41" d="M -9 0 
L 1750 4581 
L 2403 4581 
L 4278 0 
L 3588 0 
L 3053 1388 
L 1138 1388 
L 634 0 
L -9 0 
z
M 1313 1881 
L 2866 1881 
L 2388 3150 
Q 2169 3728 2063 4100 
Q 1975 3659 1816 3225 
L 1313 1881 
z
" transform="scale(0.015625)"/>
      </defs>
      <use xlink:href="#ArialMT-4d"/>
      <use xlink:href="#ArialMT-6f" x="83.300781"/>
      <use xlink:href="#ArialMT-76" x="138.916016"/>
      <use xlink:href="#ArialMT-69" x="188.916016"/>
      <use xlink:href="#ArialMT-6e" x="211.132812"/>
      <use xlink:href="#ArialMT-67" x="266.748047"/>
      <use xlink:href="#ArialMT-20" x="322.363281"/>
      <use xlink:href="#ArialMT-41" x="344.646484"/>
      <use xlink:href="#ArialMT-76" x="409.595703"/>
      <use xlink:href="#ArialMT-65" x="459.595703"/>
      <use xlink:href="#ArialMT-72" x="515.210938"/>
      <use xlink:href="#ArialMT-61" x="548.511719"/>
      <use xlink:href="#ArialMT-67" x="604.126953"/>
      <use xlink:href="#ArialMT-65" x="659.742188"/>
      <use xlink:href="#ArialMT-20" x="715.357422"/>
      <use xlink:href="#ArialMT-31" x="743.140625"/>
      <use xlink:href="#ArialMT-30" x="798.755859"/>
      <use xlink:href="#ArialMT-30" x="854.371094"/>
     </g>
    </g>
   </g>
  </g>
 </g>
 <defs>
  <clipPath id="pf0526de32b">
   <rect x="72" y="47.52" width="446.4" height="304.92"/>
  </clipPath>
 </defs>
</svg>
